SplineFontDB: 3.0
FontName: Fenix
FullName: Fenix
FamilyName: Fenix
Weight: Book
Copyright: Copyright (c) 2012 by Fernando Diaz (fer@ferfolio.com), with Reserved Font Name 'Fenix'.
Version: 004.301
ItalicAngle: 0
UnderlinePosition: -82
UnderlineWidth: 58
Ascent: 800
Descent: 200
sfntRevision: 0x00010000
LayerCount: 2
Layer: 0 1 "Back"  1
Layer: 1 1 "Fore"  0
XUID: [1021 903 1734605164 7971743]
FSType: 0
OS2Version: 2
OS2_WeightWidthSlopeOnly: 0
OS2_UseTypoMetrics: 1
CreationTime: 1348570035
ModificationTime: 1349106345
PfmFamily: 17
TTFWeight: 400
TTFWidth: 5
LineGap: 0
VLineGap: 0
Panose: 2 0 5 3 0 0 0 2 0 3
OS2TypoAscent: 879
OS2TypoAOffset: 0
OS2TypoDescent: -238
OS2TypoDOffset: 0
OS2TypoLinegap: 0
OS2WinAscent: 879
OS2WinAOffset: 0
OS2WinDescent: 238
OS2WinDOffset: 0
HheadAscent: 879
HheadAOffset: 0
HheadDescent: -238
HheadDOffset: 0
OS2SubXSize: 700
OS2SubYSize: 650
OS2SubXOff: 0
OS2SubYOff: 140
OS2SupXSize: 700
OS2SupYSize: 650
OS2SupXOff: 0
OS2SupYOff: 477
OS2StrikeYSize: 58
OS2StrikeYPos: 225
OS2Vendor: 'PYRS'
OS2CodePages: 00000001.00000000
OS2UnicodeRanges: 800000af.4000004a.00000000.00000000
Lookup: 4 0 1 "'liga' Standard Ligatures in Latin lookup 0"  {"'liga' Standard Ligatures in Latin lookup 0 subtable"  } ['liga' ('latn' <'dflt' > ) ]
Lookup: 258 0 0 "'kern' Horizontal Kerning in Latin lookup 0"  {"'kern' Horizontal Kerning in Latin lookup 0 per glyph data 0"  "'kern' Horizontal Kerning in Latin lookup 0 kerning class 1"  } ['kern' ('latn' <'dflt' > ) ]
DEI: 91125
KernClass2: 75+ 67 "'kern' Horizontal Kerning in Latin lookup 0 kerning class 1" 
 5 space
 20 hyphen endash emdash
 40 comma period quotesinglbase quotedblbase
 15 colon semicolon
 10 exclamdown
 20 quotedbl quotesingle
 14 periodcentered
 24 quoteright quotedblright
 22 quoteleft quotedblleft
 8 asterisk
 5 slash
 2 at
 27 guillemotleft guilsinglleft
 29 guillemotright guilsinglright
 9 backslash
 9 ampersand
 12 questiondown
 3 one
 4 zero
 5 seven
 4 four
 3 six
 4 nine
 9 parenleft

StartChar: .notdef
Encoding: 65536 -1 0
Width: 568
Flags: W
LayerCount: 2
Fore
SplineSet
186 469 m 1,0,-1
 149 432 l 1,1,-1
 247 334 l 1,2,-1
 148 235 l 1,3,-1
 185 198 l 1,4,-1
 284 296 l 1,5,-1
 383 198 l 1,6,-1
 420 235 l 1,7,-1
 321 334 l 1,8,-1
 419 432 l 1,9,-1
 382 469 l 1,10,-1
 284 371 l 1,11,-1
 186 469 l 1,0,-1
50 0 m 1,12,-1
 50 680 l 1,13,-1
 518 680 l 1,14,-1
 518 0 l 1,15,-1
 50 0 l 1,12,-1
EndSplineSet
EndChar

StartChar: exclam
Encoding: 33 33 4
Width: 245
GlyphClass: 2
Flags: W
LayerCount: 2
Fore
SplineSet
71 678 m 1,0,-1
 163 688 l 1,1,-1
 175 677 l 1,2,-1
 141 191 l 1,3,-1
 116 187 l 1,4,-1
 103 189 l 1,5,-1
 71 678 l 1,0,-1
84.5 7.5 m 128,-1,7
 69 23 69 23 69 46.5 c 128,-1,8
 69 70 69 70 84.5 86 c 128,-1,9
 100 102 100 102 123.5 102 c 128,-1,10
 147 102 147 102 163 86 c 128,-1,11
 179 70 179 70 179 46.5 c 128,-1,12
 179 23 179 23 163 7.5 c 128,-1,13
 147 -8 147 -8 123.5 -8 c 128,-1,6
 100 -8 100 -8 84.5 7.5 c 128,-1,7
EndSplineSet
EndChar

StartChar: quotedbl
Encoding: 34 34 5
Width: 321
GlyphClass: 2
Flags: W
LayerCount: 2
Fore
SplineSet
45 670 m 1,0,-1
 121 680 l 1,1,-1
 133 669 l 1,2,-1
 105 462 l 1,3,-1
 71 458 l 1,4,-1
 45 670 l 1,0,-1
190 670 m 1,5,-1
 266 680 l 1,6,-1
 278 669 l 1,7,-1
 250 462 l 1,8,-1
 216 458 l 1,9,-1
 190 670 l 1,5,-1
EndSplineSet
EndChar

StartChar: numbersign
Encoding: 35 35 6
Width: 599
GlyphClass: 2
Flags: W
LayerCount: 2
Fore
SplineSet
58 412 m 1,0,-1
 76 451 l 1,1,-1
 194 451 l 1,2,-1
 218 628 l 1,3,-1
 274 638 l 1,4,-1
 285 627 l 1,5,-1
 258 451 l 1,6,-1
 377 453 l 1,7,-1
 400 628 l 1,8,-1
 456 638 l 1,9,-1
 467 627 l 1,10,-1
 440 454 l 1,11,-1
 560 456 l 1,12,-1
 569 444 l 1,13,-1
 551 397 l 1,14,15
 500 397 500 397 432 398 c 1,16,-1
 412 251 l 1,17,-1
 531 253 l 1,18,-1
 540 241 l 1,19,-1
 523 195 l 1,20,21
 472 195 472 195 404 196 c 1,22,-1
 382 22 l 1,23,-1
 325 12 l 1,24,-1
 315 23 l 1,25,26
 328 114 328 114 341 196 c 1,27,28
 302 197 302 197 223 197 c 1,29,-1
 200 22 l 1,30,-1
 143 12 l 1,31,-1
 133 23 l 1,32,-1
 159 197 l 1,33,34
 103 198 103 198 39 198 c 1,35,-1
 30 210 l 1,36,-1
 47 249 l 1,37,-1
 167 249 l 1,38,-1
 188 399 l 1,39,40
 132 400 132 400 68 400 c 1,41,-1
 58 412 l 1,0,-1
250 399 m 1,42,-1
 230 249 l 1,43,44
 271 250 271 250 349 250 c 1,45,-1
 369 398 l 1,46,47
 330 399 330 399 250 399 c 1,42,-1
EndSplineSet
EndChar

StartChar: dollar
Encoding: 36 36 7
Width: 461
GlyphClass: 2
Flags: W
LayerCount: 2
Fore
SplineSet
319 540 m 1,0,1
 294 554 294 554 229 554 c 128,-1,2
 164 554 164 554 136 521 c 0,3,4
 123 505 123 505 123 481 c 0,5,6
 123 418 123 418 189 396 c 2,7,-1
 301 358 l 2,8,9
 367 336 367 336 398 291 c 128,-1,10
 429 246 429 246 429 200 c 0,11,12
 429 130 429 130 372 88 c 0,13,14
 326 55 326 55 259 48 c 1,15,-1
 272 -77 l 1,16,-1
 212 -87 l 1,17,-1
 200 -76 l 1,18,-1
 213 47 l 1,19,20
 148 50 148 50 100.5 74.5 c 128,-1,21
 53 99 53 99 30 126 c 1,22,-1
 89 221 l 1,23,-1
 113 215 l 1,24,-1
 117 133 l 1,25,26
 162 105 162 105 235 105 c 0,27,28
 338 105 338 105 349 173 c 0,29,30
 350 180 350 180 350 186 c 0,31,32
 350 246 350 246 258 275 c 1,33,-1
 149 312 l 2,34,35
 101 328 101 328 74.5 365.5 c 128,-1,36
 48 403 48 403 48 454 c 0,37,38
 48 523 48 523 94.5 562 c 128,-1,39
 141 601 141 601 210 608 c 1,40,-1
 199 725 l 1,41,-1
 259 735 l 1,42,-1
 271 724 l 1,43,-1
 260 609 l 1,44,45
 347 604 347 604 415 539 c 1,46,-1
 352 448 l 1,47,-1
 329 455 l 1,48,-1
 319 540 l 1,0,1
EndSplineSet
EndChar

StartChar: percent
Encoding: 37 37 8
Width: 709
GlyphClass: 2
Flags: W
LayerCount: 2
Fore
SplineSet
456 164 m 0,0,1
 456 47 456 47 541 47 c 0,2,3
 573 47 573 47 595 58 c 1,4,5
 613 97 613 97 613 152 c 0,6,7
 613 270 613 270 529 270 c 0,8,9
 497 270 497 270 475 259 c 1,10,11
 456 219 456 219 456 164 c 0,0,1
431.5 35 m 128,-1,13
 394 70 394 70 394 148.5 c 128,-1,14
 394 227 394 227 437.5 272 c 128,-1,15
 481 317 481 317 540 317 c 128,-1,16
 599 317 599 317 637.5 277.5 c 128,-1,17
 676 238 676 238 676 159.5 c 128,-1,18
 676 81 676 81 633 40.5 c 128,-1,19
 590 0 590 0 529.5 0 c 128,-1,12
 469 0 469 0 431.5 35 c 128,-1,13
96 497 m 0,20,21
 96 380 96 380 181 380 c 0,22,23
 213 380 213 380 235 391 c 1,24,25
 253 430 253 430 253 485 c 0,26,27
 253 603 253 603 169 603 c 0,28,29
 137 603 137 603 115 592 c 1,30,31
 96 552 96 552 96 497 c 0,20,21
71.5 368 m 128,-1,33
 34 403 34 403 34 481.5 c 128,-1,34
 34 560 34 560 77.5 605 c 128,-1,35
 121 650 121 650 180 650 c 128,-1,36
 239 650 239 650 277.5 610.5 c 128,-1,37
 316 571 316 571 316 492.5 c 128,-1,38
 316 414 316 414 273 373.5 c 128,-1,39
 230 333 230 333 169.5 333 c 128,-1,32
 109 333 109 333 71.5 368 c 128,-1,33
608 638 m 1,40,-1
 620 627 l 1,41,42
 378 320 378 320 162 27 c 1,43,-1
 98 12 l 1,44,-1
 86 23 l 1,45,46
 328 330 328 330 544 623 c 1,47,-1
 608 638 l 1,40,-1
EndSplineSet
EndChar

StartChar: ampersand
Encoding: 38 38 9
Width: 679
GlyphClass: 2
Flags: W
LayerCount: 2
Fore
SplineSet
453 115 m 1,0,1
 481 147 481 147 481 189.5 c 128,-1,2
 481 232 481 232 456.5 267.5 c 128,-1,3
 432 303 432 303 398 311 c 1,4,-1
 387 323 l 1,5,-1
 399 362 l 1,6,7
 503 362 503 362 610 368 c 2,8,-1
 645 370 l 1,9,-1
 656 358 l 1,10,-1
 645 306 l 1,11,12
 561 308 561 308 490 309 c 1,13,14
 544 258 544 258 542.5 194 c 128,-1,15
 541 130 541 130 487 77 c 1,16,17
 520 43 520 43 543 33.5 c 128,-1,18
 566 24 566 24 583 24 c 128,-1,19
 600 24 600 24 612 26 c 1,20,-1
 614 0 l 1,21,-1
 516 -40 l 1,22,23
 476 -21 476 -21 425 33 c 1,24,25
 349 -8 349 -8 257.5 -8 c 128,-1,26
 166 -8 166 -8 104 33 c 128,-1,27
 42 74 42 74 42 151 c 0,28,29
 42 209 42 209 76.5 253.5 c 128,-1,30
 111 298 111 298 172 344 c 1,31,32
 127 403 127 403 107 442 c 128,-1,33
 87 481 87 481 87 521 c 0,34,35
 87 587 87 587 137 622.5 c 128,-1,36
 187 658 187 658 255.5 658 c 128,-1,37
 324 658 324 658 368 626 c 0,38,39
 415 592 415 592 415 531 c 0,40,41
 415 455 415 455 324 387 c 2,42,-1
 270 347 l 1,43,-1
 364 228 l 2,44,45
 370 221 370 221 386.5 199.5 c 128,-1,46
 403 178 403 178 420.5 156 c 128,-1,47
 438 134 438 134 453 115 c 1,0,1
168 82.5 m 128,-1,49
 210 46 210 46 277 46 c 0,50,51
 336 46 336 46 390 70 c 1,52,53
 359 106 359 106 288 196 c 2,54,-1
 204 304 l 1,55,56
 176 283 176 283 152 250 c 1,57,58
 126 212 126 212 126 165.5 c 128,-1,48
 126 119 126 119 168 82.5 c 128,-1,49
168 587 m 1,59,60
 156 571 156 571 156 542 c 128,-1,61
 156 513 156 513 176 477.5 c 128,-1,62
 196 442 196 442 240 386 c 1,63,-1
 291 428 l 2,64,65
 342 470 342 470 342 515 c 0,66,67
 342 550 342 550 318 575 c 0,68,69
 290 605 290 605 243 605 c 128,-1,70
 196 605 196 605 168 587 c 1,59,60
EndSplineSet
EndChar

StartChar: quotesingle
Encoding: 39 39 10
Width: 176
GlyphClass: 2
Flags: W
LayerCount: 2
Fore
SplineSet
45 670 m 1,0,-1
 121 680 l 1,1,-1
 133 669 l 1,2,-1
 105 462 l 1,3,-1
 71 458 l 1,4,-1
 45 670 l 1,0,-1
EndSplineSet
EndChar

StartChar: parenleft
Encoding: 40 40 11
Width: 285
GlyphClass: 2
Flags: W
LayerCount: 2
Fore
SplineSet
37 292 m 128,-1,1
 37 379 37 379 57.5 457 c 128,-1,2
 78 535 78 535 105.5 584 c 128,-1,3
 133 633 133 633 168 674 c 0,4,5
 218 731 218 731 261 758 c 1,6,-1
 275 741 l 1,7,8
 118 562 118 562 118 295 c 128,-1,9
 118 28 118 28 275 -151 c 1,10,-1
 261 -168 l 1,11,12
 241 -155 241 -155 223 -140.5 c 128,-1,13
 205 -126 205 -126 167.5 -84.5 c 128,-1,14
 130 -43 130 -43 104.5 4 c 128,-1,15
 79 51 79 51 58 128 c 128,-1,0
 37 205 37 205 37 292 c 128,-1,1
EndSplineSet
EndChar

StartChar: parenright
Encoding: 41 41 12
Width: 285
GlyphClass: 2
Flags: W
LayerCount: 2
Fore
SplineSet
248 292 m 128,-1,1
 248 205 248 205 227 128 c 128,-1,2
 206 51 206 51 180.5 4 c 128,-1,3
 155 -43 155 -43 117.5 -84.5 c 128,-1,4
 80 -126 80 -126 62 -140.5 c 128,-1,5
 44 -155 44 -155 24 -168 c 1,6,-1
 10 -151 l 1,7,8
 167 28 167 28 167 295 c 128,-1,9
 167 562 167 562 10 741 c 1,10,-1
 24 758 l 1,11,12
 67 731 67 731 109.5 682 c 128,-1,13
 152 633 152 633 179.5 584 c 128,-1,14
 207 535 207 535 227.5 457 c 128,-1,0
 248 379 248 379 248 292 c 128,-1,1
EndSplineSet
EndChar

StartChar: asterisk
Encoding: 42 42 13
Width: 443
GlyphClass: 2
Flags: W
LayerCount: 2
Fore
SplineSet
203 688 m 1,0,-1
 240 688 l 1,1,-1
 255 546 l 1,2,-1
 393 578 l 1,3,-1
 406 545 l 1,4,-1
 274 484 l 1,5,-1
 347 362 l 1,6,-1
 318 341 l 1,7,-1
 222 446 l 1,8,-1
 125 341 l 1,9,-1
 96 362 l 1,10,-1
 169 484 l 1,11,-1
 37 545 l 1,12,-1
 50 578 l 1,13,-1
 188 546 l 1,14,-1
 203 688 l 1,0,-1
EndSplineSet
EndChar

StartChar: plus
Encoding: 43 43 14
Width: 509
GlyphClass: 2
Flags: W
LayerCount: 2
Fore
SplineSet
30 309 m 1,0,-1
 42 354 l 1,1,-1
 225 354 l 1,2,3
 226 417 226 417 226 543 c 1,4,-1
 271 555 l 1,5,-1
 283 544 l 1,6,-1
 283 354 l 1,7,-1
 467 356 l 1,8,-1
 478 344 l 1,9,-1
 467 295 l 1,10,11
 379 295 379 295 284 296 c 1,12,-1
 285 108 l 1,13,-1
 236 97 l 1,14,-1
 224 108 l 1,15,16
 225 190 225 190 225 296 c 1,17,18
 137 297 137 297 41 297 c 1,19,-1
 30 309 l 1,0,-1
EndSplineSet
EndChar

StartChar: comma
Encoding: 44 44 15
Width: 211
GlyphClass: 2
Flags: W
LayerCount: 2
Fore
SplineSet
150.5 64.5 m 128,-1,1
 161 39 161 39 161 4.5 c 128,-1,2
 161 -30 161 -30 131.5 -67 c 128,-1,3
 102 -104 102 -104 59 -127 c 1,4,-1
 43 -109 l 1,5,6
 100 -64 100 -64 100 -19 c 128,-1,7
 100 26 100 26 54 57 c 1,8,-1
 51 77 l 1,9,-1
 107 103 l 1,10,-1
 127 103 l 1,11,0
 140 90 140 90 150.5 64.5 c 128,-1,1
EndSplineSet
EndChar

StartChar: hyphen
Encoding: 45 45 16
Width: 398
GlyphClass: 2
Flags: W
LayerCount: 2
Fore
SplineSet
60 217 m 1,0,-1
 72 256 l 1,1,2
 176 256 176 256 290 262 c 2,3,-1
 328 264 l 1,4,-1
 339 252 l 1,5,-1
 328 200 l 1,6,7
 101 205 101 205 71 205 c 1,8,-1
 60 217 l 1,0,-1
EndSplineSet
EndChar

StartChar: period
Encoding: 46 46 17
Width: 214
GlyphClass: 2
Flags: W
LayerCount: 2
Fore
SplineSet
67.5 7.5 m 128,-1,1
 52 23 52 23 52 46.5 c 128,-1,2
 52 70 52 70 67.5 86 c 128,-1,3
 83 102 83 102 106.5 102 c 128,-1,4
 130 102 130 102 146 86 c 128,-1,5
 162 70 162 70 162 46.5 c 128,-1,6
 162 23 162 23 146 7.5 c 128,-1,7
 130 -8 130 -8 106.5 -8 c 128,-1,0
 83 -8 83 -8 67.5 7.5 c 128,-1,1
EndSplineSet
EndChar

StartChar: slash
Encoding: 47 47 18
Width: 416
GlyphClass: 2
Flags: W
LayerCount: 2
Fore
SplineSet
323 701 m 1,0,-1
 382 711 l 1,1,-1
 394 700 l 1,2,3
 232 317 232 317 93 -21 c 1,4,-1
 34 -31 l 1,5,-1
 22 -20 l 1,6,7
 137 250 137 250 323 701 c 1,0,-1
EndSplineSet
EndChar

StartChar: zero
Encoding: 48 48 19
Width: 590
GlyphClass: 2
Flags: W
LayerCount: 2
Fore
SplineSet
190 572 m 1,0,1
 142 497 142 497 142 353 c 0,2,3
 142 54 142 54 304 54 c 0,4,5
 358 54 358 54 401 78 c 1,6,7
 449 153 449 153 449 297 c 0,8,9
 449 596 449 596 287 596 c 0,10,11
 233 596 233 596 190 572 c 1,0,1
110 85 m 128,-1,13
 49 178 49 178 49 328.5 c 128,-1,14
 49 479 49 479 111.5 568.5 c 128,-1,15
 174 658 174 658 294.5 658 c 128,-1,16
 415 658 415 658 478.5 564.5 c 128,-1,17
 542 471 542 471 542 321.5 c 128,-1,18
 542 172 542 172 476.5 82 c 128,-1,19
 411 -8 411 -8 291 -8 c 128,-1,12
 171 -8 171 -8 110 85 c 128,-1,13
EndSplineSet
EndChar

StartChar: one
Encoding: 49 49 20
Width: 350
GlyphClass: 2
Flags: W
LayerCount: 2
Fore
SplineSet
147 91 m 2,0,-1
 147 545 l 1,1,2
 82 539 82 539 36 531 c 1,3,-1
 30 553 l 1,4,-1
 213 658 l 1,5,-1
 232 650 l 1,6,-1
 232 61 l 1,7,-1
 328 22 l 1,8,-1
 322 0 l 1,9,-1
 47 0 l 1,10,-1
 41 22 l 1,11,-1
 116 53 l 2,12,13
 134 60 134 60 140.5 68 c 128,-1,14
 147 76 147 76 147 91 c 2,0,-1
EndSplineSet
EndChar

StartChar: two
Encoding: 50 50 21
Width: 514
GlyphClass: 2
Flags: W
LayerCount: 2
Fore
SplineSet
281 287 m 128,-1,1
 347 372 347 372 347 443 c 0,2,3
 347 584 347 584 218 584 c 0,4,5
 164 584 164 584 132 569 c 1,6,-1
 127 485 l 1,7,-1
 103 478 l 1,8,-1
 38 568 l 1,9,10
 48 579 48 579 68.5 596 c 128,-1,11
 89 613 89 613 140.5 635.5 c 128,-1,12
 192 658 192 658 244 658 c 0,13,14
 329 658 329 658 384.5 605.5 c 128,-1,15
 440 553 440 553 440 469 c 0,16,17
 440 352 440 352 316 220 c 0,18,19
 272 174 272 174 241.5 146 c 128,-1,20
 211 118 211 118 158 71 c 1,21,-1
 394 73 l 1,22,-1
 441 159 l 1,23,-1
 471 152 l 1,24,-1
 461 0 l 1,25,-1
 45 0 l 1,26,-1
 33 44 l 1,27,0
 215 202 215 202 281 287 c 128,-1,1
EndSplineSet
EndChar

StartChar: three
Encoding: 51 51 22
Width: 490
GlyphClass: 2
Flags: W
LayerCount: 2
Fore
SplineSet
431 487 m 0,0,1
 431 435 431 435 404 393.5 c 128,-1,2
 377 352 377 352 332 326 c 1,3,4
 381 307 381 307 410.5 267 c 128,-1,5
 440 227 440 227 440 178 c 0,6,7
 440 101 440 101 365.5 46.5 c 128,-1,8
 291 -8 291 -8 157 -8 c 0,9,10
 95 -8 95 -8 63 0 c 1,11,-1
 52 19 l 1,12,-1
 68 81 l 1,13,14
 129 65 129 65 205.5 65 c 128,-1,15
 282 65 282 65 333 88 c 1,16,17
 351 114 351 114 351 160.5 c 128,-1,18
 351 207 351 207 323 246.5 c 128,-1,19
 295 286 295 286 241 293 c 1,20,21
 220 290 220 290 196.5 290 c 128,-1,22
 173 290 173 290 151 297 c 1,23,-1
 140 309 l 1,24,-1
 150 347 l 1,25,26
 179 353 179 353 203 353 c 128,-1,27
 227 353 227 353 237 353 c 1,28,29
 342 376 342 376 342 469 c 0,30,31
 342 521 342 521 308 554.5 c 128,-1,32
 274 588 274 588 213 588 c 128,-1,33
 152 588 152 588 117 573 c 1,34,-1
 112 489 l 1,35,-1
 88 482 l 1,36,-1
 28 582 l 1,37,38
 119 658 119 658 232 658 c 0,39,40
 319 658 319 658 375 609.5 c 128,-1,41
 431 561 431 561 431 487 c 0,0,1
EndSplineSet
EndChar

StartChar: four
Encoding: 52 52 23
Width: 506
GlyphClass: 2
Flags: W
LayerCount: 2
Fore
SplineSet
402 172 m 2,0,1
 379 172 379 172 379 150 c 2,2,-1
 381 0 l 1,3,-1
 304 -8 l 1,4,-1
 292 3 l 1,5,6
 295 74 295 74 295 170 c 1,7,-1
 25 170 l 1,8,-1
 11 212 l 1,9,-1
 294 640 l 1,10,-1
 356 658 l 1,11,-1
 376 650 l 1,12,13
 376 596 376 596 379 245 c 1,14,-1
 471 248 l 1,15,-1
 482 236 l 1,16,-1
 471 172 l 1,17,-1
 402 172 l 2,0,1
273 240 m 2,18,19
 295 240 295 240 295 264 c 2,20,-1
 296 533 l 1,21,-1
 101 240 l 1,22,-1
 273 240 l 2,18,19
EndSplineSet
EndChar

StartChar: five
Encoding: 53 53 24
Width: 466
GlyphClass: 2
Flags: W
LayerCount: 2
Fore
SplineSet
429 202 m 0,0,1
 429 116 429 116 359.5 54 c 128,-1,2
 290 -8 290 -8 173 -8 c 0,3,4
 100 -8 100 -8 50 17 c 1,5,-1
 39 36 l 1,6,-1
 56 95 l 1,7,8
 131 63 131 63 190 63 c 128,-1,9
 249 63 249 63 295 77 c 1,10,11
 321 94 321 94 336.5 124.5 c 128,-1,12
 352 155 352 155 352 177 c 128,-1,13
 352 199 352 199 350 212 c 0,14,15
 328 346 328 346 88 346 c 0,16,17
 82 346 82 346 77 346 c 1,18,-1
 66 358 l 1,19,-1
 79 650 l 1,20,21
 213 650 213 650 345 656 c 2,22,-1
 389 658 l 1,23,-1
 400 646 l 1,24,-1
 387 575 l 1,25,26
 234 579 234 579 135 579 c 1,27,-1
 128 427 l 1,28,29
 406 414 406 414 427 230 c 0,30,31
 429 215 429 215 429 202 c 0,0,1
EndSplineSet
EndChar

StartChar: six
Encoding: 54 54 25
Width: 511
GlyphClass: 2
Flags: W
LayerCount: 2
Fore
SplineSet
286 389 m 0,0,1
 337 389 337 389 376 372 c 128,-1,2
 415 355 415 355 437 326 c 0,3,4
 480 269 480 269 480 182.5 c 128,-1,5
 480 96 480 96 417.5 44 c 128,-1,6
 355 -8 355 -8 262 -8 c 0,7,8
 144 -8 144 -8 90 75 c 0,9,10
 46 144 46 144 46 246 c 0,11,12
 46 359 46 359 82.5 436 c 128,-1,13
 119 513 119 513 169 555 c 0,14,15
 263 634 263 634 397 658 c 1,16,-1
 409 625 l 1,17,18
 301 586 301 586 234 523.5 c 128,-1,19
 167 461 167 461 145 348 c 1,20,21
 206 389 206 389 286 389 c 0,0,1
393 173 m 0,22,23
 393 320 393 320 254 320 c 0,24,25
 186 320 186 320 137 283 c 1,26,27
 136 265 136 265 136 248 c 0,28,29
 136 170 136 170 162 118 c 1,30,31
 195 56 195 56 279 56 c 1,32,33
 327 57 327 57 364 71 c 1,34,35
 393 106 393 106 393 173 c 0,22,23
EndSplineSet
EndChar

StartChar: seven
Encoding: 55 55 26
Width: 458
GlyphClass: 2
Flags: W
LayerCount: 2
Fore
SplineSet
443 650 m 1,0,-1
 455 606 l 1,1,2
 362 455 362 455 304 315.5 c 128,-1,3
 246 176 246 176 204 1 c 1,4,-1
 119 -8 l 1,5,-1
 99 0 l 1,6,7
 165 190 165 190 226.5 317 c 128,-1,8
 288 444 288 444 377 579 c 1,9,-1
 104 577 l 1,10,-1
 57 491 l 1,11,-1
 27 498 l 1,12,-1
 37 650 l 1,13,-1
 443 650 l 1,0,-1
EndSplineSet
EndChar

StartChar: eight
Encoding: 56 56 27
Width: 523
GlyphClass: 2
Flags: W
LayerCount: 2
Fore
SplineSet
117.5 608.5 m 128,-1,1
 174 658 174 658 261 658 c 128,-1,2
 348 658 348 658 403 612.5 c 128,-1,3
 458 567 458 567 458 499 c 0,4,5
 458 448 458 448 425.5 406 c 128,-1,6
 393 364 393 364 336 339 c 1,7,8
 476 280 476 280 476 165 c 0,9,10
 476 89 476 89 416.5 40.5 c 128,-1,11
 357 -8 357 -8 259 -8 c 128,-1,12
 161 -8 161 -8 105 35 c 128,-1,13
 49 78 49 78 49 145.5 c 128,-1,14
 49 213 49 213 88.5 257 c 128,-1,15
 128 301 128 301 178 323 c 1,16,17
 123 345 123 345 92 387.5 c 128,-1,18
 61 430 61 430 61 484 c 0,19,0
 61 559 61 559 117.5 608.5 c 128,-1,1
133 166 m 0,20,21
 133 111 133 111 170.5 82.5 c 128,-1,22
 208 54 208 54 271.5 54 c 128,-1,23
 335 54 335 54 377 79 c 1,24,25
 396 105 396 105 396 151 c 128,-1,26
 396 197 396 197 365 228.5 c 128,-1,27
 334 260 334 260 240 297 c 1,28,29
 133 243 133 243 133 166 c 0,20,21
341 569 m 128,-1,31
 308 596 308 596 253.5 596 c 128,-1,32
 199 596 199 596 160 573 c 1,33,34
 141 544 141 544 141 501 c 128,-1,35
 141 458 141 458 166.5 428.5 c 128,-1,36
 192 399 192 399 272 365 c 1,37,38
 374 417 374 417 374 492 c 0,39,30
 374 542 374 542 341 569 c 128,-1,31
EndSplineSet
EndChar

StartChar: nine
Encoding: 57 57 28
Width: 509
GlyphClass: 2
Flags: W
LayerCount: 2
Fore
SplineSet
226 262 m 0,0,1
 127 262 127 262 79 319.5 c 128,-1,2
 31 377 31 377 31 462.5 c 128,-1,3
 31 548 31 548 93.5 603 c 128,-1,4
 156 658 156 658 248 658 c 0,5,6
 362 658 362 658 416 574 c 1,7,8
 463 503 463 503 463 396 c 0,9,10
 463 298 463 298 436 231 c 128,-1,11
 409 164 409 164 376 126 c 128,-1,12
 343 88 343 88 297 60 c 0,13,14
 219 13 219 13 114 -8 c 1,15,-1
 102 25 l 1,16,17
 155 46 155 46 191.5 65.5 c 128,-1,18
 228 85 228 85 267 117 c 0,19,20
 345 181 345 181 367 304 c 1,21,22
 305 262 305 262 226 262 c 0,0,1
153.5 366.5 m 128,-1,24
 189 331 189 331 253.5 331 c 128,-1,25
 318 331 318 331 375 368 c 1,26,27
 376 385 376 385 376 401 c 0,28,29
 376 594 376 594 228 594 c 0,30,31
 181 594 181 594 149 579 c 1,32,33
 118 541 118 541 118 471.5 c 128,-1,23
 118 402 118 402 153.5 366.5 c 128,-1,24
EndSplineSet
EndChar

StartChar: colon
Encoding: 58 58 29
Width: 228
GlyphClass: 2
Flags: W
LayerCount: 2
Fore
SplineSet
74.5 363.5 m 128,-1,1
 59 379 59 379 59 402.5 c 128,-1,2
 59 426 59 426 74.5 442 c 128,-1,3
 90 458 90 458 113.5 458 c 128,-1,4
 137 458 137 458 153 442 c 128,-1,5
 169 426 169 426 169 402.5 c 128,-1,6
 169 379 169 379 153 363.5 c 128,-1,7
 137 348 137 348 113.5 348 c 128,-1,0
 90 348 90 348 74.5 363.5 c 128,-1,1
74.5 7.5 m 128,-1,9
 59 23 59 23 59 46.5 c 128,-1,10
 59 70 59 70 74.5 86 c 128,-1,11
 90 102 90 102 113.5 102 c 128,-1,12
 137 102 137 102 153 86 c 128,-1,13
 169 70 169 70 169 46.5 c 128,-1,14
 169 23 169 23 153 7.5 c 128,-1,15
 137 -8 137 -8 113.5 -8 c 128,-1,8
 90 -8 90 -8 74.5 7.5 c 128,-1,9
EndSplineSet
EndChar

StartChar: semicolon
Encoding: 59 59 30
Width: 235
GlyphClass: 2
Flags: W
LayerCount: 2
Fore
SplineSet
164.5 64.5 m 128,-1,1
 175 39 175 39 175 4.5 c 128,-1,2
 175 -30 175 -30 145.5 -67 c 128,-1,3
 116 -104 116 -104 73 -127 c 1,4,-1
 57 -109 l 1,5,6
 114 -64 114 -64 114 -19 c 128,-1,7
 114 26 114 26 68 57 c 1,8,-1
 65 77 l 1,9,-1
 121 103 l 1,10,-1
 141 103 l 1,11,0
 154 90 154 90 164.5 64.5 c 128,-1,1
80.5 363.5 m 128,-1,13
 65 379 65 379 65 402.5 c 128,-1,14
 65 426 65 426 80.5 442 c 128,-1,15
 96 458 96 458 119.5 458 c 128,-1,16
 143 458 143 458 159 442 c 128,-1,17
 175 426 175 426 175 402.5 c 128,-1,18
 175 379 175 379 159 363.5 c 128,-1,19
 143 348 143 348 119.5 348 c 128,-1,12
 96 348 96 348 80.5 363.5 c 128,-1,13
EndSplineSet
EndChar

StartChar: less
Encoding: 60 60 31
Width: 447
GlyphClass: 2
Flags: W
LayerCount: 2
Fore
SplineSet
37 342 m 1,0,-1
 361 545 l 1,1,-1
 376 538 l 1,2,-1
 390 499 l 1,3,-1
 115 315 l 1,4,-1
 386 133 l 1,5,-1
 387 117 l 1,6,-1
 361 85 l 1,7,-1
 30 292 l 1,8,-1
 30 309 l 1,9,-1
 37 342 l 1,0,-1
EndSplineSet
EndChar

StartChar: equal
Encoding: 61 61 32
Width: 536
GlyphClass: 2
Flags: W
LayerCount: 2
Fore
SplineSet
65 389 m 1,0,-1
 77 434 l 1,1,-1
 462 436 l 1,2,-1
 473 424 l 1,3,-1
 462 375 l 1,4,5
 107 377 107 377 76 377 c 1,6,-1
 65 389 l 1,0,-1
65 229 m 1,7,-1
 77 274 l 1,8,-1
 462 276 l 1,9,-1
 473 264 l 1,10,-1
 462 215 l 1,11,12
 107 217 107 217 76 217 c 1,13,-1
 65 229 l 1,7,-1
EndSplineSet
EndChar

StartChar: greater
Encoding: 62 62 33
Width: 447
GlyphClass: 2
Flags: W
LayerCount: 2
Fore
SplineSet
410 288 m 1,0,-1
 86 85 l 1,1,-1
 71 92 l 1,2,-1
 57 131 l 1,3,-1
 332 315 l 1,4,-1
 61 497 l 1,5,-1
 60 513 l 1,6,-1
 86 545 l 1,7,-1
 417 338 l 1,8,-1
 417 321 l 1,9,-1
 410 288 l 1,0,-1
EndSplineSet
EndChar

StartChar: question
Encoding: 63 63 34
Width: 392
GlyphClass: 2
Flags: W
LayerCount: 2
Fore
SplineSet
245 391 m 128,-1,1
 283 423 283 423 283 483.5 c 128,-1,2
 283 544 283 544 250 573 c 1,3,4
 218 585 218 585 156 585 c 128,-1,5
 94 585 94 585 41 568 c 1,6,-1
 30 622 l 1,7,-1
 41 640 l 1,8,9
 77 658 77 658 138 658 c 0,10,11
 234 658 234 658 297.5 609 c 128,-1,12
 361 560 361 560 361 481.5 c 128,-1,13
 361 403 361 403 313 356 c 128,-1,14
 265 309 265 309 171 268 c 1,15,-1
 163 182 l 1,16,-1
 125 180 l 1,17,-1
 111 318 l 1,18,0
 207 359 207 359 245 391 c 128,-1,1
95 48 m 128,-1,20
 95 72 95 72 110.5 87.5 c 128,-1,21
 126 103 126 103 150 103 c 128,-1,22
 174 103 174 103 189.5 87 c 128,-1,23
 205 71 205 71 205 48 c 128,-1,24
 205 25 205 25 189 9 c 128,-1,25
 173 -7 173 -7 149.5 -7 c 128,-1,26
 126 -7 126 -7 110.5 8.5 c 128,-1,19
 95 24 95 24 95 48 c 128,-1,20
EndSplineSet
EndChar

StartChar: at
Encoding: 64 64 35
Width: 974
GlyphClass: 2
Flags: W
LayerCount: 2
Fore
SplineSet
692 450 m 1,0,1
 654 106 654 106 654 87 c 128,-1,2
 654 68 654 68 671 53.5 c 128,-1,3
 688 39 688 39 717 39 c 0,4,5
 785 39 785 39 822.5 110 c 128,-1,6
 860 181 860 181 860 282 c 0,7,8
 860 433 860 433 774 527.5 c 128,-1,9
 688 622 688 622 539 622 c 0,10,11
 365 622 365 622 246 498 c 128,-1,12
 127 374 127 374 127 175 c 0,13,14
 127 7 127 7 215.5 -84.5 c 128,-1,15
 304 -176 304 -176 446 -176 c 0,16,17
 563 -176 563 -176 671 -120 c 1,18,-1
 686 -149 l 1,19,20
 670 -162 670 -162 645 -177 c 128,-1,21
 620 -192 620 -192 556 -212.5 c 128,-1,22
 492 -233 492 -233 432 -233 c 128,-1,23
 372 -233 372 -233 320.5 -221 c 128,-1,24
 269 -209 269 -209 217.5 -180.5 c 128,-1,25
 166 -152 166 -152 127 -108.5 c 128,-1,26
 88 -65 88 -65 64 3.5 c 128,-1,27
 40 72 40 72 40 162.5 c 128,-1,28
 40 253 40 253 69 336.5 c 128,-1,29
 98 420 98 420 148.5 481.5 c 128,-1,30
 199 543 199 543 266 588 c 0,31,32
 398 678 398 678 566 678 c 128,-1,33
 734 678 734 678 839 574.5 c 128,-1,34
 944 471 944 471 944 298 c 0,35,36
 944 217 944 217 919.5 154.5 c 128,-1,37
 895 92 895 92 856 58 c 1,38,39
 777 -8 777 -8 694 -8 c 0,40,41
 651 -8 651 -8 622 10.5 c 128,-1,42
 593 29 593 29 583 60 c 1,43,44
 555 32 555 32 513.5 12 c 128,-1,45
 472 -8 472 -8 431 -8 c 0,46,47
 363 -8 363 -8 328 46.5 c 128,-1,48
 293 101 293 101 293 185 c 0,49,50
 293 298 293 298 354 378 c 128,-1,51
 415 458 415 458 525 458 c 0,52,53
 580 458 580 458 634 445 c 1,54,-1
 673 458 l 1,55,-1
 692 450 l 1,0,1
607 380 m 1,56,57
 567 399 567 399 520 399 c 128,-1,58
 473 399 473 399 430 384 c 1,59,60
 403 354 403 354 389.5 303 c 128,-1,61
 376 252 376 252 376 189.5 c 128,-1,62
 376 127 376 127 402 91.5 c 128,-1,63
 428 56 428 56 471 56 c 0,64,65
 529 56 529 56 577 106 c 1,66,-1
 607 380 l 1,56,57
EndSplineSet
EndChar

StartChar: A
Encoding: 65 65 36
Width: 636
GlyphClass: 2
Flags: W
LayerCount: 2
Fore
SplineSet
467 70 m 0,0,1
 467 76 467 76 464 83 c 2,2,-1
 419 210 l 1,3,-1
 187 210 l 1,4,-1
 134 57 l 1,5,-1
 220 22 l 1,6,-1
 214 0 l 1,7,-1
 -7 0 l 1,8,-1
 -13 22 l 1,9,-1
 42 45 l 2,10,11
 59 52 59 52 63.5 58 c 128,-1,12
 68 64 68 64 75 83 c 2,13,-1
 275 640 l 1,14,-1
 336 658 l 1,15,-1
 356 650 l 1,16,-1
 571 54 l 1,17,-1
 649 22 l 1,18,-1
 643 0 l 1,19,-1
 398 0 l 1,20,-1
 392 22 l 1,21,-1
 447 45 l 2,22,23
 467 53 467 53 467 70 c 0,0,1
302 542 m 1,24,-1
 204 261 l 1,25,-1
 401 261 l 1,26,-1
 302 542 l 1,24,-1
EndSplineSet
EndChar

StartChar: B
Encoding: 66 66 37
Width: 617
GlyphClass: 2
Flags: W
LayerCount: 2
Fore
SplineSet
120 83 m 2,0,-1
 120 593 l 1,1,-1
 34 628 l 1,2,-1
 40 650 l 1,3,4
 235 658 235 658 296 658 c 0,5,6
 545 658 545 658 545 489 c 0,7,8
 545 388 545 388 454 339 c 1,9,10
 575 297 575 297 575 172 c 0,11,12
 575 127 575 127 557.5 93.5 c 128,-1,13
 540 60 540 60 513 41 c 128,-1,14
 486 22 486 22 446 10 c 1,15,16
 380 -8 380 -8 310 -8 c 128,-1,17
 240 -8 240 -8 40 0 c 1,18,-1
 34 22 l 1,19,-1
 89 45 l 2,20,21
 107 52 107 52 113.5 60 c 128,-1,22
 120 68 120 68 120 83 c 2,0,-1
329 305 m 2,23,-1
 232 305 l 2,24,25
 205 305 205 305 205 280 c 2,26,-1
 205 53 l 1,27,28
 231 49 231 49 308 49 c 128,-1,29
 385 49 385 49 443 67 c 1,30,31
 482 97 482 97 482 165 c 0,32,33
 482 305 482 305 329 305 c 2,23,-1
314 603 m 2,34,-1
 232 603 l 2,35,36
 205 603 205 603 205 578 c 2,37,-1
 205 360 l 1,38,39
 231 356 231 356 299 356 c 128,-1,40
 367 356 367 356 416 376 c 1,41,42
 452 403 452 403 452 464.5 c 128,-1,43
 452 526 452 526 420.5 564.5 c 128,-1,44
 389 603 389 603 314 603 c 2,34,-1
EndSplineSet
EndChar

StartChar: C
Encoding: 67 67 38
Width: 591
GlyphClass: 2
Flags: W
LayerCount: 2
Fore
SplineSet
350 -8 m 0,0,1
 217 -8 217 -8 131.5 79 c 128,-1,2
 46 166 46 166 46 324 c 128,-1,3
 46 482 46 482 139 570 c 128,-1,4
 232 658 232 658 362 658 c 0,5,6
 455 658 455 658 506 617 c 0,7,8
 542 589 542 589 555 567 c 1,9,-1
 490 477 l 1,10,-1
 466 484 l 1,11,-1
 461 578 l 1,12,13
 415 594 415 594 344.5 594 c 128,-1,14
 274 594 274 594 225 572 c 1,15,16
 135 488 135 488 135 334 c 0,17,18
 135 199 135 199 205 126.5 c 128,-1,19
 275 54 275 54 382 54 c 0,20,21
 463 54 463 54 549 97 c 1,22,-1
 564 68 l 1,23,24
 538 42 538 42 481.5 17 c 128,-1,25
 425 -8 425 -8 350 -8 c 0,0,1
EndSplineSet
EndChar

StartChar: D
Encoding: 68 68 39
Width: 706
GlyphClass: 2
Flags: W
LayerCount: 2
Fore
SplineSet
120 83 m 2,0,-1
 120 593 l 1,1,-1
 34 628 l 1,2,-1
 40 650 l 1,3,4
 266 658 266 658 324 658 c 0,5,6
 658 658 658 658 658 316 c 0,7,8
 658 138 658 138 563.5 65 c 128,-1,9
 469 -8 469 -8 265 -8 c 0,10,11
 240 -8 240 -8 40 0 c 1,12,-1
 34 22 l 1,13,-1
 89 45 l 2,14,15
 107 52 107 52 113.5 60 c 128,-1,16
 120 68 120 68 120 83 c 2,0,-1
339 603 m 2,17,-1
 232 603 l 2,18,19
 205 603 205 603 205 578 c 2,20,-1
 205 53 l 1,21,22
 244 49 244 49 305 49 c 0,23,24
 437 49 437 49 503 92 c 1,25,26
 565 168 565 168 565 306.5 c 128,-1,27
 565 445 565 445 507 524 c 128,-1,28
 449 603 449 603 339 603 c 2,17,-1
EndSplineSet
EndChar

StartChar: E
Encoding: 69 69 40
Width: 545
GlyphClass: 2
Flags: W
LayerCount: 2
Fore
SplineSet
205 568 m 2,0,-1
 205 352 l 1,1,2
 300 352 300 352 398 361 c 2,3,-1
 430 364 l 1,4,-1
 441 352 l 1,5,-1
 430 296 l 1,6,7
 311 303 311 303 205 303 c 1,8,-1
 205 52 l 1,9,-1
 422 56 l 1,10,-1
 470 144 l 1,11,-1
 500 137 l 1,12,-1
 500 0 l 1,13,-1
 40 0 l 1,14,-1
 34 22 l 1,15,-1
 89 45 l 2,16,17
 107 52 107 52 113.5 60 c 128,-1,18
 120 68 120 68 120 83 c 2,19,-1
 120 593 l 1,20,-1
 34 628 l 1,21,-1
 40 650 l 1,22,-1
 495 650 l 1,23,-1
 495 513 l 1,24,-1
 465 506 l 1,25,-1
 417 594 l 1,26,-1
 232 598 l 2,27,28
 205 598 205 598 205 568 c 2,0,-1
EndSplineSet
EndChar

StartChar: F
Encoding: 70 70 41
Width: 527
GlyphClass: 2
Flags: W
LayerCount: 2
Fore
SplineSet
205 306 m 1,0,-1
 205 58 l 1,1,-1
 294 22 l 1,2,-1
 288 0 l 1,3,-1
 40 0 l 1,4,-1
 34 22 l 1,5,-1
 89 45 l 2,6,7
 107 52 107 52 113.5 60 c 128,-1,8
 120 68 120 68 120 83 c 2,9,-1
 120 593 l 1,10,-1
 34 628 l 1,11,-1
 40 650 l 1,12,-1
 505 650 l 1,13,-1
 505 513 l 1,14,-1
 475 506 l 1,15,-1
 427 594 l 1,16,-1
 232 598 l 2,17,18
 205 598 205 598 205 567 c 2,19,-1
 205 359 l 1,20,-1
 365 359 l 1,21,-1
 397 428 l 1,22,-1
 419 422 l 1,23,-1
 419 236 l 1,24,-1
 397 230 l 1,25,-1
 378 275 l 2,26,27
 371 293 371 293 363 299.5 c 128,-1,28
 355 306 355 306 340 306 c 2,29,-1
 205 306 l 1,0,-1
EndSplineSet
EndChar

StartChar: G
Encoding: 71 71 42
Width: 663
GlyphClass: 2
Flags: W
LayerCount: 2
Fore
SplineSet
573 200 m 2,0,-1
 573 55 l 1,1,2
 484 -8 484 -8 353 -8 c 128,-1,3
 222 -8 222 -8 133.5 77 c 128,-1,4
 45 162 45 162 45 318 c 0,5,6
 45 404 45 404 74 471.5 c 128,-1,7
 103 539 103 539 152 578 c 0,8,9
 251 658 251 658 386.5 658 c 128,-1,10
 522 658 522 658 581 567 c 1,11,-1
 516 477 l 1,12,-1
 492 484 l 1,13,-1
 487 578 l 1,14,15
 441 594 441 594 363.5 594 c 128,-1,16
 286 594 286 594 237 572 c 1,17,18
 134 481 134 481 134 338 c 128,-1,19
 134 195 134 195 207.5 124.5 c 128,-1,20
 281 54 281 54 399 54 c 0,21,22
 429 54 429 54 454 58 c 0,23,24
 491 65 491 65 491 95 c 2,25,-1
 491 225 l 1,26,-1
 405 257 l 1,27,-1
 411 279 l 1,28,-1
 635 279 l 1,29,-1
 642 253 l 1,30,-1
 604 238 l 2,31,32
 586 231 586 231 579.5 223 c 128,-1,33
 573 215 573 215 573 200 c 2,0,-1
EndSplineSet
EndChar

StartChar: H
Encoding: 72 72 43
Width: 733
GlyphClass: 2
Flags: W
LayerCount: 2
Fore
SplineSet
613 567 m 2,0,-1
 613 57 l 1,1,-1
 699 22 l 1,2,-1
 693 0 l 1,3,-1
 448 0 l 1,4,-1
 442 22 l 1,5,-1
 497 45 l 2,6,7
 515 52 515 52 521.5 60 c 128,-1,8
 528 68 528 68 528 83 c 2,9,-1
 528 304 l 1,10,-1
 205 304 l 1,11,-1
 205 57 l 1,12,-1
 291 22 l 1,13,-1
 285 0 l 1,14,-1
 40 0 l 1,15,-1
 34 22 l 1,16,-1
 89 45 l 2,17,18
 107 52 107 52 113.5 60 c 128,-1,19
 120 68 120 68 120 83 c 2,20,-1
 120 593 l 1,21,-1
 34 628 l 1,22,-1
 40 650 l 1,23,-1
 285 650 l 1,24,-1
 291 628 l 1,25,-1
 236 605 l 2,26,27
 218 598 218 598 211.5 590 c 128,-1,28
 205 582 205 582 205 567 c 2,29,-1
 205 361 l 1,30,-1
 528 361 l 1,31,-1
 528 593 l 1,32,-1
 442 628 l 1,33,-1
 448 650 l 1,34,-1
 693 650 l 1,35,-1
 699 628 l 1,36,-1
 644 605 l 2,37,38
 626 598 626 598 619.5 590 c 128,-1,39
 613 582 613 582 613 567 c 2,0,-1
EndSplineSet
EndChar

StartChar: I
Encoding: 73 73 44
Width: 325
GlyphClass: 2
Flags: W
LayerCount: 2
Fore
SplineSet
205 567 m 2,0,-1
 205 57 l 1,1,-1
 291 22 l 1,2,-1
 285 0 l 1,3,-1
 40 0 l 1,4,-1
 34 22 l 1,5,-1
 89 45 l 2,6,7
 107 52 107 52 113.5 60 c 128,-1,8
 120 68 120 68 120 83 c 2,9,-1
 120 593 l 1,10,-1
 34 628 l 1,11,-1
 40 650 l 1,12,-1
 285 650 l 1,13,-1
 291 628 l 1,14,-1
 236 605 l 2,15,16
 218 598 218 598 211.5 590 c 128,-1,17
 205 582 205 582 205 567 c 2,0,-1
EndSplineSet
EndChar

StartChar: J
Encoding: 74 74 45
Width: 308
GlyphClass: 2
Flags: W
LayerCount: 2
Fore
SplineSet
196 567 m 2,0,-1
 196 -8 l 2,1,2
 196 -159 196 -159 54 -238 c 1,3,-1
 36 -215 l 1,4,5
 77 -167 77 -167 94 -120.5 c 128,-1,6
 111 -74 111 -74 111 0 c 2,7,-1
 111 593 l 1,8,-1
 25 628 l 1,9,-1
 31 650 l 1,10,-1
 276 650 l 1,11,-1
 282 628 l 1,12,-1
 227 605 l 2,13,14
 209 598 209 598 202.5 590 c 128,-1,15
 196 582 196 582 196 567 c 2,0,-1
EndSplineSet
EndChar

StartChar: K
Encoding: 75 75 46
Width: 642
GlyphClass: 2
Flags: W
LayerCount: 2
Fore
SplineSet
492 0 m 1,0,-1
 226 341 l 1,1,-1
 474 593 l 1,2,-1
 388 628 l 1,3,-1
 394 650 l 1,4,-1
 622 650 l 1,5,-1
 628 628 l 1,6,-1
 573 605 l 2,7,8
 565 602 565 602 562 600 c 128,-1,9
 559 598 559 598 555.5 597 c 128,-1,10
 552 596 552 596 548.5 592.5 c 128,-1,11
 545 589 545 589 543 587.5 c 128,-1,12
 541 586 541 586 534.5 579 c 128,-1,13
 528 572 528 572 523 567 c 2,14,-1
 320 360 l 1,15,-1
 555 57 l 1,16,-1
 641 22 l 1,17,-1
 635 0 l 1,18,-1
 492 0 l 1,0,-1
205 567 m 2,19,-1
 205 57 l 1,20,-1
 291 22 l 1,21,-1
 285 0 l 1,22,-1
 40 0 l 1,23,-1
 34 22 l 1,24,-1
 89 45 l 2,25,26
 107 52 107 52 113.5 60 c 128,-1,27
 120 68 120 68 120 83 c 2,28,-1
 120 593 l 1,29,-1
 34 628 l 1,30,-1
 40 650 l 1,31,-1
 285 650 l 1,32,-1
 291 628 l 1,33,-1
 236 605 l 2,34,35
 218 598 218 598 211.5 590 c 128,-1,36
 205 582 205 582 205 567 c 2,19,-1
EndSplineSet
EndChar

StartChar: L
Encoding: 76 76 47
Width: 520
GlyphClass: 2
Flags: W
LayerCount: 2
Fore
SplineSet
205 567 m 2,0,-1
 205 52 l 1,1,-1
 427 56 l 1,2,-1
 475 144 l 1,3,-1
 505 137 l 1,4,-1
 505 0 l 1,5,-1
 40 0 l 1,6,-1
 34 22 l 1,7,-1
 89 45 l 2,8,9
 107 52 107 52 113.5 60 c 128,-1,10
 120 68 120 68 120 83 c 2,11,-1
 120 593 l 1,12,-1
 34 628 l 1,13,-1
 40 650 l 1,14,-1
 285 650 l 1,15,-1
 291 628 l 1,16,-1
 236 605 l 2,17,18
 218 598 218 598 211.5 590 c 128,-1,19
 205 582 205 582 205 567 c 2,0,-1
EndSplineSet
EndChar

StartChar: M
Encoding: 77 77 48
Width: 877
GlyphClass: 2
Flags: W
LayerCount: 2
Fore
SplineSet
744 567 m 2,0,-1
 767 57 l 1,1,-1
 853 22 l 1,2,-1
 847 0 l 1,3,-1
 610 0 l 1,4,-1
 604 22 l 1,5,-1
 649 44 l 2,6,7
 681 59 681 59 680 83 c 2,8,-1
 658 573 l 1,9,-1
 466 20 l 1,10,-1
 404 0 l 1,11,-1
 385 10 l 1,12,-1
 198 572 l 1,13,-1
 170 57 l 1,14,-1
 246 22 l 1,15,-1
 240 0 l 1,16,-1
 30 0 l 1,17,-1
 24 22 l 1,18,-1
 79 45 l 2,19,20
 104 56 104 56 108 67 c 0,21,22
 109 72 109 72 110 83 c 2,23,-1
 135 593 l 1,24,-1
 49 628 l 1,25,-1
 55 650 l 1,26,-1
 257 650 l 1,27,-1
 270 640 l 1,28,-1
 439 118 l 1,29,-1
 616 650 l 1,30,-1
 824 650 l 1,31,-1
 830 628 l 1,32,-1
 775 605 l 2,33,34
 743 592 743 592 744 567 c 2,0,-1
EndSplineSet
EndChar

StartChar: N
Encoding: 78 78 49
Width: 740
GlyphClass: 2
Flags: W
LayerCount: 2
Fore
SplineSet
628 567 m 2,0,-1
 628 0 l 1,1,-1
 556 -8 l 1,2,-1
 186 518 l 1,3,-1
 186 57 l 1,4,-1
 272 22 l 1,5,-1
 266 0 l 1,6,-1
 40 0 l 1,7,-1
 34 22 l 1,8,-1
 89 45 l 2,9,10
 107 52 107 52 113.5 60 c 128,-1,11
 120 68 120 68 120 83 c 2,12,-1
 120 593 l 1,13,-1
 34 628 l 1,14,-1
 40 650 l 1,15,-1
 207 650 l 1,16,-1
 561 146 l 1,17,-1
 561 144 l 1,18,-1
 562 146 l 1,19,-1
 562 593 l 1,20,-1
 476 628 l 1,21,-1
 482 650 l 1,22,-1
 708 650 l 1,23,-1
 714 628 l 1,24,-1
 659 605 l 2,25,26
 641 598 641 598 634.5 590 c 128,-1,27
 628 582 628 582 628 567 c 2,0,-1
EndSplineSet
EndChar

StartChar: O
Encoding: 79 79 50
Width: 705
GlyphClass: 2
Flags: W
LayerCount: 2
Fore
SplineSet
201 557 m 1,0,1
 139 472 139 472 139 338 c 128,-1,2
 139 204 139 204 195.5 129 c 128,-1,3
 252 54 252 54 359 54 c 0,4,5
 448 54 448 54 504 91 c 1,6,7
 566 167 566 167 566 305.5 c 128,-1,8
 566 444 566 444 509.5 519 c 128,-1,9
 453 594 453 594 347 594 c 0,10,11
 259 594 259 594 201 557 c 1,0,1
46 320 m 0,12,13
 46 404 46 404 72 470 c 128,-1,14
 98 536 98 536 142 576 c 0,15,16
 234 658 234 658 363.5 658 c 128,-1,17
 493 658 493 658 576 570 c 128,-1,18
 659 482 659 482 659 328 c 0,19,20
 659 244 659 244 633 178.5 c 128,-1,21
 607 113 607 113 562 73 c 0,22,23
 472 -8 472 -8 342 -8 c 128,-1,24
 212 -8 212 -8 129 79 c 128,-1,25
 46 166 46 166 46 320 c 0,12,13
EndSplineSet
EndChar

StartChar: P
Encoding: 80 80 51
Width: 544
GlyphClass: 2
Flags: W
LayerCount: 2
Fore
SplineSet
273 273 m 0,0,1
 251 273 251 273 205 275 c 1,2,-1
 205 61 l 1,3,-1
 301 22 l 1,4,-1
 295 0 l 1,5,-1
 40 0 l 1,6,-1
 34 22 l 1,7,-1
 89 45 l 2,8,9
 107 52 107 52 113.5 60 c 128,-1,10
 120 68 120 68 120 83 c 2,11,-1
 120 593 l 1,12,-1
 34 628 l 1,13,-1
 40 650 l 1,14,15
 199 658 199 658 262 658 c 0,16,17
 393 658 393 658 456.5 611.5 c 128,-1,18
 520 565 520 565 520 468 c 0,19,20
 520 273 520 273 273 273 c 0,0,1
279 603 m 2,21,-1
 232 603 l 2,22,23
 205 603 205 603 205 578 c 2,24,-1
 205 330 l 1,25,26
 231 326 231 326 265 326 c 0,27,28
 335 326 335 326 391 349 c 1,29,30
 427 377 427 377 427 452 c 0,31,32
 427 603 427 603 279 603 c 2,21,-1
EndSplineSet
EndChar

StartChar: Q
Encoding: 81 81 52
Width: 706
GlyphClass: 2
Flags: W
LayerCount: 2
Fore
SplineSet
46 320 m 0,0,1
 46 404 46 404 72 470 c 128,-1,2
 98 536 98 536 142 576 c 0,3,4
 234 658 234 658 364 658 c 128,-1,5
 494 658 494 658 576.5 569.5 c 128,-1,6
 659 481 659 481 659 320 c 0,7,8
 659 261 659 261 646 213.5 c 128,-1,9
 633 166 633 166 616 137.5 c 128,-1,10
 599 109 599 109 568.5 83.5 c 128,-1,11
 538 58 538 58 519 47 c 128,-1,12
 500 36 500 36 466 19 c 1,13,-1
 494 9 l 1,14,15
 537 -3 537 -3 587 -35 c 128,-1,16
 637 -67 637 -67 681 -94 c 1,17,18
 734 -128 734 -128 765.5 -128 c 128,-1,19
 797 -128 797 -128 836 -110 c 1,20,-1
 850 -131 l 1,21,-1
 750 -198 l 1,22,23
 703 -195 703 -195 667 -175.5 c 128,-1,24
 631 -156 631 -156 556.5 -99.5 c 128,-1,25
 482 -43 482 -43 445.5 -29.5 c 128,-1,26
 409 -16 409 -16 334 -14 c 1,27,28
 332 -7 332 -7 328 -7 c 2,29,-1
 318 -7 l 1,30,31
 195 2 195 2 120.5 88 c 128,-1,32
 46 174 46 174 46 320 c 0,0,1
201 557 m 1,33,34
 139 472 139 472 139 338 c 128,-1,35
 139 204 139 204 195.5 129 c 128,-1,36
 252 54 252 54 359 54 c 0,37,38
 448 54 448 54 504 91 c 1,39,40
 566 167 566 167 566 305.5 c 128,-1,41
 566 444 566 444 509.5 519 c 128,-1,42
 453 594 453 594 347 594 c 0,43,44
 259 594 259 594 201 557 c 1,33,34
EndSplineSet
EndChar

StartChar: R
Encoding: 82 82 53
Width: 600
GlyphClass: 2
Flags: W
LayerCount: 2
Fore
SplineSet
263 282 m 2,0,-1
 205 282 l 1,1,-1
 205 57 l 1,2,-1
 288 22 l 1,3,-1
 282 0 l 1,4,-1
 40 0 l 1,5,-1
 34 22 l 1,6,-1
 89 45 l 2,7,8
 107 52 107 52 113.5 60 c 128,-1,9
 120 68 120 68 120 83 c 2,10,-1
 120 593 l 1,11,-1
 34 628 l 1,12,-1
 40 650 l 1,13,14
 205 658 205 658 266 658 c 0,15,16
 525 658 525 658 525 472 c 0,17,18
 525 325 525 325 367 290 c 1,19,20
 378 280 378 280 387 261 c 0,21,22
 455 122 455 122 488 81 c 128,-1,23
 521 40 521 40 590 25 c 1,24,-1
 583 0 l 1,25,-1
 471 -8 l 1,26,27
 417 36 417 36 389.5 79 c 128,-1,28
 362 122 362 122 299 255 c 0,29,30
 286 282 286 282 263 282 c 2,0,-1
205 578 m 2,31,-1
 205 333 l 1,32,-1
 270 333 l 2,33,34
 344 333 344 333 386 350 c 1,35,36
 408 366 408 366 420 387.5 c 128,-1,37
 432 409 432 409 432 451 c 0,38,39
 432 516 432 516 397.5 559.5 c 128,-1,40
 363 603 363 603 284 603 c 2,41,-1
 232 603 l 2,42,43
 205 603 205 603 205 578 c 2,31,-1
EndSplineSet
EndChar

StartChar: S
Encoding: 83 83 54
Width: 517
GlyphClass: 2
Flags: W
LayerCount: 2
Fore
SplineSet
363 578 m 1,0,1
 330 596 330 596 260.5 596 c 128,-1,2
 191 596 191 596 147 559 c 1,3,4
 135 540 135 540 135 504 c 0,5,6
 135 427 135 427 217 396 c 2,7,-1
 347 346 l 2,8,9
 475 297 475 297 475 169 c 0,10,11
 475 82 475 82 414 37 c 128,-1,12
 353 -8 353 -8 256 -8 c 0,13,14
 122 -8 122 -8 35 74 c 1,15,-1
 99 183 l 1,16,-1
 123 176 l 1,17,-1
 138 80 l 1,18,19
 175 54 175 54 245 54 c 0,20,21
 394 54 394 54 394 155 c 0,22,23
 394 196 394 196 368 222 c 128,-1,24
 342 248 342 248 287 269 c 2,25,-1
 172 313 l 2,26,27
 55 358 55 358 55 475 c 0,28,29
 55 563 55 563 117 610.5 c 128,-1,30
 179 658 179 658 275 658 c 0,31,32
 392 658 392 658 463 576 c 1,33,-1
 392 477 l 1,34,-1
 368 484 l 1,35,-1
 363 578 l 1,0,1
EndSplineSet
EndChar

StartChar: T
Encoding: 84 84 55
Width: 543
GlyphClass: 2
Flags: W
LayerCount: 2
Fore
SplineSet
524 650 m 1,0,-1
 524 513 l 1,1,-1
 500 506 l 1,2,-1
 450 599 l 1,3,-1
 341 602 l 2,4,5
 328 603 328 603 321 595 c 128,-1,6
 314 587 314 587 314 576 c 2,7,-1
 314 57 l 1,8,-1
 400 22 l 1,9,-1
 394 0 l 1,10,-1
 149 0 l 1,11,-1
 143 22 l 1,12,-1
 198 45 l 2,13,14
 216 52 216 52 222.5 60 c 128,-1,15
 229 68 229 68 229 83 c 2,16,-1
 229 603 l 1,17,-1
 93 599 l 1,18,-1
 43 506 l 1,19,-1
 19 513 l 1,20,-1
 19 650 l 1,21,-1
 524 650 l 1,0,-1
EndSplineSet
EndChar

StartChar: U
Encoding: 85 85 56
Width: 699
GlyphClass: 2
Flags: W
LayerCount: 2
Fore
SplineSet
599 567 m 2,0,-1
 599 255 l 2,1,2
 599 114 599 114 541 53 c 128,-1,3
 483 -8 483 -8 360 -8 c 0,4,5
 99 -8 99 -8 99 252 c 2,6,-1
 99 597 l 1,7,-1
 23 628 l 1,8,-1
 29 650 l 1,9,-1
 264 650 l 1,10,-1
 265 628 l 1,11,-1
 215 605 l 1,12,13
 197 598 197 598 190.5 590 c 128,-1,14
 184 582 184 582 184 567 c 2,15,-1
 184 257 l 2,16,17
 184 160 184 160 230.5 107 c 128,-1,18
 277 54 277 54 356 54 c 128,-1,19
 435 54 435 54 483 78 c 1,20,21
 533 131 533 131 533 252 c 2,22,-1
 533 593 l 1,23,-1
 447 628 l 1,24,-1
 453 650 l 1,25,-1
 669 650 l 1,26,-1
 675 628 l 1,27,-1
 630 609 l 1,28,29
 599 597 599 597 599 567 c 2,0,-1
EndSplineSet
EndChar

StartChar: V
Encoding: 86 86 57
Width: 638
GlyphClass: 2
Flags: W
LayerCount: 2
Fore
SplineSet
170 580 m 0,0,1
 170 574 170 574 173 567 c 2,2,-1
 335 108 l 1,3,-1
 503 593 l 1,4,-1
 417 628 l 1,5,-1
 423 650 l 1,6,-1
 644 650 l 1,7,-1
 650 628 l 1,8,-1
 595 605 l 2,9,10
 578 598 578 598 573.5 592 c 128,-1,11
 569 586 569 586 562 567 c 2,12,-1
 362 10 l 1,13,-1
 301 -8 l 1,14,-1
 281 0 l 1,15,-1
 66 596 l 1,16,-1
 -12 628 l 1,17,-1
 -6 650 l 1,18,-1
 239 650 l 1,19,-1
 245 628 l 1,20,-1
 190 605 l 2,21,22
 170 597 170 597 170 580 c 0,0,1
EndSplineSet
EndChar

StartChar: W
Encoding: 87 87 58
Width: 976
GlyphClass: 2
Flags: W
LayerCount: 2
Fore
SplineSet
174 580 m 0,0,1
 174 574 174 574 176 567 c 2,2,-1
 309 108 l 1,3,-1
 461 630 l 1,4,-1
 522 650 l 1,5,-1
 541 640 l 1,6,-1
 698 108 l 1,7,-1
 839 593 l 1,8,-1
 753 628 l 1,9,-1
 759 650 l 1,10,-1
 981 650 l 1,11,-1
 987 628 l 1,12,-1
 932 605 l 2,13,14
 915 598 915 598 910 591.5 c 128,-1,15
 905 585 905 585 899 567 c 2,16,-1
 730 10 l 1,17,-1
 656 -8 l 1,18,-1
 636 0 l 1,19,-1
 488 499 l 1,20,-1
 347 10 l 1,21,-1
 270 -8 l 1,22,-1
 250 0 l 1,23,-1
 69 596 l 1,24,-1
 -9 628 l 1,25,-1
 -3 650 l 1,26,-1
 242 650 l 1,27,-1
 248 628 l 1,28,-1
 193 605 l 2,29,30
 174 597 174 597 174 580 c 0,0,1
EndSplineSet
EndChar

StartChar: X
Encoding: 88 88 59
Width: 646
GlyphClass: 2
Flags: W
LayerCount: 2
Fore
SplineSet
445 45 m 2,0,1
 459 51 459 51 459 61 c 128,-1,2
 459 71 459 71 450 83 c 2,3,-1
 313 273 l 1,4,-1
 156 57 l 1,5,-1
 242 22 l 1,6,-1
 236 0 l 1,7,-1
 10 0 l 1,8,-1
 4 22 l 1,9,-1
 59 45 l 2,10,11
 76 52 76 52 82 59 c 128,-1,12
 88 66 88 66 93 74 c 128,-1,13
 98 82 98 82 99 83 c 2,14,-1
 275 326 l 1,15,-1
 81 596 l 1,16,-1
 9 628 l 1,17,-1
 15 650 l 1,18,-1
 260 650 l 1,19,-1
 266 628 l 1,20,-1
 211 605 l 2,21,22
 197 599 197 599 197 589 c 128,-1,23
 197 579 197 579 206 567 c 2,24,-1
 335 387 l 1,25,-1
 480 593 l 1,26,-1
 394 628 l 1,27,-1
 400 650 l 1,28,-1
 626 650 l 1,29,-1
 632 628 l 1,30,-1
 577 605 l 2,31,32
 565 600 565 600 562 597.5 c 128,-1,33
 559 595 559 595 557.5 594 c 128,-1,34
 556 593 556 593 552.5 588.5 c 128,-1,35
 549 584 549 584 548 583 c 128,-1,36
 547 582 547 582 543 575.5 c 128,-1,37
 539 569 539 569 537 567 c 2,38,-1
 373 334 l 1,39,-1
 575 54 l 1,40,-1
 647 22 l 1,41,-1
 641 0 l 1,42,-1
 396 0 l 1,43,-1
 390 22 l 1,44,-1
 445 45 l 2,0,1
EndSplineSet
EndChar

StartChar: Y
Encoding: 89 89 60
Width: 598
GlyphClass: 2
Flags: W
LayerCount: 2
Fore
SplineSet
258 83 m 2,0,-1
 258 298 l 1,1,-1
 60 596 l 1,2,-1
 -10 628 l 1,3,-1
 -4 650 l 1,4,-1
 237 650 l 1,5,-1
 243 628 l 1,6,-1
 196 605 l 2,7,8
 174 595 174 595 174 581 c 0,9,10
 174 574 174 574 179 567 c 2,11,-1
 315 365 l 1,12,-1
 463 593 l 1,13,-1
 377 628 l 1,14,-1
 383 650 l 1,15,-1
 607 650 l 1,16,-1
 613 628 l 1,17,-1
 558 605 l 2,18,19
 539 597 539 597 530.5 587.5 c 128,-1,20
 522 578 522 578 515 567 c 2,21,-1
 343 301 l 1,22,-1
 343 57 l 1,23,-1
 429 22 l 1,24,-1
 423 0 l 1,25,-1
 178 0 l 1,26,-1
 172 22 l 1,27,-1
 227 45 l 2,28,29
 245 52 245 52 251.5 60 c 128,-1,30
 258 68 258 68 258 83 c 2,0,-1
EndSplineSet
EndChar

StartChar: Z
Encoding: 90 90 61
Width: 553
GlyphClass: 2
Flags: W
LayerCount: 2
Fore
SplineSet
508 0 m 1,0,-1
 31 0 l 1,1,-1
 25 29 l 1,2,-1
 399 598 l 1,3,-1
 135 596 l 1,4,-1
 86 506 l 1,5,-1
 56 513 l 1,6,-1
 56 650 l 1,7,-1
 508 650 l 1,8,-1
 514 617 l 1,9,-1
 145 52 l 1,10,-1
 429 54 l 1,11,-1
 478 144 l 1,12,-1
 508 137 l 1,13,-1
 508 0 l 1,0,-1
EndSplineSet
EndChar

StartChar: bracketleft
Encoding: 91 91 62
Width: 288
GlyphClass: 2
Flags: W
LayerCount: 2
Fore
SplineSet
152 295 m 128,-1,1
 152 90 152 90 154 -115 c 1,2,-1
 270 -124 l 1,3,-1
 270 -160 l 1,4,-1
 91 -168 l 1,5,-1
 79 -157 l 1,6,7
 82 69 82 69 82 295 c 128,-1,8
 82 521 82 521 79 747 c 1,9,-1
 91 758 l 1,10,-1
 270 750 l 1,11,-1
 270 714 l 1,12,-1
 154 705 l 1,13,0
 152 500 152 500 152 295 c 128,-1,1
EndSplineSet
EndChar

StartChar: backslash
Encoding: 92 92 63
Width: 407
GlyphClass: 2
Flags: W
LayerCount: 2
Fore
SplineSet
73 709 m 1,0,-1
 89 701 l 1,1,2
 130 602 130 602 188 462 c 0,3,4
 312 161 312 161 385 -8 c 1,5,-1
 335 -31 l 1,6,-1
 319 -23 l 1,7,8
 39 650 39 650 23 686 c 1,9,-1
 73 709 l 1,0,-1
EndSplineSet
EndChar

StartChar: bracketright
Encoding: 93 93 64
Width: 288
GlyphClass: 2
Flags: W
LayerCount: 2
Fore
SplineSet
136 295 m 128,-1,1
 136 500 136 500 134 705 c 1,2,-1
 18 714 l 1,3,-1
 18 750 l 1,4,-1
 197 758 l 1,5,-1
 209 747 l 1,6,7
 206 521 206 521 206 295 c 128,-1,8
 206 69 206 69 209 -157 c 1,9,-1
 197 -168 l 1,10,-1
 18 -160 l 1,11,-1
 18 -124 l 1,12,-1
 134 -115 l 1,13,0
 136 90 136 90 136 295 c 128,-1,1
EndSplineSet
EndChar

StartChar: asciicircum
Encoding: 94 94 65
Width: 449
GlyphClass: 2
Flags: W
LayerCount: 2
Fore
SplineSet
40 413 m 1,0,-1
 203 658 l 1,1,-1
 245 658 l 1,2,-1
 410 415 l 1,3,-1
 376 389 l 1,4,-1
 225 561 l 1,5,-1
 74 388 l 1,6,-1
 40 413 l 1,0,-1
EndSplineSet
EndChar

StartChar: underscore
Encoding: 95 95 66
Width: 596
GlyphClass: 2
Flags: W
LayerCount: 2
Fore
SplineSet
57 12 m 1,0,-1
 69 51 l 1,1,-1
 525 51 l 1,2,-1
 536 39 l 1,3,-1
 525 -8 l 1,4,5
 169 0 169 0 68 0 c 1,6,-1
 57 12 l 1,0,-1
EndSplineSet
EndChar

StartChar: grave
Encoding: 96 96 67
Width: 293
GlyphClass: 2
Flags: W
LayerCount: 2
Fore
SplineSet
240 552 m 1,0,-1
 29 629 l 1,1,-1
 72 684 l 1,2,-1
 92 688 l 1,3,-1
 253 572 l 1,4,-1
 240 552 l 1,0,-1
EndSplineSet
EndChar

StartChar: a
Encoding: 97 97 68
Width: 431
GlyphClass: 2
Flags: W
LayerCount: 2
Fore
SplineSet
138 74 m 128,-1,1
 161 57 161 57 191.5 57 c 128,-1,2
 222 57 222 57 273 74 c 1,3,-1
 275 190 l 1,4,5
 147 183 147 183 116 146 c 1,6,7
 115 141 115 141 115 133 c 0,8,0
 115 91 115 91 138 74 c 128,-1,1
274 30 m 1,9,10
 209 -8 209 -8 155 -8 c 128,-1,11
 101 -8 101 -8 69.5 26.5 c 128,-1,12
 38 61 38 61 38 114.5 c 128,-1,13
 38 168 38 168 90.5 197 c 128,-1,14
 143 226 143 226 275 234 c 1,15,-1
 276 299 l 2,16,17
 277 344 277 344 254.5 371.5 c 128,-1,18
 232 399 232 399 193 399 c 128,-1,19
 154 399 154 399 125 390 c 1,20,-1
 117 314 l 1,21,-1
 93 307 l 1,22,-1
 38 385 l 1,23,24
 60 410 60 410 104 434 c 128,-1,25
 148 458 148 458 209 458 c 0,26,27
 358 458 358 458 358 277 c 1,28,-1
 353 54 l 1,29,-1
 422 30 l 1,30,-1
 416 8 l 1,31,-1
 331 -8 l 1,32,-1
 311 0 l 1,33,-1
 279 28 l 1,34,-1
 274 30 l 1,9,10
EndSplineSet
EndChar

StartChar: b
Encoding: 98 98 69
Width: 502
GlyphClass: 2
Flags: W
LayerCount: 2
Fore
SplineSet
144 420 m 1,0,1
 209 458 209 458 290 458 c 128,-1,2
 371 458 371 458 417.5 391 c 128,-1,3
 464 324 464 324 464 218.5 c 128,-1,4
 464 113 464 113 400.5 52.5 c 128,-1,5
 337 -8 337 -8 239 -8 c 0,6,7
 198 -8 198 -8 143.5 1.5 c 128,-1,8
 89 11 89 11 65 23 c 1,9,-1
 65 608 l 1,10,-1
 -5 619 l 1,11,-1
 -11 641 l 1,12,-1
 124 688 l 1,13,-1
 144 680 l 1,14,-1
 144 420 l 1,0,1
146 70 m 1,15,16
 186 56 186 56 244.5 56 c 128,-1,17
 303 56 303 56 342 71 c 1,18,19
 379 120 379 120 379 214 c 0,20,21
 379 389 379 389 247 389 c 0,22,23
 198 389 198 389 146 376 c 1,24,-1
 146 70 l 1,15,16
EndSplineSet
EndChar

StartChar: c
Encoding: 99 99 70
Width: 434
GlyphClass: 2
Flags: W
LayerCount: 2
Fore
SplineSet
312 390 m 1,0,1
 290 396 290 396 242 396 c 128,-1,2
 194 396 194 396 160 379 c 1,3,4
 122 331 122 331 122 242 c 128,-1,5
 122 153 122 153 164 104.5 c 128,-1,6
 206 56 206 56 272 56 c 128,-1,7
 338 56 338 56 395 82 c 1,8,-1
 409 56 l 1,9,10
 397 44 397 44 380 31.5 c 128,-1,11
 363 19 363 19 325.5 5.5 c 128,-1,12
 288 -8 288 -8 247 -8 c 0,13,14
 154 -8 154 -8 96 53.5 c 128,-1,15
 38 115 38 115 38 225 c 128,-1,16
 38 335 38 335 101.5 396.5 c 128,-1,17
 165 458 165 458 256 458 c 0,18,19
 301 458 301 458 336 441 c 128,-1,20
 371 424 371 424 383 411 c 128,-1,21
 395 398 395 398 402 385 c 1,22,-1
 344 307 l 1,23,-1
 320 314 l 1,24,-1
 312 390 l 1,0,1
EndSplineSet
EndChar

StartChar: d
Encoding: 100 100 71
Width: 522
GlyphClass: 2
Flags: W
LayerCount: 2
Fore
SplineSet
358 30 m 1,0,1
 293 -8 293 -8 212 -8 c 128,-1,2
 131 -8 131 -8 84.5 59 c 128,-1,3
 38 126 38 126 38 231.5 c 128,-1,4
 38 337 38 337 101.5 397.5 c 128,-1,5
 165 458 165 458 263 458 c 0,6,7
 306 458 306 458 342 452 c 1,8,-1
 356 449 l 1,9,-1
 356 608 l 1,10,-1
 286 619 l 1,11,-1
 280 641 l 1,12,-1
 417 688 l 1,13,-1
 437 680 l 1,14,-1
 437 54 l 1,15,-1
 506 22 l 1,16,-1
 500 0 l 1,17,-1
 405 -8 l 1,18,-1
 391 -2 l 1,19,-1
 362 28 l 1,20,-1
 358 30 l 1,0,1
356 380 m 1,21,22
 316 394 316 394 257.5 394 c 128,-1,23
 199 394 199 394 160 379 c 1,24,25
 123 330 123 330 123 236 c 0,26,27
 123 61 123 61 255 61 c 0,28,29
 304 61 304 61 356 74 c 1,30,-1
 356 380 l 1,21,22
EndSplineSet
EndChar

StartChar: e
Encoding: 101 101 72
Width: 455
GlyphClass: 2
Flags: W
LayerCount: 2
Fore
SplineSet
101 396.5 m 128,-1,1
 164 458 164 458 248 458 c 128,-1,2
 332 458 332 458 375 408.5 c 128,-1,3
 418 359 418 359 418 273 c 2,4,-1
 418 240 l 1,5,-1
 403 225 l 1,6,-1
 123 225 l 1,7,8
 125 148 125 148 166 102 c 128,-1,9
 207 56 207 56 271.5 56 c 128,-1,10
 336 56 336 56 395 82 c 1,11,-1
 409 56 l 1,12,13
 397 44 397 44 380 31.5 c 128,-1,14
 363 19 363 19 325.5 5.5 c 128,-1,15
 288 -8 288 -8 247 -8 c 0,16,17
 154 -8 154 -8 96 53.5 c 128,-1,18
 38 115 38 115 38 225 c 128,-1,0
 38 335 38 335 101 396.5 c 128,-1,1
237 394 m 0,19,20
 190 394 190 394 160 379 c 1,21,22
 148 364 148 364 136.5 331 c 128,-1,23
 125 298 125 298 124 268 c 1,24,-1
 338 274 l 1,25,26
 338 394 338 394 237 394 c 0,19,20
EndSplineSet
EndChar

StartChar: f
Encoding: 102 102 73
Width: 313
GlyphClass: 2
Flags: W
LayerCount: 2
Fore
SplineSet
333 610 m 1,0,1
 294 617 294 617 256 617 c 128,-1,2
 218 617 218 617 194 605 c 1,3,4
 180 575 180 575 180 480 c 2,5,-1
 180 450 l 1,6,-1
 289 450 l 1,7,-1
 300 438 l 1,8,-1
 290 400 l 1,9,-1
 180 404 l 1,10,-1
 180 61 l 1,11,-1
 274 22 l 1,12,-1
 268 0 l 1,13,-1
 29 0 l 1,14,-1
 23 22 l 1,15,-1
 68 41 l 2,16,17
 86 48 86 48 92.5 56 c 128,-1,18
 99 64 99 64 99 79 c 2,19,-1
 99 403 l 1,20,-1
 29 402 l 1,21,-1
 23 424 l 1,22,-1
 99 458 l 1,23,24
 105 648 105 648 247 681 c 1,25,26
 279 686 279 686 292 686 c 0,27,28
 326 686 326 686 340 680 c 1,29,-1
 347 659 l 1,30,-1
 333 610 l 1,0,1
EndSplineSet
EndChar

StartChar: g
Encoding: 103 103 74
Width: 446
GlyphClass: 2
Flags: W
LayerCount: 2
Fore
SplineSet
348 406 m 1,0,1
 389 362 389 362 389 291.5 c 128,-1,2
 389 221 389 221 339.5 175.5 c 128,-1,3
 290 130 290 130 212 130 c 0,4,5
 192 130 192 130 174 133 c 1,6,7
 147 107 147 107 147 81 c 0,8,9
 147 72 147 72 161 69.5 c 128,-1,10
 175 67 175 67 287 57 c 0,11,12
 350 51 350 51 391.5 19 c 128,-1,13
 433 -13 433 -13 433 -81 c 128,-1,14
 433 -149 433 -149 373.5 -193.5 c 128,-1,15
 314 -238 314 -238 218.5 -238 c 128,-1,16
 123 -238 123 -238 71 -202.5 c 128,-1,17
 19 -167 19 -167 19 -108 c 0,18,19
 19 -36 19 -36 93 15 c 1,20,21
 77 33 77 33 77 54.5 c 128,-1,22
 77 76 77 76 91 102.5 c 128,-1,23
 105 129 105 129 127 148 c 1,24,25
 85 168 85 168 61.5 206 c 128,-1,26
 38 244 38 244 38 294 c 0,27,28
 38 368 38 368 87 414 c 128,-1,29
 136 460 136 460 213 460 c 0,30,31
 269 460 269 460 312 434 c 1,32,33
 353 485 353 485 381 506 c 1,34,-1
 424 456 l 1,35,-1
 418 441 l 1,36,37
 361 413 361 413 348 406 c 1,0,1
133 -8 m 1,38,39
 96 -42 96 -42 96 -87.5 c 128,-1,40
 96 -133 96 -133 133.5 -157 c 128,-1,41
 171 -181 171 -181 235.5 -181 c 128,-1,42
 300 -181 300 -181 345 -154 c 1,43,44
 361 -131 361 -131 361 -91 c 128,-1,45
 361 -51 361 -51 336 -38 c 128,-1,46
 311 -25 311 -25 262 -20 c 0,47,48
 195 -13 195 -13 156 -13 c 1,49,50
 146 -12 146 -12 133 -8 c 1,38,39
116 293 m 0,51,52
 116 244 116 244 142 216.5 c 128,-1,53
 168 189 168 189 214.5 189 c 128,-1,54
 261 189 261 189 288 205 c 1,55,56
 296 215 296 215 302.5 243 c 128,-1,57
 309 271 309 271 309 297 c 0,58,59
 309 346 309 346 283 373.5 c 128,-1,60
 257 401 257 401 210.5 401 c 128,-1,61
 164 401 164 401 137 385 c 1,62,63
 129 375 129 375 122.5 347 c 128,-1,64
 116 319 116 319 116 293 c 0,51,52
EndSplineSet
EndChar

StartChar: h
Encoding: 104 104 75
Width: 533
GlyphClass: 2
Flags: W
LayerCount: 2
Fore
SplineSet
370 293 m 2,0,1
 370 344 370 344 346.5 366.5 c 128,-1,2
 323 389 323 389 271 389 c 128,-1,3
 219 389 219 389 167 376 c 1,4,-1
 167 54 l 1,5,-1
 246 22 l 1,6,-1
 240 0 l 1,7,-1
 16 0 l 1,8,-1
 10 22 l 1,9,-1
 55 41 l 2,10,11
 73 48 73 48 79.5 56 c 128,-1,12
 86 64 86 64 86 79 c 2,13,-1
 86 608 l 1,14,-1
 16 619 l 1,15,-1
 10 641 l 1,16,-1
 145 688 l 1,17,-1
 165 680 l 1,18,-1
 165 420 l 1,19,20
 234 458 234 458 307 458 c 0,21,22
 451 458 451 458 451 305 c 2,23,-1
 451 54 l 1,24,-1
 530 22 l 1,25,-1
 524 0 l 1,26,-1
 300 0 l 1,27,-1
 294 22 l 1,28,-1
 339 41 l 2,29,30
 357 48 357 48 363.5 56 c 128,-1,31
 370 64 370 64 370 79 c 2,32,-1
 370 293 l 2,0,1
EndSplineSet
EndChar

StartChar: i
Encoding: 105 105 76
Width: 271
GlyphClass: 2
Flags: W
LayerCount: 2
Fore
SplineSet
100 79 m 2,0,-1
 100 378 l 1,1,-1
 30 389 l 1,2,-1
 24 411 l 1,3,-1
 161 458 l 1,4,-1
 181 450 l 1,5,-1
 181 54 l 1,6,-1
 260 22 l 1,7,-1
 254 0 l 1,8,-1
 30 0 l 1,9,-1
 24 22 l 1,10,-1
 69 41 l 2,11,12
 87 48 87 48 93.5 56 c 128,-1,13
 100 64 100 64 100 79 c 2,0,-1
96.5 577.5 m 128,-1,15
 81 593 81 593 81 616.5 c 128,-1,16
 81 640 81 640 96.5 656 c 128,-1,17
 112 672 112 672 135.5 672 c 128,-1,18
 159 672 159 672 175 656 c 128,-1,19
 191 640 191 640 191 616.5 c 128,-1,20
 191 593 191 593 175 577.5 c 128,-1,21
 159 562 159 562 135.5 562 c 128,-1,14
 112 562 112 562 96.5 577.5 c 128,-1,15
EndSplineSet
EndChar

StartChar: j
Encoding: 106 106 77
Width: 239
GlyphClass: 2
Flags: W
LayerCount: 2
Fore
SplineSet
170 0 m 2,0,1
 170 -80 170 -80 131.5 -140.5 c 128,-1,2
 93 -201 93 -201 27 -238 c 1,3,-1
 13 -220 l 1,4,5
 89 -131 89 -131 89 -8 c 2,6,-1
 89 378 l 1,7,-1
 19 389 l 1,8,-1
 13 411 l 1,9,-1
 150 458 l 1,10,-1
 170 450 l 1,11,-1
 170 0 l 2,0,1
85.5 577.5 m 128,-1,13
 70 593 70 593 70 616.5 c 128,-1,14
 70 640 70 640 85.5 656 c 128,-1,15
 101 672 101 672 124.5 672 c 128,-1,16
 148 672 148 672 164 656 c 128,-1,17
 180 640 180 640 180 616.5 c 128,-1,18
 180 593 180 593 164 577.5 c 128,-1,19
 148 562 148 562 124.5 562 c 128,-1,12
 101 562 101 562 85.5 577.5 c 128,-1,13
EndSplineSet
EndChar

StartChar: k
Encoding: 107 107 78
Width: 513
GlyphClass: 2
Flags: W
LayerCount: 2
Fore
SplineSet
381 0 m 1,0,-1
 178 242 l 1,1,-1
 335 396 l 1,2,-1
 264 428 l 1,3,-1
 270 450 l 1,4,-1
 472 450 l 1,5,-1
 478 428 l 1,6,-1
 433 409 l 2,7,8
 409 399 409 399 373 363 c 2,9,-1
 266 259 l 1,10,-1
 438 54 l 1,11,-1
 514 22 l 1,12,-1
 508 0 l 1,13,-1
 381 0 l 1,0,-1
86 79 m 2,14,-1
 86 608 l 1,15,-1
 16 619 l 1,16,-1
 10 641 l 1,17,-1
 147 688 l 1,18,-1
 167 680 l 1,19,-1
 167 54 l 1,20,-1
 246 22 l 1,21,-1
 240 0 l 1,22,-1
 16 0 l 1,23,-1
 10 22 l 1,24,-1
 55 41 l 2,25,26
 73 48 73 48 79.5 56 c 128,-1,27
 86 64 86 64 86 79 c 2,14,-1
EndSplineSet
EndChar

StartChar: l
Encoding: 108 108 79
Width: 261
GlyphClass: 2
Flags: W
LayerCount: 2
Fore
SplineSet
90 79 m 2,0,-1
 90 608 l 1,1,-1
 20 619 l 1,2,-1
 14 641 l 1,3,-1
 151 688 l 1,4,-1
 171 680 l 1,5,-1
 171 54 l 1,6,-1
 250 22 l 1,7,-1
 244 0 l 1,8,-1
 20 0 l 1,9,-1
 14 22 l 1,10,-1
 59 41 l 2,11,12
 77 48 77 48 83.5 56 c 128,-1,13
 90 64 90 64 90 79 c 2,0,-1
EndSplineSet
EndChar

StartChar: m
Encoding: 109 109 80
Width: 831
GlyphClass: 2
Flags: W
LayerCount: 2
Fore
SplineSet
668 293 m 2,0,1
 668 344 668 344 644.5 366.5 c 128,-1,2
 621 389 621 389 568 389 c 128,-1,3
 515 389 515 389 455 373 c 1,4,5
 465 340 465 340 465 305 c 2,6,-1
 465 54 l 1,7,-1
 544 22 l 1,8,-1
 538 0 l 1,9,-1
 314 0 l 1,10,-1
 308 22 l 1,11,-1
 353 41 l 2,12,13
 371 48 371 48 377.5 56 c 128,-1,14
 384 64 384 64 384 79 c 2,15,-1
 384 293 l 2,16,17
 384 344 384 344 360.5 366.5 c 128,-1,18
 337 389 337 389 285 389 c 128,-1,19
 233 389 233 389 181 376 c 1,20,-1
 181 54 l 1,21,-1
 260 22 l 1,22,-1
 254 0 l 1,23,-1
 30 0 l 1,24,-1
 24 22 l 1,25,-1
 69 41 l 2,26,27
 87 48 87 48 93.5 56 c 128,-1,28
 100 64 100 64 100 79 c 2,29,-1
 100 378 l 1,30,-1
 30 389 l 1,31,-1
 24 411 l 1,32,-1
 153 458 l 1,33,-1
 173 450 l 1,34,-1
 175 422 l 1,35,-1
 179 420 l 1,36,37
 248 458 248 458 323 458 c 128,-1,38
 398 458 398 458 434 413 c 1,39,40
 522 458 522 458 601 458 c 0,41,42
 749 458 749 458 749 305 c 2,43,-1
 749 54 l 1,44,-1
 828 22 l 1,45,-1
 822 0 l 1,46,-1
 598 0 l 1,47,-1
 592 22 l 1,48,-1
 637 41 l 2,49,50
 655 48 655 48 661.5 56 c 128,-1,51
 668 64 668 64 668 79 c 2,52,-1
 668 293 l 2,0,1
EndSplineSet
EndChar

StartChar: n
Encoding: 110 110 81
Width: 547
GlyphClass: 2
Flags: W
LayerCount: 2
Fore
SplineSet
384 293 m 2,0,1
 384 344 384 344 360.5 366.5 c 128,-1,2
 337 389 337 389 285 389 c 128,-1,3
 233 389 233 389 181 376 c 1,4,-1
 181 54 l 1,5,-1
 260 22 l 1,6,-1
 254 0 l 1,7,-1
 30 0 l 1,8,-1
 24 22 l 1,9,-1
 69 41 l 2,10,11
 87 48 87 48 93.5 56 c 128,-1,12
 100 64 100 64 100 79 c 2,13,-1
 100 378 l 1,14,-1
 30 389 l 1,15,-1
 24 411 l 1,16,-1
 153 458 l 1,17,-1
 173 450 l 1,18,-1
 175 422 l 1,19,-1
 179 420 l 1,20,21
 248 458 248 458 321 458 c 0,22,23
 465 458 465 458 465 305 c 2,24,-1
 465 54 l 1,25,-1
 544 22 l 1,26,-1
 538 0 l 1,27,-1
 314 0 l 1,28,-1
 308 22 l 1,29,-1
 353 41 l 2,30,31
 371 48 371 48 377.5 56 c 128,-1,32
 384 64 384 64 384 79 c 2,33,-1
 384 293 l 2,0,1
EndSplineSet
EndChar

StartChar: o
Encoding: 111 111 82
Width: 506
GlyphClass: 2
Flags: W
LayerCount: 2
Fore
SplineSet
123 236 m 0,0,1
 123 56 123 56 260 56 c 0,2,3
 310 56 310 56 346 71 c 1,4,5
 383 119 383 119 383 214 c 0,6,7
 383 394 383 394 246 394 c 0,8,9
 196 394 196 394 160 379 c 1,10,11
 123 331 123 331 123 236 c 0,0,1
96 53 m 128,-1,13
 38 114 38 114 38 225.5 c 128,-1,14
 38 337 38 337 102 397.5 c 128,-1,15
 166 458 166 458 259 458 c 128,-1,16
 352 458 352 458 410 397 c 128,-1,17
 468 336 468 336 468 224.5 c 128,-1,18
 468 113 468 113 404 52.5 c 128,-1,19
 340 -8 340 -8 247 -8 c 128,-1,12
 154 -8 154 -8 96 53 c 128,-1,13
EndSplineSet
EndChar

StartChar: p
Encoding: 112 112 83
Width: 526
GlyphClass: 2
Flags: W
LayerCount: 2
Fore
SplineSet
307 458 m 0,0,1
 395 458 395 458 441.5 390.5 c 128,-1,2
 488 323 488 323 488 218 c 128,-1,3
 488 113 488 113 424.5 52.5 c 128,-1,4
 361 -8 361 -8 266 -8 c 0,5,6
 220 -8 220 -8 170 1 c 1,7,-1
 170 -174 l 1,8,-1
 249 -206 l 1,9,-1
 243 -228 l 1,10,-1
 19 -228 l 1,11,-1
 13 -206 l 1,12,-1
 58 -187 l 2,13,14
 76 -180 76 -180 82.5 -172 c 128,-1,15
 89 -164 89 -164 89 -149 c 2,16,-1
 89 378 l 1,17,-1
 19 389 l 1,18,-1
 13 411 l 1,19,-1
 142 458 l 1,20,-1
 162 450 l 1,21,-1
 164 422 l 1,22,-1
 168 420 l 1,23,24
 236 458 236 458 307 458 c 0,0,1
170 70 m 1,25,26
 210 56 210 56 268.5 56 c 128,-1,27
 327 56 327 56 366 71 c 1,28,29
 403 120 403 120 403 214 c 0,30,31
 403 389 403 389 271 389 c 0,32,33
 222 389 222 389 170 376 c 1,34,-1
 170 70 l 1,25,26
EndSplineSet
EndChar

StartChar: q
Encoding: 113 113 84
Width: 506
GlyphClass: 2
Flags: W
LayerCount: 2
Fore
SplineSet
356 -149 m 2,0,-1
 356 29 l 1,1,2
 289 -8 289 -8 219 -8 c 0,3,4
 132 -8 132 -8 85 59.5 c 128,-1,5
 38 127 38 127 38 232 c 128,-1,6
 38 337 38 337 101.5 397.5 c 128,-1,7
 165 458 165 458 260 458 c 0,8,9
 321 458 321 458 377 445 c 1,10,-1
 418 458 l 1,11,-1
 437 450 l 1,12,-1
 437 -174 l 1,13,-1
 516 -206 l 1,14,-1
 510 -228 l 1,15,-1
 286 -228 l 1,16,-1
 280 -206 l 1,17,-1
 325 -187 l 2,18,19
 343 -180 343 -180 349.5 -172 c 128,-1,20
 356 -164 356 -164 356 -149 c 2,0,-1
356 380 m 1,21,22
 316 394 316 394 257.5 394 c 128,-1,23
 199 394 199 394 160 379 c 1,24,25
 123 330 123 330 123 236 c 0,26,27
 123 61 123 61 255 61 c 0,28,29
 304 61 304 61 356 74 c 1,30,-1
 356 380 l 1,21,22
EndSplineSet
EndChar

StartChar: r
Encoding: 114 114 85
Width: 387
GlyphClass: 2
Flags: W
LayerCount: 2
Fore
SplineSet
292 392 m 1,0,1
 266 392 266 392 230.5 384.5 c 128,-1,2
 195 377 195 377 181 371 c 1,3,-1
 181 54 l 1,4,-1
 270 22 l 1,5,-1
 264 0 l 1,6,-1
 30 0 l 1,7,-1
 24 22 l 1,8,-1
 69 41 l 2,9,10
 87 48 87 48 93.5 56 c 128,-1,11
 100 64 100 64 100 79 c 2,12,-1
 100 378 l 1,13,-1
 30 389 l 1,14,-1
 24 411 l 1,15,-1
 153 458 l 1,16,-1
 173 450 l 1,17,-1
 177 413 l 1,18,-1
 181 411 l 1,19,20
 195 422 195 422 238.5 438.5 c 128,-1,21
 282 455 282 455 303 458 c 1,22,23
 324 452 324 452 348 432.5 c 128,-1,24
 372 413 372 413 381 396 c 1,25,-1
 316 309 l 1,26,-1
 292 316 l 1,27,-1
 292 392 l 1,0,1
EndSplineSet
EndChar

StartChar: s
Encoding: 115 115 86
Width: 401
GlyphClass: 2
Flags: W
LayerCount: 2
Fore
SplineSet
267 394 m 1,0,1
 244 404 244 404 196.5 404 c 128,-1,2
 149 404 149 404 125 380 c 1,3,4
 116 366 116 366 116 347 c 0,5,6
 116 305 116 305 167 286 c 2,7,-1
 269 250 l 2,8,9
 312 235 312 235 338 201.5 c 128,-1,10
 364 168 364 168 364 123 c 0,11,12
 364 60 364 60 316 26 c 128,-1,13
 268 -8 268 -8 203.5 -8 c 128,-1,14
 139 -8 139 -8 95.5 13.5 c 128,-1,15
 52 35 52 35 32 59 c 1,16,-1
 83 142 l 1,17,-1
 108 135 l 1,18,-1
 112 68 l 1,19,20
 147 48 147 48 201 48 c 0,21,22
 292 48 292 48 292 110 c 0,23,24
 292 135 292 135 276 150 c 128,-1,25
 260 165 260 165 224 177 c 2,26,-1
 132 207 l 2,27,28
 91 221 91 221 69 253 c 128,-1,29
 47 285 47 285 47 325 c 0,30,31
 47 388 47 388 97 423 c 128,-1,32
 147 458 147 458 213 458 c 0,33,34
 253 458 253 458 288 442 c 0,35,36
 337 421 337 421 354 395 c 1,37,-1
 299 317 l 1,38,-1
 275 324 l 1,39,-1
 267 394 l 1,0,1
EndSplineSet
EndChar

StartChar: t
Encoding: 116 116 87
Width: 305
GlyphClass: 2
Flags: W
LayerCount: 2
Fore
SplineSet
86 89 m 2,0,-1
 86 402 l 1,1,-1
 16 402 l 1,2,-1
 10 424 l 1,3,-1
 86 458 l 1,4,-1
 130 551 l 1,5,-1
 167 544 l 1,6,-1
 167 450 l 1,7,-1
 286 450 l 1,8,-1
 297 438 l 1,9,-1
 287 400 l 1,10,-1
 167 404 l 1,11,-1
 167 112 l 2,12,13
 167 75 167 75 182 57.5 c 128,-1,14
 197 40 197 40 235 40 c 2,15,-1
 292 40 l 1,16,-1
 297 12 l 1,17,18
 234 -8 234 -8 186 -8 c 128,-1,19
 138 -8 138 -8 112 19 c 128,-1,20
 86 46 86 46 86 89 c 2,0,-1
EndSplineSet
EndChar

StartChar: u
Encoding: 117 117 88
Width: 534
GlyphClass: 2
Flags: W
LayerCount: 2
Fore
SplineSet
227 -8 m 0,0,1
 83 -8 83 -8 83 145 c 2,2,-1
 83 378 l 1,3,-1
 13 389 l 1,4,-1
 7 411 l 1,5,-1
 144 458 l 1,6,-1
 164 450 l 1,7,-1
 164 157 l 2,8,9
 164 106 164 106 187.5 83.5 c 128,-1,10
 211 61 211 61 263 61 c 128,-1,11
 315 61 315 61 367 74 c 1,12,-1
 367 378 l 1,13,-1
 297 389 l 1,14,-1
 291 411 l 1,15,-1
 428 458 l 1,16,-1
 448 450 l 1,17,-1
 448 54 l 1,18,-1
 517 30 l 1,19,-1
 511 8 l 1,20,-1
 426 -8 l 1,21,-1
 406 0 l 1,22,-1
 374 28 l 1,23,-1
 369 30 l 1,24,25
 300 -8 300 -8 227 -8 c 0,0,1
EndSplineSet
EndChar

StartChar: v
Encoding: 118 118 89
Width: 512
GlyphClass: 2
Flags: W
LayerCount: 2
Fore
SplineSet
184 409 m 2,0,1
 166 402 166 402 166 388 c 128,-1,2
 166 374 166 374 170 363 c 2,3,-1
 269 96 l 1,4,-1
 381 396 l 1,5,-1
 310 428 l 1,6,-1
 316 450 l 1,7,-1
 510 450 l 1,8,-1
 516 428 l 1,9,-1
 467 407 l 2,10,11
 448 399 448 399 440 382 c 0,12,13
 437 376 437 376 432 363 c 2,14,-1
 289 0 l 1,15,-1
 243 -8 l 1,16,-1
 223 0 l 1,17,-1
 68 396 l 1,18,-1
 -3 428 l 1,19,-1
 3 450 l 1,20,-1
 223 450 l 1,21,-1
 229 428 l 1,22,-1
 184 409 l 2,0,1
EndSplineSet
EndChar

StartChar: w
Encoding: 119 119 90
Width: 754
GlyphClass: 2
Flags: W
LayerCount: 2
Fore
SplineSet
387 454 m 1,0,-1
 406 446 l 1,1,2
 507 142 507 142 526 92 c 1,3,-1
 623 396 l 1,4,-1
 552 428 l 1,5,-1
 558 450 l 1,6,-1
 746 450 l 1,7,-1
 752 428 l 1,8,-1
 703 407 l 2,9,10
 685 400 685 400 676 382 c 0,11,12
 674 376 674 376 670 363 c 2,13,-1
 555 0 l 1,14,-1
 495 -8 l 1,15,-1
 475 0 l 1,16,17
 430 126 430 126 384 251 c 1,18,19
 353 149 353 149 304 38 c 2,20,-1
 287 0 l 1,21,-1
 227 -8 l 1,22,-1
 207 0 l 1,23,-1
 66 396 l 1,24,-1
 -5 428 l 1,25,-1
 1 450 l 1,26,-1
 221 450 l 1,27,-1
 227 428 l 1,28,-1
 182 409 l 2,29,30
 152 396 152 396 168 363 c 1,31,-1
 258 92 l 1,32,33
 329 254 329 254 349 347 c 1,34,-1
 312 443 l 1,35,-1
 387 454 l 1,0,-1
EndSplineSet
EndChar

StartChar: x
Encoding: 120 120 91
Width: 504
GlyphClass: 2
Flags: W
LayerCount: 2
Fore
SplineSet
394 373 m 2,0,-1
 296 238 l 1,1,-1
 424 52 l 1,2,-1
 499 22 l 1,3,-1
 493 0 l 1,4,-1
 363 0 l 1,5,-1
 237 181 l 1,6,-1
 149 54 l 1,7,-1
 225 22 l 1,8,-1
 219 0 l 1,9,-1
 14 0 l 1,10,-1
 8 22 l 1,11,-1
 57 43 l 2,12,13
 86 55 86 55 101 77 c 2,14,-1
 206 223 l 1,15,-1
 88 396 l 1,16,-1
 12 428 l 1,17,-1
 18 450 l 1,18,-1
 146 450 l 1,19,-1
 263 279 l 1,20,-1
 347 396 l 1,21,-1
 271 428 l 1,22,-1
 277 450 l 1,23,-1
 482 450 l 1,24,-1
 488 428 l 1,25,-1
 439 407 l 2,26,27
 410 395 410 395 394 373 c 2,0,-1
EndSplineSet
EndChar

StartChar: y
Encoding: 121 121 92
Width: 521
GlyphClass: 2
Flags: W
LayerCount: 2
Fore
SplineSet
181 409 m 2,0,1
 162 401 162 401 162 387.5 c 128,-1,2
 162 374 162 374 167 363 c 2,3,-1
 276 106 l 1,4,-1
 388 396 l 1,5,-1
 317 428 l 1,6,-1
 323 450 l 1,7,-1
 517 450 l 1,8,-1
 523 428 l 1,9,-1
 474 407 l 2,10,11
 455 399 455 399 446 382 c 1,12,13
 444 376 444 376 439 363 c 2,14,-1
 297 12 l 2,15,16
 228 -158 228 -158 175 -238 c 1,17,-1
 100 -214 l 1,18,-1
 92 -194 l 1,19,20
 197 -81 197 -81 233 -1 c 1,21,-1
 65 396 l 1,22,-1
 -6 428 l 1,23,-1
 0 450 l 1,24,-1
 220 450 l 1,25,-1
 226 428 l 1,26,-1
 181 409 l 2,0,1
EndSplineSet
EndChar

StartChar: z
Encoding: 122 122 93
Width: 429
GlyphClass: 2
Flags: W
LayerCount: 2
Fore
SplineSet
389 0 m 1,0,-1
 34 0 l 1,1,-1
 28 29 l 1,2,-1
 287 404 l 1,3,-1
 120 400 l 1,4,-1
 72 316 l 1,5,-1
 48 323 l 1,6,-1
 48 440 l 1,7,-1
 58 450 l 1,8,-1
 383 450 l 1,9,-1
 389 417 l 1,10,-1
 133 46 l 1,11,-1
 317 50 l 1,12,-1
 365 134 l 1,13,-1
 389 127 l 1,14,-1
 389 0 l 1,0,-1
EndSplineSet
EndChar

StartChar: braceleft
Encoding: 123 123 94
Width: 305
GlyphClass: 2
Flags: W
LayerCount: 2
Fore
SplineSet
167 78.5 m 128,-1,1
 158 5 158 5 156.5 -17.5 c 128,-1,2
 155 -40 155 -40 155 -62.5 c 128,-1,3
 155 -85 155 -85 162 -98 c 1,4,5
 182 -109 182 -109 211.5 -109 c 128,-1,6
 241 -109 241 -109 271 -101 c 1,7,-1
 287 -146 l 1,8,-1
 276 -165 l 1,9,10
 270 -168 270 -168 248 -168 c 0,11,12
 171 -168 171 -168 124 -108 c 0,13,14
 93 -68 93 -68 93 -2 c 0,15,16
 93 18 93 18 103 96.5 c 128,-1,17
 113 175 113 175 113 206 c 0,18,19
 113 219 113 219 90.5 239 c 128,-1,20
 68 259 68 259 45 273 c 2,21,-1
 22 287 l 1,22,-1
 22 303 l 1,23,24
 61 327 61 327 87 349 c 128,-1,25
 113 371 113 371 113 384 c 0,26,27
 113 415 113 415 104 488 c 0,28,29
 93 572 93 572 93 592 c 0,30,31
 93 657 93 657 126 700 c 0,32,33
 171 758 171 758 248 758 c 0,34,35
 270 758 270 758 276 755 c 1,36,-1
 287 736 l 1,37,-1
 271 691 l 1,38,39
 241 699 241 699 225 699 c 128,-1,40
 209 699 209 699 195.5 698.5 c 128,-1,41
 182 698 182 698 162 688 c 1,42,43
 155 675 155 675 155 652 c 0,44,45
 155 607 155 607 167.5 505.5 c 128,-1,46
 180 404 180 404 180 389 c 128,-1,47
 180 374 180 374 159.5 350 c 128,-1,48
 139 326 139 326 117 310 c 2,49,-1
 95 295 l 1,50,51
 101 292 101 292 121 276 c 128,-1,52
 141 260 141 260 152 248 c 0,53,54
 182 219 182 219 180 195 c 0,55,0
 176 152 176 152 167 78.5 c 128,-1,1
EndSplineSet
EndChar

StartChar: bar
Encoding: 124 124 95
Width: 227
GlyphClass: 2
Flags: W
LayerCount: 2
Fore
SplineSet
144 321.5 m 128,-1,1
 144 118 144 118 147 -98 c 1,2,-1
 92 -108 l 1,3,-1
 80 -97 l 1,4,5
 82 92 82 92 82 295.5 c 128,-1,6
 82 499 82 499 80 718 c 1,7,-1
 135 728 l 1,8,-1
 147 717 l 1,9,0
 144 525 144 525 144 321.5 c 128,-1,1
EndSplineSet
EndChar

StartChar: braceright
Encoding: 125 125 96
Width: 305
GlyphClass: 2
Flags: W
LayerCount: 2
Fore
SplineSet
138 511.5 m 128,-1,1
 147 585 147 585 148.5 607.5 c 128,-1,2
 150 630 150 630 150 652.5 c 128,-1,3
 150 675 150 675 143 688 c 1,4,5
 121 699 121 699 92.5 699 c 128,-1,6
 64 699 64 699 34 691 c 1,7,-1
 18 736 l 1,8,-1
 29 755 l 1,9,10
 36 758 36 758 58 758 c 0,11,12
 134 758 134 758 181 698 c 0,13,14
 212 657 212 657 212 592 c 0,15,16
 212 572 212 572 202 493.5 c 128,-1,17
 192 415 192 415 192 384 c 0,18,19
 192 371 192 371 214.5 351 c 128,-1,20
 237 331 237 331 260 317 c 2,21,-1
 283 303 l 1,22,-1
 283 287 l 1,23,24
 244 263 244 263 218 241 c 128,-1,25
 192 219 192 219 192 206 c 0,26,27
 192 175 192 175 201 102 c 0,28,29
 212 18 212 18 212 -2 c 0,30,31
 212 -68 212 -68 179 -110 c 0,32,33
 134 -168 134 -168 56 -168 c 0,34,35
 35 -168 35 -168 29 -165 c 1,36,-1
 18 -146 l 1,37,-1
 34 -101 l 1,38,39
 64 -109 64 -109 80 -109 c 128,-1,40
 96 -109 96 -109 110.5 -108.5 c 128,-1,41
 125 -108 125 -108 143 -98 c 1,42,43
 150 -85 150 -85 150 -62 c 0,44,45
 150 -17 150 -17 137.5 84.5 c 128,-1,46
 125 186 125 186 125 201 c 128,-1,47
 125 216 125 216 145.5 240 c 128,-1,48
 166 264 166 264 188 280 c 2,49,-1
 210 295 l 1,50,51
 204 298 204 298 184 314 c 128,-1,52
 164 330 164 330 152 342 c 0,53,54
 123 371 123 371 125 395 c 0,55,0
 129 438 129 438 138 511.5 c 128,-1,1
EndSplineSet
EndChar

StartChar: asciitilde
Encoding: 126 126 97
Width: 560
GlyphClass: 2
Flags: W
LayerCount: 2
Fore
SplineSet
334 332 m 0,0,1
 376 302 376 302 386 300 c 1,2,3
 404 304 404 304 421 327.5 c 128,-1,4
 438 351 438 351 449 387 c 1,5,-1
 497 373 l 1,6,-1
 506 352 l 1,7,8
 490 317 490 317 458 292 c 1,9,10
 422 262 422 262 373.5 262 c 128,-1,11
 325 262 325 262 262 303 c 0,12,13
 232 322 232 322 216 334 c 0,14,15
 190 353 190 353 180 355 c 1,16,17
 162 351 162 351 145 327.5 c 128,-1,18
 128 304 128 304 117 268 c 1,19,-1
 69 282 l 1,20,-1
 60 303 l 1,21,22
 75 337 75 337 106 364 c 1,23,24
 142 393 142 393 194.5 393 c 128,-1,25
 247 393 247 393 334 332 c 0,0,1
EndSplineSet
EndChar

StartChar: exclamdown
Encoding: 161 161 99
Width: 227
GlyphClass: 2
Flags: W
LayerCount: 2
Fore
SplineSet
165 -228 m 1,0,-1
 73 -238 l 1,1,-1
 61 -227 l 1,2,-1
 95 259 l 1,3,-1
 120 263 l 1,4,-1
 133 261 l 1,5,-1
 165 -228 l 1,0,-1
73.5 363.5 m 128,-1,7
 58 379 58 379 58 402.5 c 128,-1,8
 58 426 58 426 73.5 442 c 128,-1,9
 89 458 89 458 112.5 458 c 128,-1,10
 136 458 136 458 152 442 c 128,-1,11
 168 426 168 426 168 402.5 c 128,-1,12
 168 379 168 379 152 363.5 c 128,-1,13
 136 348 136 348 112.5 348 c 128,-1,6
 89 348 89 348 73.5 363.5 c 128,-1,7
EndSplineSet
EndChar

StartChar: cent
Encoding: 162 162 100
Width: 420
GlyphClass: 2
Flags: W
LayerCount: 2
Fore
SplineSet
290 472 m 1,0,1
 273 477 273 477 229 477 c 128,-1,2
 185 477 185 477 153 462 c 1,3,4
 118 411 118 411 118 332 c 128,-1,5
 118 253 118 253 156 209 c 128,-1,6
 194 165 194 165 253 165 c 128,-1,7
 312 165 312 165 367 188 c 1,8,-1
 381 165 l 1,9,10
 332 113 332 113 245 108 c 1,11,-1
 259 -25 l 1,12,-1
 199 -35 l 1,13,-1
 187 -24 l 1,14,-1
 200 110 l 1,15,16
 127 120 127 120 84 174 c 128,-1,17
 41 228 41 228 41 318.5 c 128,-1,18
 41 409 41 409 86 463 c 128,-1,19
 131 517 131 517 202 529 c 1,20,-1
 189 656 l 1,21,-1
 249 666 l 1,22,-1
 261 655 l 1,23,-1
 248 532 l 1,24,25
 287 531 287 531 320 516 c 0,26,27
 371 494 371 494 385 468 c 1,28,-1
 320 385 l 1,29,-1
 299 391 l 1,30,-1
 290 472 l 1,0,1
EndSplineSet
EndChar

StartChar: sterling
Encoding: 163 163 101
Width: 482
GlyphClass: 2
Flags: W
LayerCount: 2
Fore
SplineSet
452 18 m 1,0,1
 408 -7 408 -7 361.5 -7 c 128,-1,2
 315 -7 315 -7 278 3 c 0,3,4
 177 30 177 30 72 -4 c 1,5,-1
 50 36 l 1,6,7
 88 66 88 66 104 110.5 c 128,-1,8
 120 155 120 155 120 197 c 0,9,10
 120 227 120 227 112 310 c 1,11,12
 81 311 81 311 50 311 c 1,13,-1
 39 323 l 1,14,-1
 51 359 l 1,15,-1
 105 359 l 1,16,17
 98 412 98 412 98 442 c 0,18,19
 98 546 98 546 160 602 c 128,-1,20
 222 658 222 658 328 658 c 0,21,22
 390 658 390 658 410 648 c 1,23,-1
 421 629 l 1,24,-1
 405 575 l 1,25,26
 357 588 357 588 295 588 c 128,-1,27
 233 588 233 588 201 578 c 1,28,29
 168 535 168 535 168 450 c 0,30,31
 168 423 168 423 174 361 c 1,32,-1
 362 367 l 1,33,-1
 373 355 l 1,34,-1
 362 306 l 1,35,36
 265 307 265 307 179 309 c 1,37,38
 182 273 182 273 182 234.5 c 128,-1,39
 182 196 182 196 176 160 c 0,40,41
 167 96 167 96 125 53 c 1,42,43
 168 73 168 73 228 73 c 256,44,45
 288 73 288 73 315.5 69 c 128,-1,46
 343 65 343 65 364.5 65 c 128,-1,47
 386 65 386 65 424 79 c 1,48,-1
 438 75 l 1,49,-1
 452 18 l 1,0,1
EndSplineSet
EndChar

StartChar: currency
Encoding: 164 164 102
Width: 658
GlyphClass: 2
Flags: W
LayerCount: 2
Fore
SplineSet
144 199 m 1,0,1
 112 252 112 252 112 324 c 128,-1,2
 112 396 112 396 145 448 c 1,3,-1
 48 568 l 1,4,-1
 74 598 l 1,5,-1
 203 508 l 1,6,7
 261 548 261 548 331.5 548 c 128,-1,8
 402 548 402 548 457 510 c 1,9,-1
 584 598 l 1,10,-1
 610 568 l 1,11,-1
 514 450 l 1,12,13
 546 397 546 397 546 326.5 c 128,-1,14
 546 256 546 256 512 201 c 1,15,-1
 610 82 l 1,16,-1
 584 52 l 1,17,-1
 454 141 l 1,18,19
 395 102 395 102 325 102 c 128,-1,20
 255 102 255 102 201 139 c 1,21,-1
 74 52 l 1,22,-1
 48 82 l 1,23,-1
 144 199 l 1,0,1
236 464 m 1,24,25
 197 415 197 415 197 336 c 128,-1,26
 197 257 197 257 235 211.5 c 128,-1,27
 273 166 273 166 339 166 c 0,28,29
 384 166 384 166 422 186 c 1,30,31
 461 235 461 235 461 314 c 128,-1,32
 461 393 461 393 423 438.5 c 128,-1,33
 385 484 385 484 319 484 c 0,34,35
 274 484 274 484 236 464 c 1,24,25
EndSplineSet
EndChar

StartChar: yen
Encoding: 165 165 103
Width: 673
GlyphClass: 2
Flags: W
LayerCount: 2
Fore
SplineSet
209 581 m 0,0,1
 209 574 209 574 214 567 c 2,2,-1
 350 365 l 1,3,-1
 498 593 l 1,4,-1
 412 628 l 1,5,-1
 418 650 l 1,6,-1
 642 650 l 1,7,-1
 648 628 l 1,8,-1
 593 605 l 2,9,10
 574 597 574 597 565.5 587.5 c 128,-1,11
 557 578 557 578 550 567 c 2,12,-1
 420 368 l 1,13,-1
 542 370 l 1,14,-1
 552 358 l 1,15,-1
 542 315 l 1,16,-1
 128 315 l 1,17,-1
 118 326 l 1,18,-1
 129 366 l 1,19,-1
 247 366 l 1,20,-1
 95 596 l 1,21,-1
 25 628 l 1,22,-1
 31 650 l 1,23,-1
 272 650 l 1,24,-1
 278 628 l 1,25,-1
 231 605 l 2,26,27
 209 595 209 595 209 581 c 0,0,1
293 203 m 1,28,-1
 129 204 l 1,29,-1
 118 216 l 1,30,-1
 130 255 l 1,31,-1
 541 255 l 1,32,-1
 552 243 l 1,33,-1
 541 200 l 1,34,35
 467 201 467 201 378 202 c 1,36,-1
 378 57 l 1,37,-1
 464 22 l 1,38,-1
 458 0 l 1,39,-1
 213 0 l 1,40,-1
 207 22 l 1,41,-1
 262 45 l 2,42,43
 280 52 280 52 286.5 60 c 128,-1,44
 293 68 293 68 293 83 c 2,45,-1
 293 203 l 1,28,-1
347 358 m 1,46,47
 348 357 348 357 350 357 c 128,-1,48
 352 357 352 357 354 359 c 1,49,-1
 347 358 l 1,46,47
EndSplineSet
EndChar

StartChar: brokenbar
Encoding: 166 166 104
Width: 224
GlyphClass: 2
Flags: W
LayerCount: 2
Fore
SplineSet
146 -97 m 1,0,-1
 89 -107 l 1,1,-1
 77 -96 l 1,2,3
 85 199 85 199 86 231 c 1,4,-1
 126 241 l 1,5,-1
 138 230 l 1,6,7
 140 129 140 129 146 -97 c 1,0,-1
77 718 m 1,8,-1
 134 728 l 1,9,-1
 146 717 l 1,10,11
 138 422 138 422 137 390 c 1,12,-1
 98 380 l 1,13,-1
 86 391 l 1,14,15
 85 454 85 454 81 578 c 128,-1,16
 77 702 77 702 77 718 c 1,8,-1
EndSplineSet
EndChar

StartChar: section
Encoding: 167 167 105
Width: 420
GlyphClass: 2
Flags: W
LayerCount: 2
Fore
SplineSet
138 -14 m 2,0,1
 138 81 138 81 97 233 c 128,-1,2
 56 385 56 385 56 445 c 0,3,4
 56 550 56 550 121.5 604 c 128,-1,5
 187 658 187 658 299 658 c 0,6,7
 358 658 358 658 378 648 c 1,8,-1
 389 629 l 1,9,-1
 373 571 l 1,10,11
 322 585 322 585 256.5 585 c 128,-1,12
 191 585 191 585 159 575 c 1,13,14
 126 532 126 532 126 458.5 c 128,-1,15
 126 385 126 385 158 245 c 128,-1,16
 190 105 190 105 190 30 c 0,17,18
 190 -6 190 -6 185 -35 c 1,19,-1
 148 -33 l 1,20,-1
 138 -27 l 1,21,-1
 138 -14 l 2,0,1
282 474 m 2,22,23
 282 379 282 379 323 227 c 128,-1,24
 364 75 364 75 364 15 c 0,25,26
 364 -90 364 -90 298.5 -144 c 128,-1,27
 233 -198 233 -198 121 -198 c 0,28,29
 62 -198 62 -198 42 -188 c 1,30,-1
 31 -169 l 1,31,-1
 47 -111 l 1,32,33
 98 -125 98 -125 163.5 -125 c 128,-1,34
 229 -125 229 -125 261 -115 c 1,35,36
 294 -72 294 -72 294 1.5 c 128,-1,37
 294 75 294 75 262 215 c 128,-1,38
 230 355 230 355 230 430 c 0,39,40
 230 466 230 466 235 495 c 1,41,-1
 272 493 l 1,42,-1
 282 487 l 1,43,-1
 282 474 l 2,22,23
EndSplineSet
EndChar

StartChar: dieresis
Encoding: 168 168 106
Width: 376
GlyphClass: 2
Flags: W
LayerCount: 2
Fore
SplineSet
49.5 577.5 m 128,-1,1
 34 593 34 593 34 616.5 c 128,-1,2
 34 640 34 640 49.5 656 c 128,-1,3
 65 672 65 672 88.5 672 c 128,-1,4
 112 672 112 672 128 656 c 128,-1,5
 144 640 144 640 144 616.5 c 128,-1,6
 144 593 144 593 128 577.5 c 128,-1,7
 112 562 112 562 88.5 562 c 128,-1,0
 65 562 65 562 49.5 577.5 c 128,-1,1
247.5 577.5 m 128,-1,9
 232 593 232 593 232 616.5 c 128,-1,10
 232 640 232 640 247.5 656 c 128,-1,11
 263 672 263 672 286.5 672 c 128,-1,12
 310 672 310 672 326 656 c 128,-1,13
 342 640 342 640 342 616.5 c 128,-1,14
 342 593 342 593 326 577.5 c 128,-1,15
 310 562 310 562 286.5 562 c 128,-1,8
 263 562 263 562 247.5 577.5 c 128,-1,9
EndSplineSet
EndChar

StartChar: copyright
Encoding: 169 169 107
Width: 810
GlyphClass: 2
Flags: W
LayerCount: 2
Fore
SplineSet
144 57 m 128,-1,1
 43 153 43 153 43 322 c 128,-1,2
 43 491 43 491 148 590 c 128,-1,3
 253 689 253 689 409 689 c 128,-1,4
 565 689 565 689 666 593 c 128,-1,5
 767 497 767 497 767 328.5 c 128,-1,6
 767 160 767 160 662.5 60.5 c 128,-1,7
 558 -39 558 -39 401.5 -39 c 128,-1,0
 245 -39 245 -39 144 57 c 128,-1,1
197 551 m 128,-1,9
 121 469 121 469 121 326 c 128,-1,10
 121 183 121 183 200 100 c 128,-1,11
 279 17 279 17 408.5 17 c 128,-1,12
 538 17 538 17 613.5 99 c 128,-1,13
 689 181 689 181 689 324 c 128,-1,14
 689 467 689 467 610.5 550 c 128,-1,15
 532 633 532 633 402.5 633 c 128,-1,8
 273 633 273 633 197 551 c 128,-1,9
459 460 m 1,16,17
 439 465 439 465 400.5 465 c 128,-1,18
 362 465 362 465 337 451 c 1,19,20
 311 414 311 414 311 341 c 0,21,22
 311 191 311 191 432 191 c 0,23,24
 480 191 480 191 531 209 c 1,25,-1
 542 188 l 1,26,27
 529 171 529 171 492.5 153.5 c 128,-1,28
 456 136 456 136 409 136 c 0,29,30
 334 136 334 136 284.5 185.5 c 128,-1,31
 235 235 235 235 235 330.5 c 128,-1,32
 235 426 235 426 288.5 473 c 128,-1,33
 342 520 342 520 414 520 c 0,34,35
 451 520 451 520 482 507 c 0,36,37
 534 486 534 486 546 462 c 1,38,-1
 487 387 l 1,39,-1
 468 393 l 1,40,-1
 459 460 l 1,16,17
EndSplineSet
EndChar

StartChar: ordfeminine
Encoding: 170 170 108
Width: 343
GlyphClass: 2
Flags: W
LayerCount: 2
Fore
SplineSet
194 449 m 1,0,1
 171 430 171 430 140.5 430 c 128,-1,2
 110 430 110 430 92.5 448 c 128,-1,3
 75 466 75 466 75 492.5 c 128,-1,4
 75 519 75 519 102 533.5 c 128,-1,5
 129 548 129 548 189 558 c 1,6,-1
 189 578 l 1,7,8
 191 617 191 617 153 617 c 0,9,10
 137 617 137 617 129 613 c 1,11,-1
 127 579 l 1,12,-1
 107 573 l 1,13,-1
 73 621 l 1,14,15
 110 658 110 658 165 658 c 0,16,17
 246 658 246 658 246 563 c 1,18,-1
 245 473 l 1,19,-1
 277 462 l 1,20,-1
 271 438 l 1,21,-1
 221 431 l 1,22,-1
 208 435 l 1,23,-1
 194 449 l 1,0,1
157 474 m 0,24,25
 177 474 177 474 189 480 c 1,26,-1
 189 525 l 1,27,28
 142 520 142 520 128 510 c 1,29,30
 126 474 126 474 157 474 c 0,24,25
56 327 m 1,31,-1
 68 366 l 1,32,-1
 279 370 l 1,33,-1
 290 358 l 1,34,-1
 279 312 l 1,35,36
 97 315 97 315 67 315 c 1,37,-1
 56 327 l 1,31,-1
EndSplineSet
EndChar

StartChar: guillemotleft
Encoding: 171 171 109
Width: 536
GlyphClass: 2
Flags: W
LayerCount: 2
Fore
SplineSet
263 6 m 1,0,-1
 24 208 l 1,1,-1
 24 242 l 1,2,-1
 263 444 l 1,3,-1
 294 412 l 1,4,-1
 125 225 l 1,5,-1
 294 38 l 1,6,-1
 263 6 l 1,0,-1
464 18 m 1,7,-1
 261 211 l 1,8,-1
 261 239 l 1,9,-1
 464 432 l 1,10,-1
 498 405 l 1,11,-1
 356 225 l 1,12,-1
 498 45 l 1,13,-1
 464 18 l 1,7,-1
EndSplineSet
EndChar

StartChar: logicalnot
Encoding: 172 172 110
Width: 578
GlyphClass: 2
Flags: W
LayerCount: 2
Fore
SplineSet
61 319 m 1,0,-1
 73 364 l 1,1,-1
 498 366 l 1,2,-1
 509 354 l 1,3,-1
 511 168 l 1,4,-1
 464 157 l 1,5,-1
 452 168 l 1,6,7
 453 206 453 206 454 305 c 1,8,9
 254 307 254 307 72 307 c 1,10,-1
 61 319 l 1,0,-1
EndSplineSet
EndChar

StartChar: registered
Encoding: 174 174 111
Width: 830
GlyphClass: 2
Flags: W
LayerCount: 2
Fore
SplineSet
148.5 57.5 m 128,-1,1
 43 154 43 154 43 322 c 128,-1,2
 43 490 43 490 152.5 589.5 c 128,-1,3
 262 689 262 689 419 689 c 128,-1,4
 576 689 576 689 681.5 592.5 c 128,-1,5
 787 496 787 496 787 328 c 128,-1,6
 787 160 787 160 678 60.5 c 128,-1,7
 569 -39 569 -39 411.5 -39 c 128,-1,0
 254 -39 254 -39 148.5 57.5 c 128,-1,1
201.5 551 m 128,-1,9
 121 469 121 469 121 326.5 c 128,-1,10
 121 184 121 184 204.5 100.5 c 128,-1,11
 288 17 288 17 418.5 17 c 128,-1,12
 549 17 549 17 629 99.5 c 128,-1,13
 709 182 709 182 709 324 c 128,-1,14
 709 466 709 466 626.5 549.5 c 128,-1,15
 544 633 544 633 413 633 c 128,-1,8
 282 633 282 633 201.5 551 c 128,-1,9
394 297 m 2,16,-1
 362 297 l 1,17,-1
 362 175 l 1,18,19
 388 164 388 164 410 152 c 1,20,-1
 407 133 l 1,21,-1
 249 133 l 1,22,-1
 244 152 l 1,23,-1
 278 167 l 2,24,25
 297 176 297 176 297 188 c 2,26,-1
 297 478 l 1,27,-1
 244 500 l 1,28,-1
 249 519 l 1,29,30
 358 525 358 525 398 525 c 0,31,32
 555 525 555 525 555 412 c 0,33,34
 555 370 555 370 532.5 343 c 128,-1,35
 510 316 510 316 474 307 c 1,36,37
 476 299 476 299 502 248 c 0,38,39
 550 156 550 156 595 156 c 0,40,41
 596 156 596 156 597 156 c 2,42,-1
 593 133 l 1,43,-1
 507 129 l 1,44,45
 475 147 475 147 411 284 c 0,46,47
 411 285 411 285 410 287 c 128,-1,48
 409 289 409 289 408.5 290.5 c 128,-1,49
 408 292 408 292 406 294 c 0,50,51
 401 297 401 297 394 297 c 2,16,-1
362 471 m 2,52,-1
 362 338 l 1,53,-1
 400 338 l 2,54,55
 444 338 444 338 463 347 c 1,56,-1
 463 346 l 1,57,58
 480 361 480 361 480 399 c 0,59,60
 480 484 480 484 407 484 c 2,61,-1
 376 484 l 2,62,63
 362 484 362 484 362 471 c 2,52,-1
EndSplineSet
EndChar

StartChar: degree
Encoding: 176 176 112
Width: 336
GlyphClass: 2
Flags: W
LayerCount: 2
Fore
SplineSet
110 538 m 0,0,1
 110 457 110 457 173 457 c 0,2,3
 190 457 190 457 206 463 c 1,4,5
 226 483 226 483 226 530 c 0,6,7
 226 611 226 611 163 611 c 0,8,9
 146 611 146 611 130 605 c 1,10,11
 110 585 110 585 110 538 c 0,0,1
75 445 m 128,-1,13
 43 480 43 480 43 536.5 c 128,-1,14
 43 593 43 593 78 625.5 c 128,-1,15
 113 658 113 658 170.5 658 c 128,-1,16
 228 658 228 658 260.5 622.5 c 128,-1,17
 293 587 293 587 293 532 c 128,-1,18
 293 477 293 477 258 443.5 c 128,-1,19
 223 410 223 410 165 410 c 128,-1,12
 107 410 107 410 75 445 c 128,-1,13
EndSplineSet
EndChar

StartChar: plusminus
Encoding: 177 177 113
Width: 466
GlyphClass: 2
Flags: W
LayerCount: 2
Fore
SplineSet
205 446 m 1,0,-1
 205 585 l 1,1,-1
 250 597 l 1,2,-1
 262 586 l 1,3,-1
 262 446 l 1,4,-1
 396 448 l 1,5,-1
 407 436 l 1,6,-1
 396 387 l 1,7,8
 333 387 333 387 263 388 c 1,9,-1
 264 250 l 1,10,-1
 215 239 l 1,11,-1
 203 250 l 1,12,13
 204 304 204 304 204 388 c 1,14,15
 141 389 141 389 70 389 c 1,16,-1
 59 401 l 1,17,-1
 71 446 l 1,18,-1
 205 446 l 1,0,-1
64 98 m 1,19,-1
 76 143 l 1,20,-1
 391 145 l 1,21,-1
 402 133 l 1,22,-1
 391 84 l 1,23,24
 106 86 106 86 75 86 c 1,25,-1
 64 98 l 1,19,-1
EndSplineSet
EndChar

StartChar: twosuperior
Encoding: 178 178 114
Width: 326
GlyphClass: 2
Flags: W
LayerCount: 2
Fore
SplineSet
163 472.5 m 128,-1,1
 193 511 193 511 193 540 c 0,2,3
 193 596 193 596 149 596 c 0,4,5
 136 596 136 596 124 591 c 1,6,-1
 121 552 l 1,7,-1
 91 545 l 1,8,-1
 51 597 l 1,9,10
 66 616 66 616 100.5 631.5 c 128,-1,11
 135 647 135 647 169.5 647 c 128,-1,12
 204 647 204 647 231.5 620.5 c 128,-1,13
 259 594 259 594 259 550.5 c 128,-1,14
 259 507 259 507 228.5 468.5 c 128,-1,15
 198 430 198 430 140 383 c 1,16,-1
 219 383 l 1,17,-1
 245 425 l 1,18,-1
 273 418 l 1,19,-1
 268 333 l 1,20,-1
 61 333 l 1,21,-1
 54 369 l 1,22,0
 133 434 133 434 163 472.5 c 128,-1,1
EndSplineSet
EndChar

StartChar: threesuperior
Encoding: 179 179 115
Width: 301
GlyphClass: 2
Flags: W
LayerCount: 2
Fore
SplineSet
222 623 m 128,-1,1
 247 599 247 599 247 556.5 c 128,-1,2
 247 514 247 514 217 486 c 1,3,4
 252 455 252 455 252 418 c 128,-1,5
 252 381 252 381 216.5 354.5 c 128,-1,6
 181 328 181 328 116 328 c 0,7,8
 85 328 85 328 61 334 c 1,9,-1
 56 348 l 1,10,-1
 65 387 l 1,11,12
 100 377 100 377 132 377 c 128,-1,13
 164 377 164 377 189 387 c 1,14,15
 193 399 193 399 193 414 c 0,16,17
 193 452 193 452 159 463 c 1,18,19
 114 463 114 463 105 466 c 1,20,-1
 98 475 l 1,21,-1
 102 502 l 2,22,23
 103 502 103 502 162 506 c 1,24,25
 191 520 191 520 191 552 c 0,26,27
 191 571 191 571 177 585.5 c 128,-1,28
 163 600 163 600 144.5 600 c 128,-1,29
 126 600 126 600 111 595 c 1,30,-1
 108 555 l 1,31,-1
 87 550 l 1,32,-1
 50 603 l 1,33,34
 94 647 94 647 145.5 647 c 128,-1,0
 197 647 197 647 222 623 c 128,-1,1
EndSplineSet
EndChar

StartChar: acute
Encoding: 180 180 116
Width: 293
GlyphClass: 2
Flags: W
LayerCount: 2
Fore
SplineSet
40 572 m 1,0,-1
 212 695 l 1,1,-1
 253 643 l 1,2,-1
 249 623 l 1,3,-1
 53 552 l 1,4,-1
 40 572 l 1,0,-1
EndSplineSet
EndChar

StartChar: mu
Encoding: 181 181 117
AltUni2: 0003bc.ffffffff.0
Width: 566
GlyphClass: 2
Flags: W
LayerCount: 2
Fore
SplineSet
251 -8 m 0,0,1
 210 -8 210 -8 178 6 c 1,2,-1
 184 -238 l 1,3,-1
 108 -238 l 1,4,-1
 96 -227 l 1,5,6
 107 -50 107 -50 107 57 c 2,7,-1
 107 378 l 1,8,-1
 37 389 l 1,9,-1
 31 411 l 1,10,-1
 168 458 l 1,11,-1
 188 450 l 1,12,-1
 188 157 l 2,13,14
 188 106 188 106 211.5 83.5 c 128,-1,15
 235 61 235 61 287 61 c 128,-1,16
 339 61 339 61 391 74 c 1,17,-1
 391 378 l 1,18,-1
 321 389 l 1,19,-1
 315 411 l 1,20,-1
 452 458 l 1,21,-1
 472 450 l 1,22,-1
 472 54 l 1,23,-1
 541 30 l 1,24,-1
 535 8 l 1,25,-1
 450 -8 l 1,26,-1
 430 0 l 1,27,-1
 398 28 l 1,28,-1
 393 30 l 1,29,30
 324 -8 324 -8 251 -8 c 0,0,1
EndSplineSet
EndChar

StartChar: paragraph
Encoding: 182 182 118
Width: 497
GlyphClass: 2
Flags: W
LayerCount: 2
Fore
SplineSet
100 15 m 1,0,1
 165 -17 165 -17 226 -17 c 0,2,3
 242 -17 242 -17 263.5 -14 c 128,-1,4
 285 -11 285 -11 291 -7 c 1,5,6
 306 21 306 21 306 105 c 2,7,-1
 306 266 l 1,8,9
 297 265 297 265 274 265 c 0,10,11
 174 265 174 265 106 316.5 c 128,-1,12
 38 368 38 368 38 465 c 128,-1,13
 38 562 38 562 107 609.5 c 128,-1,14
 176 657 176 657 290 657 c 0,15,16
 336 657 336 657 465 650 c 1,17,-1
 471 628 l 1,18,-1
 416 605 l 2,19,20
 394 596 394 596 384.5 588.5 c 128,-1,21
 375 581 375 581 375 567 c 2,22,-1
 375 124 l 2,23,24
 375 28 375 28 329 -24.5 c 128,-1,25
 283 -77 283 -77 202 -77 c 0,26,27
 162 -77 162 -77 130.5 -68 c 128,-1,28
 99 -59 99 -59 91 -53 c 1,29,-1
 80 -34 l 1,30,-1
 100 15 l 1,0,1
EndSplineSet
EndChar

StartChar: periodcentered
Encoding: 183 183 119
Width: 228
GlyphClass: 2
Flags: W
LayerCount: 2
Fore
SplineSet
74.5 180.5 m 128,-1,1
 59 196 59 196 59 219.5 c 128,-1,2
 59 243 59 243 74.5 259 c 128,-1,3
 90 275 90 275 113.5 275 c 128,-1,4
 137 275 137 275 153 259 c 128,-1,5
 169 243 169 243 169 219.5 c 128,-1,6
 169 196 169 196 153 180.5 c 128,-1,7
 137 165 137 165 113.5 165 c 128,-1,0
 90 165 90 165 74.5 180.5 c 128,-1,1
EndSplineSet
EndChar

StartChar: cedilla
Encoding: 184 184 120
Width: 357
GlyphClass: 2
Flags: W
LayerCount: 2
Fore
SplineSet
100 -187 m 1,0,1
 123 -196 123 -196 150.5 -196 c 128,-1,2
 178 -196 178 -196 199 -189 c 1,3,4
 208 -175 208 -175 208 -154 c 0,5,6
 208 -99 208 -99 146 -99 c 0,7,8
 141 -99 141 -99 135 -99 c 1,9,-1
 124 -86 l 1,10,-1
 154 18 l 1,11,-1
 185 18 l 1,12,-1
 180 -68 l 1,13,14
 217 -70 217 -70 242 -91 c 128,-1,15
 267 -112 267 -112 267 -148.5 c 128,-1,16
 267 -185 267 -185 234.5 -211.5 c 128,-1,17
 202 -238 202 -238 157.5 -238 c 128,-1,18
 113 -238 113 -238 97 -230 c 1,19,-1
 90 -220 l 1,20,-1
 100 -187 l 1,0,1
EndSplineSet
EndChar

StartChar: onesuperior
Encoding: 185 185 121
Width: 254
GlyphClass: 2
Flags: W
LayerCount: 2
Fore
SplineSet
104 379 m 2,0,-1
 104 575 l 1,1,-1
 56 569 l 1,2,-1
 51 592 l 1,3,-1
 144 646 l 1,4,-1
 168 639 l 1,5,-1
 168 373 l 1,6,-1
 212 352 l 1,7,-1
 206 333 l 1,8,-1
 60 333 l 1,9,-1
 55 356 l 1,10,-1
 100 373 l 2,11,12
 104 374 104 374 104 379 c 2,0,-1
EndSplineSet
EndChar

StartChar: ordmasculine
Encoding: 186 186 122
Width: 358
GlyphClass: 2
Flags: W
LayerCount: 2
Fore
SplineSet
64 327 m 1,0,-1
 76 366 l 1,1,-1
 283 370 l 1,2,-1
 294 358 l 1,3,-1
 283 312 l 1,4,5
 105 315 105 315 75 315 c 1,6,-1
 64 327 l 1,0,-1
131 547 m 0,7,8
 131 477 131 477 184 477 c 0,9,10
 198 477 198 477 211 482 c 1,11,12
 227 498 227 498 227 541 c 0,13,14
 227 611 227 611 174 611 c 0,15,16
 160 611 160 611 147 606 c 1,17,18
 131 590 131 590 131 547 c 0,7,8
95 463.5 m 128,-1,20
 64 497 64 497 64 546 c 128,-1,21
 64 595 64 595 97.5 626.5 c 128,-1,22
 131 658 131 658 181.5 658 c 128,-1,23
 232 658 232 658 263 624 c 128,-1,24
 294 590 294 590 294 542 c 128,-1,25
 294 494 294 494 260.5 462 c 128,-1,26
 227 430 227 430 176.5 430 c 128,-1,19
 126 430 126 430 95 463.5 c 128,-1,20
EndSplineSet
EndChar

StartChar: guillemotright
Encoding: 187 187 123
Width: 536
GlyphClass: 2
Flags: W
LayerCount: 2
Fore
SplineSet
512 208 m 1,0,-1
 273 6 l 1,1,-1
 242 38 l 1,2,-1
 411 225 l 1,3,-1
 242 412 l 1,4,-1
 273 444 l 1,5,-1
 512 242 l 1,6,-1
 512 208 l 1,0,-1
275 211 m 1,7,-1
 72 18 l 1,8,-1
 38 45 l 1,9,-1
 180 225 l 1,10,-1
 38 405 l 1,11,-1
 72 432 l 1,12,-1
 275 239 l 1,13,-1
 275 211 l 1,7,-1
EndSplineSet
EndChar

StartChar: onequarter
Encoding: 188 188 124
Width: 638
GlyphClass: 2
Flags: W
LayerCount: 2
Fore
SplineSet
564 296 m 128,-1,1
 589 272 589 272 589 229.5 c 128,-1,2
 589 187 589 187 559 159 c 1,3,4
 594 128 594 128 594 91 c 128,-1,5
 594 54 594 54 558.5 27.5 c 128,-1,6
 523 1 523 1 458 1 c 0,7,8
 427 1 427 1 403 7 c 1,9,-1
 398 21 l 1,10,-1
 407 60 l 1,11,12
 442 50 442 50 474 50 c 128,-1,13
 506 50 506 50 531 60 c 1,14,15
 535 72 535 72 535 87 c 0,16,17
 535 125 535 125 501 136 c 1,18,19
 456 136 456 136 447 139 c 1,20,-1
 440 148 l 1,21,-1
 444 175 l 2,22,23
 445 175 445 175 504 179 c 1,24,25
 533 193 533 193 533 225 c 0,26,27
 533 244 533 244 519 258.5 c 128,-1,28
 505 273 505 273 486.5 273 c 128,-1,29
 468 273 468 273 453 268 c 1,30,-1
 450 228 l 1,31,-1
 429 223 l 1,32,-1
 392 276 l 1,33,34
 436 320 436 320 487.5 320 c 128,-1,0
 539 320 539 320 564 296 c 128,-1,1
105 379 m 2,35,-1
 105 575 l 1,36,-1
 57 569 l 1,37,-1
 52 592 l 1,38,-1
 145 646 l 1,39,-1
 169 639 l 1,40,-1
 169 373 l 1,41,-1
 213 352 l 1,42,-1
 207 333 l 1,43,-1
 61 333 l 1,44,-1
 56 356 l 1,45,-1
 101 373 l 2,46,47
 105 374 105 374 105 379 c 2,35,-1
562 630 m 1,48,-1
 574 619 l 1,49,50
 332 312 332 312 116 19 c 1,51,-1
 52 4 l 1,52,-1
 40 15 l 1,53,54
 282 322 282 322 498 615 c 1,55,-1
 562 630 l 1,48,-1
EndSplineSet
EndChar

StartChar: onehalf
Encoding: 189 189 125
Width: 639
GlyphClass: 2
Flags: W
LayerCount: 2
Fore
SplineSet
105 379 m 2,0,-1
 105 575 l 1,1,-1
 57 569 l 1,2,-1
 52 592 l 1,3,-1
 145 646 l 1,4,-1
 169 639 l 1,5,-1
 169 373 l 1,6,-1
 213 352 l 1,7,-1
 207 333 l 1,8,-1
 61 333 l 1,9,-1
 56 356 l 1,10,-1
 101 373 l 2,11,12
 105 374 105 374 105 379 c 2,0,-1
488 142.5 m 128,-1,14
 518 181 518 181 518 210 c 0,15,16
 518 266 518 266 474 266 c 0,17,18
 461 266 461 266 449 261 c 1,19,-1
 446 222 l 1,20,-1
 416 215 l 1,21,-1
 376 267 l 1,22,23
 391 286 391 286 425.5 301.5 c 128,-1,24
 460 317 460 317 494.5 317 c 128,-1,25
 529 317 529 317 556.5 290.5 c 128,-1,26
 584 264 584 264 584 220.5 c 128,-1,27
 584 177 584 177 553.5 138.5 c 128,-1,28
 523 100 523 100 465 53 c 1,29,-1
 544 53 l 1,30,-1
 570 95 l 1,31,-1
 598 88 l 1,32,-1
 593 3 l 1,33,-1
 386 3 l 1,34,-1
 379 39 l 1,35,13
 458 104 458 104 488 142.5 c 128,-1,14
562 630 m 1,36,-1
 574 619 l 1,37,38
 332 312 332 312 116 19 c 1,39,-1
 52 4 l 1,40,-1
 40 15 l 1,41,42
 282 322 282 322 498 615 c 1,43,-1
 562 630 l 1,36,-1
EndSplineSet
EndChar

StartChar: threequarters
Encoding: 190 190 126
Width: 605
GlyphClass: 2
Flags: W
LayerCount: 2
Fore
SplineSet
439 82 m 1,0,-1
 317 82 l 1,1,-1
 312 112 l 1,2,-1
 440 308 l 1,3,-1
 477 319 l 1,4,-1
 496 313 l 1,5,6
 496 238 496 238 498 128 c 1,7,-1
 537 129 l 1,8,-1
 544 120 l 1,9,-1
 541 82 l 1,10,-1
 498 82 l 1,11,-1
 499 4 l 1,12,-1
 447 0 l 1,13,-1
 438 8 l 1,14,15
 439 38 439 38 439 82 c 1,0,-1
439 126 m 1,16,-1
 440 225 l 1,17,-1
 377 126 l 1,18,-1
 439 126 l 1,16,-1
107 379 m 2,19,-1
 107 575 l 1,20,-1
 59 569 l 1,21,-1
 54 592 l 1,22,-1
 147 646 l 1,23,-1
 171 639 l 1,24,-1
 171 373 l 1,25,-1
 215 352 l 1,26,-1
 209 333 l 1,27,-1
 63 333 l 1,28,-1
 58 356 l 1,29,-1
 103 373 l 2,30,31
 107 374 107 374 107 379 c 2,19,-1
564 630 m 1,32,-1
 576 619 l 1,33,34
 334 312 334 312 118 19 c 1,35,-1
 54 4 l 1,36,-1
 42 15 l 1,37,38
 284 322 284 322 500 615 c 1,39,-1
 564 630 l 1,32,-1
EndSplineSet
EndChar

StartChar: questiondown
Encoding: 191 191 127
Width: 386
GlyphClass: 2
Flags: W
LayerCount: 2
Fore
SplineSet
144 60 m 128,-1,1
 106 28 106 28 106 -32.5 c 128,-1,2
 106 -93 106 -93 139 -122 c 1,3,4
 171 -134 171 -134 233 -134 c 128,-1,5
 295 -134 295 -134 348 -117 c 1,6,-1
 359 -171 l 1,7,-1
 348 -189 l 1,8,9
 312 -207 312 -207 251 -207 c 0,10,11
 155 -207 155 -207 91.5 -158 c 128,-1,12
 28 -109 28 -109 28 -30.5 c 128,-1,13
 28 48 28 48 76 95 c 128,-1,14
 124 142 124 142 218 183 c 1,15,-1
 226 269 l 1,16,-1
 264 271 l 1,17,-1
 278 133 l 1,18,0
 182 92 182 92 144 60 c 128,-1,1
294 403 m 128,-1,20
 294 379 294 379 278.5 363.5 c 128,-1,21
 263 348 263 348 239 348 c 128,-1,22
 215 348 215 348 199.5 364 c 128,-1,23
 184 380 184 380 184 403 c 128,-1,24
 184 426 184 426 200 442 c 128,-1,25
 216 458 216 458 239.5 458 c 128,-1,26
 263 458 263 458 278.5 442.5 c 128,-1,19
 294 427 294 427 294 403 c 128,-1,20
EndSplineSet
EndChar

StartChar: Agrave
Encoding: 192 192 128
Width: 636
GlyphClass: 2
Flags: W
LayerCount: 2
Fore
SplineSet
467 70 m 0,0,1
 467 76 467 76 464 83 c 2,2,-1
 419 210 l 1,3,-1
 187 210 l 1,4,-1
 134 57 l 1,5,-1
 220 22 l 1,6,-1
 214 0 l 1,7,-1
 -7 0 l 1,8,-1
 -13 22 l 1,9,-1
 42 45 l 2,10,11
 59 52 59 52 63.5 58 c 128,-1,12
 68 64 68 64 75 83 c 2,13,-1
 275 640 l 1,14,-1
 336 658 l 1,15,-1
 356 650 l 1,16,-1
 571 54 l 1,17,-1
 649 22 l 1,18,-1
 643 0 l 1,19,-1
 398 0 l 1,20,-1
 392 22 l 1,21,-1
 447 45 l 2,22,23
 467 53 467 53 467 70 c 0,0,1
302 542 m 1,24,-1
 204 261 l 1,25,-1
 401 261 l 1,26,-1
 302 542 l 1,24,-1
392 722 m 1,27,-1
 181 799 l 1,28,-1
 224 854 l 1,29,-1
 244 858 l 1,30,-1
 405 742 l 1,31,-1
 392 722 l 1,27,-1
EndSplineSet
EndChar

StartChar: Aacute
Encoding: 193 193 129
Width: 636
GlyphClass: 2
Flags: W
LayerCount: 2
Fore
SplineSet
467 70 m 0,0,1
 467 76 467 76 464 83 c 2,2,-1
 419 210 l 1,3,-1
 187 210 l 1,4,-1
 134 57 l 1,5,-1
 220 22 l 1,6,-1
 214 0 l 1,7,-1
 -7 0 l 1,8,-1
 -13 22 l 1,9,-1
 42 45 l 2,10,11
 59 52 59 52 63.5 58 c 128,-1,12
 68 64 68 64 75 83 c 2,13,-1
 275 640 l 1,14,-1
 336 658 l 1,15,-1
 356 650 l 1,16,-1
 571 54 l 1,17,-1
 649 22 l 1,18,-1
 643 0 l 1,19,-1
 398 0 l 1,20,-1
 392 22 l 1,21,-1
 447 45 l 2,22,23
 467 53 467 53 467 70 c 0,0,1
302 542 m 1,24,-1
 204 261 l 1,25,-1
 401 261 l 1,26,-1
 302 542 l 1,24,-1
217 742 m 1,27,-1
 389 865 l 1,28,-1
 430 813 l 1,29,-1
 426 793 l 1,30,-1
 230 722 l 1,31,-1
 217 742 l 1,27,-1
EndSplineSet
EndChar

StartChar: Acircumflex
Encoding: 194 194 130
Width: 636
GlyphClass: 2
Flags: W
LayerCount: 2
Fore
SplineSet
467 70 m 0,0,1
 467 76 467 76 464 83 c 2,2,-1
 419 210 l 1,3,-1
 187 210 l 1,4,-1
 134 57 l 1,5,-1
 220 22 l 1,6,-1
 214 0 l 1,7,-1
 -7 0 l 1,8,-1
 -13 22 l 1,9,-1
 42 45 l 2,10,11
 59 52 59 52 63.5 58 c 128,-1,12
 68 64 68 64 75 83 c 2,13,-1
 275 640 l 1,14,-1
 336 658 l 1,15,-1
 356 650 l 1,16,-1
 571 54 l 1,17,-1
 649 22 l 1,18,-1
 643 0 l 1,19,-1
 398 0 l 1,20,-1
 392 22 l 1,21,-1
 447 45 l 2,22,23
 467 53 467 53 467 70 c 0,0,1
302 542 m 1,24,-1
 204 261 l 1,25,-1
 401 261 l 1,26,-1
 302 542 l 1,24,-1
178 747 m 1,27,-1
 298 858 l 1,28,-1
 338 858 l 1,29,-1
 458 747 l 1,30,-1
 439 728 l 1,31,-1
 318 787 l 1,32,-1
 197 728 l 1,33,-1
 178 747 l 1,27,-1
EndSplineSet
EndChar

StartChar: Atilde
Encoding: 195 195 131
Width: 636
GlyphClass: 2
Flags: W
LayerCount: 2
Fore
SplineSet
467 70 m 0,0,1
 467 76 467 76 464 83 c 2,2,-1
 419 210 l 1,3,-1
 187 210 l 1,4,-1
 134 57 l 1,5,-1
 220 22 l 1,6,-1
 214 0 l 1,7,-1
 -7 0 l 1,8,-1
 -13 22 l 1,9,-1
 42 45 l 2,10,11
 59 52 59 52 63.5 58 c 128,-1,12
 68 64 68 64 75 83 c 2,13,-1
 275 640 l 1,14,-1
 336 658 l 1,15,-1
 356 650 l 1,16,-1
 571 54 l 1,17,-1
 649 22 l 1,18,-1
 643 0 l 1,19,-1
 398 0 l 1,20,-1
 392 22 l 1,21,-1
 447 45 l 2,22,23
 467 53 467 53 467 70 c 0,0,1
302 542 m 1,24,-1
 204 261 l 1,25,-1
 401 261 l 1,26,-1
 302 542 l 1,24,-1
405 801 m 2,27,28
 405 801 405 801 406 801 c 2,29,-1
 461 848 l 1,30,-1
 478 837 l 1,31,-1
 426 738 l 1,32,-1
 406 733 l 1,33,34
 380 733 380 733 314 759 c 128,-1,35
 248 785 248 785 231 785 c 2,36,37
 231 785 231 785 230 785 c 2,38,-1
 175 738 l 1,39,-1
 158 749 l 1,40,-1
 210 848 l 1,41,-1
 230 853 l 1,42,43
 256 853 256 853 322 827 c 128,-1,44
 388 801 388 801 405 801 c 2,27,28
EndSplineSet
EndChar

StartChar: Adieresis
Encoding: 196 196 132
Width: 636
GlyphClass: 2
Flags: W
LayerCount: 2
Fore
SplineSet
467 70 m 0,0,1
 467 76 467 76 464 83 c 2,2,-1
 419 210 l 1,3,-1
 187 210 l 1,4,-1
 134 57 l 1,5,-1
 220 22 l 1,6,-1
 214 0 l 1,7,-1
 -7 0 l 1,8,-1
 -13 22 l 1,9,-1
 42 45 l 2,10,11
 59 52 59 52 63.5 58 c 128,-1,12
 68 64 68 64 75 83 c 2,13,-1
 275 640 l 1,14,-1
 336 658 l 1,15,-1
 356 650 l 1,16,-1
 571 54 l 1,17,-1
 649 22 l 1,18,-1
 643 0 l 1,19,-1
 398 0 l 1,20,-1
 392 22 l 1,21,-1
 447 45 l 2,22,23
 467 53 467 53 467 70 c 0,0,1
302 542 m 1,24,-1
 204 261 l 1,25,-1
 401 261 l 1,26,-1
 302 542 l 1,24,-1
179.5 747.5 m 128,-1,28
 164 763 164 763 164 786.5 c 128,-1,29
 164 810 164 810 179.5 826 c 128,-1,30
 195 842 195 842 218.5 842 c 128,-1,31
 242 842 242 842 258 826 c 128,-1,32
 274 810 274 810 274 786.5 c 128,-1,33
 274 763 274 763 258 747.5 c 128,-1,34
 242 732 242 732 218.5 732 c 128,-1,27
 195 732 195 732 179.5 747.5 c 128,-1,28
377.5 747.5 m 128,-1,36
 362 763 362 763 362 786.5 c 128,-1,37
 362 810 362 810 377.5 826 c 128,-1,38
 393 842 393 842 416.5 842 c 128,-1,39
 440 842 440 842 456 826 c 128,-1,40
 472 810 472 810 472 786.5 c 128,-1,41
 472 763 472 763 456 747.5 c 128,-1,42
 440 732 440 732 416.5 732 c 128,-1,35
 393 732 393 732 377.5 747.5 c 128,-1,36
EndSplineSet
EndChar

StartChar: Aring
Encoding: 197 197 133
Width: 636
GlyphClass: 2
Flags: W
LayerCount: 2
Fore
SplineSet
467 70 m 0,0,1
 467 76 467 76 464 83 c 2,2,-1
 419 210 l 1,3,-1
 187 210 l 1,4,-1
 134 57 l 1,5,-1
 220 22 l 1,6,-1
 214 0 l 1,7,-1
 -7 0 l 1,8,-1
 -13 22 l 1,9,-1
 42 45 l 2,10,11
 59 52 59 52 63.5 58 c 128,-1,12
 68 64 68 64 75 83 c 2,13,-1
 275 640 l 1,14,-1
 336 658 l 1,15,-1
 356 650 l 1,16,-1
 571 54 l 1,17,-1
 649 22 l 1,18,-1
 643 0 l 1,19,-1
 398 0 l 1,20,-1
 392 22 l 1,21,-1
 447 45 l 2,22,23
 467 53 467 53 467 70 c 0,0,1
302 542 m 1,24,-1
 204 261 l 1,25,-1
 401 261 l 1,26,-1
 302 542 l 1,24,-1
279 796 m 0,27,28
 279 743 279 743 322 743 c 0,29,30
 335 743 335 743 342 748 c 0,31,32
 357 759 357 759 357 790 c 0,33,34
 357 843 357 843 314 843 c 0,35,36
 301 843 301 843 294 838 c 0,37,38
 279 827 279 827 279 796 c 0,27,28
247.5 730 m 128,-1,40
 222 753 222 753 222 792.5 c 128,-1,41
 222 832 222 832 249.5 855.5 c 128,-1,42
 277 879 277 879 319.5 879 c 128,-1,43
 362 879 362 879 388 855.5 c 128,-1,44
 414 832 414 832 414 793 c 128,-1,45
 414 754 414 754 386 730.5 c 128,-1,46
 358 707 358 707 315.5 707 c 128,-1,39
 273 707 273 707 247.5 730 c 128,-1,40
EndSplineSet
EndChar

StartChar: AE
Encoding: 198 198 134
Width: 860
GlyphClass: 2
Flags: W
LayerCount: 2
Fore
SplineSet
550 570 m 2,0,-1
 550 352 l 1,1,2
 623 352 623 352 714 360 c 1,3,-1
 745 362 l 1,4,-1
 756 350 l 1,5,-1
 745 298 l 1,6,7
 631 303 631 303 550 303 c 1,8,-1
 550 50 l 1,9,-1
 737 54 l 1,10,-1
 785 142 l 1,11,-1
 815 135 l 1,12,-1
 815 0 l 1,13,-1
 385 0 l 1,14,-1
 379 22 l 1,15,-1
 434 45 l 2,16,17
 452 52 452 52 458.5 60 c 128,-1,18
 465 68 465 68 465 83 c 2,19,-1
 465 203 l 1,20,-1
 237 203 l 1,21,-1
 151 57 l 1,22,-1
 237 22 l 1,23,-1
 231 0 l 1,24,-1
 -10 0 l 1,25,-1
 -16 22 l 1,26,-1
 39 45 l 2,27,28
 75 60 75 60 89 83 c 2,29,-1
 395 593 l 1,30,-1
 309 628 l 1,31,-1
 315 650 l 1,32,-1
 810 650 l 1,33,-1
 810 515 l 1,34,-1
 780 508 l 1,35,-1
 732 596 l 1,36,-1
 577 600 l 2,37,38
 550 600 550 600 550 570 c 2,0,-1
465 256 m 1,39,-1
 465 589 l 1,40,-1
 268 256 l 1,41,-1
 465 256 l 1,39,-1
EndSplineSet
EndChar

StartChar: Ccedilla
Encoding: 199 199 135
Width: 591
GlyphClass: 2
Flags: W
LayerCount: 2
Fore
SplineSet
254 -187 m 1,0,1
 277 -196 277 -196 304.5 -196 c 128,-1,2
 332 -196 332 -196 353 -189 c 1,3,4
 362 -175 362 -175 362 -154 c 0,5,6
 362 -99 362 -99 300 -99 c 0,7,8
 295 -99 295 -99 289 -99 c 1,9,-1
 278 -86 l 1,10,-1
 301 -4 l 1,11,12
 187 12 187 12 116.5 96.5 c 128,-1,13
 46 181 46 181 46 320 c 0,14,15
 46 482 46 482 139 570 c 128,-1,16
 232 658 232 658 362 658 c 0,17,18
 455 658 455 658 506 617 c 0,19,20
 542 589 542 589 555 567 c 1,21,-1
 490 477 l 1,22,-1
 466 484 l 1,23,-1
 461 578 l 1,24,25
 415 594 415 594 344.5 594 c 128,-1,26
 274 594 274 594 225 572 c 1,27,28
 135 488 135 488 135 334 c 0,29,30
 135 199 135 199 205 126.5 c 128,-1,31
 275 54 275 54 382 54 c 0,32,33
 463 54 463 54 549 97 c 1,34,-1
 564 68 l 1,35,36
 538 42 538 42 481.5 17 c 128,-1,37
 425 -8 425 -8 350 -8 c 2,38,-1
 337 -8 l 1,39,-1
 334 -68 l 1,40,41
 371 -70 371 -70 396 -91 c 128,-1,42
 421 -112 421 -112 421 -148.5 c 128,-1,43
 421 -185 421 -185 388.5 -211.5 c 128,-1,44
 356 -238 356 -238 311.5 -238 c 128,-1,45
 267 -238 267 -238 251 -230 c 1,46,-1
 244 -220 l 1,47,-1
 254 -187 l 1,0,1
EndSplineSet
EndChar

StartChar: Egrave
Encoding: 200 200 136
Width: 545
GlyphClass: 2
Flags: W
LayerCount: 2
Fore
SplineSet
205 568 m 2,0,-1
 205 352 l 1,1,2
 300 352 300 352 398 361 c 2,3,-1
 430 364 l 1,4,-1
 441 352 l 1,5,-1
 430 296 l 1,6,7
 311 303 311 303 205 303 c 1,8,-1
 205 52 l 1,9,-1
 422 56 l 1,10,-1
 470 144 l 1,11,-1
 500 137 l 1,12,-1
 500 0 l 1,13,-1
 40 0 l 1,14,-1
 34 22 l 1,15,-1
 89 45 l 2,16,17
 107 52 107 52 113.5 60 c 128,-1,18
 120 68 120 68 120 83 c 2,19,-1
 120 593 l 1,20,-1
 34 628 l 1,21,-1
 40 650 l 1,22,-1
 495 650 l 1,23,-1
 495 513 l 1,24,-1
 465 506 l 1,25,-1
 417 594 l 1,26,-1
 232 598 l 2,27,28
 205 598 205 598 205 568 c 2,0,-1
366 722 m 1,29,-1
 155 799 l 1,30,-1
 198 854 l 1,31,-1
 218 858 l 1,32,-1
 379 742 l 1,33,-1
 366 722 l 1,29,-1
EndSplineSet
EndChar

StartChar: Eacute
Encoding: 201 201 137
Width: 545
GlyphClass: 2
Flags: W
LayerCount: 2
Fore
SplineSet
205 568 m 2,0,-1
 205 352 l 1,1,2
 300 352 300 352 398 361 c 2,3,-1
 430 364 l 1,4,-1
 441 352 l 1,5,-1
 430 296 l 1,6,7
 311 303 311 303 205 303 c 1,8,-1
 205 52 l 1,9,-1
 422 56 l 1,10,-1
 470 144 l 1,11,-1
 500 137 l 1,12,-1
 500 0 l 1,13,-1
 40 0 l 1,14,-1
 34 22 l 1,15,-1
 89 45 l 2,16,17
 107 52 107 52 113.5 60 c 128,-1,18
 120 68 120 68 120 83 c 2,19,-1
 120 593 l 1,20,-1
 34 628 l 1,21,-1
 40 650 l 1,22,-1
 495 650 l 1,23,-1
 495 513 l 1,24,-1
 465 506 l 1,25,-1
 417 594 l 1,26,-1
 232 598 l 2,27,28
 205 598 205 598 205 568 c 2,0,-1
181 742 m 1,29,-1
 353 865 l 1,30,-1
 394 813 l 1,31,-1
 390 793 l 1,32,-1
 194 722 l 1,33,-1
 181 742 l 1,29,-1
EndSplineSet
EndChar

StartChar: Ecircumflex
Encoding: 202 202 138
Width: 545
GlyphClass: 2
Flags: W
LayerCount: 2
Fore
SplineSet
205 568 m 2,0,-1
 205 352 l 1,1,2
 300 352 300 352 398 361 c 2,3,-1
 430 364 l 1,4,-1
 441 352 l 1,5,-1
 430 296 l 1,6,7
 311 303 311 303 205 303 c 1,8,-1
 205 52 l 1,9,-1
 422 56 l 1,10,-1
 470 144 l 1,11,-1
 500 137 l 1,12,-1
 500 0 l 1,13,-1
 40 0 l 1,14,-1
 34 22 l 1,15,-1
 89 45 l 2,16,17
 107 52 107 52 113.5 60 c 128,-1,18
 120 68 120 68 120 83 c 2,19,-1
 120 593 l 1,20,-1
 34 628 l 1,21,-1
 40 650 l 1,22,-1
 495 650 l 1,23,-1
 495 513 l 1,24,-1
 465 506 l 1,25,-1
 417 594 l 1,26,-1
 232 598 l 2,27,28
 205 598 205 598 205 568 c 2,0,-1
147 747 m 1,29,-1
 267 858 l 1,30,-1
 307 858 l 1,31,-1
 427 747 l 1,32,-1
 408 728 l 1,33,-1
 287 787 l 1,34,-1
 166 728 l 1,35,-1
 147 747 l 1,29,-1
EndSplineSet
EndChar

StartChar: Edieresis
Encoding: 203 203 139
Width: 545
GlyphClass: 2
Flags: W
LayerCount: 2
Fore
SplineSet
205 568 m 2,0,-1
 205 352 l 1,1,2
 300 352 300 352 398 361 c 2,3,-1
 430 364 l 1,4,-1
 441 352 l 1,5,-1
 430 296 l 1,6,7
 311 303 311 303 205 303 c 1,8,-1
 205 52 l 1,9,-1
 422 56 l 1,10,-1
 470 144 l 1,11,-1
 500 137 l 1,12,-1
 500 0 l 1,13,-1
 40 0 l 1,14,-1
 34 22 l 1,15,-1
 89 45 l 2,16,17
 107 52 107 52 113.5 60 c 128,-1,18
 120 68 120 68 120 83 c 2,19,-1
 120 593 l 1,20,-1
 34 628 l 1,21,-1
 40 650 l 1,22,-1
 495 650 l 1,23,-1
 495 513 l 1,24,-1
 465 506 l 1,25,-1
 417 594 l 1,26,-1
 232 598 l 2,27,28
 205 598 205 598 205 568 c 2,0,-1
148.5 747.5 m 128,-1,30
 133 763 133 763 133 786.5 c 128,-1,31
 133 810 133 810 148.5 826 c 128,-1,32
 164 842 164 842 187.5 842 c 128,-1,33
 211 842 211 842 227 826 c 128,-1,34
 243 810 243 810 243 786.5 c 128,-1,35
 243 763 243 763 227 747.5 c 128,-1,36
 211 732 211 732 187.5 732 c 128,-1,29
 164 732 164 732 148.5 747.5 c 128,-1,30
346.5 747.5 m 128,-1,38
 331 763 331 763 331 786.5 c 128,-1,39
 331 810 331 810 346.5 826 c 128,-1,40
 362 842 362 842 385.5 842 c 128,-1,41
 409 842 409 842 425 826 c 128,-1,42
 441 810 441 810 441 786.5 c 128,-1,43
 441 763 441 763 425 747.5 c 128,-1,44
 409 732 409 732 385.5 732 c 128,-1,37
 362 732 362 732 346.5 747.5 c 128,-1,38
EndSplineSet
EndChar

StartChar: Igrave
Encoding: 204 204 140
Width: 325
GlyphClass: 2
Flags: W
LayerCount: 2
Fore
SplineSet
205 567 m 2,0,-1
 205 57 l 1,1,-1
 291 22 l 1,2,-1
 285 0 l 1,3,-1
 40 0 l 1,4,-1
 34 22 l 1,5,-1
 89 45 l 2,6,7
 107 52 107 52 113.5 60 c 128,-1,8
 120 68 120 68 120 83 c 2,9,-1
 120 593 l 1,10,-1
 34 628 l 1,11,-1
 40 650 l 1,12,-1
 285 650 l 1,13,-1
 291 628 l 1,14,-1
 236 605 l 2,15,16
 218 598 218 598 211.5 590 c 128,-1,17
 205 582 205 582 205 567 c 2,0,-1
251 722 m 1,18,-1
 40 799 l 1,19,-1
 83 854 l 1,20,-1
 103 858 l 1,21,-1
 264 742 l 1,22,-1
 251 722 l 1,18,-1
EndSplineSet
EndChar

StartChar: Iacute
Encoding: 205 205 141
Width: 325
GlyphClass: 2
Flags: W
LayerCount: 2
Fore
SplineSet
205 567 m 2,0,-1
 205 57 l 1,1,-1
 291 22 l 1,2,-1
 285 0 l 1,3,-1
 40 0 l 1,4,-1
 34 22 l 1,5,-1
 89 45 l 2,6,7
 107 52 107 52 113.5 60 c 128,-1,8
 120 68 120 68 120 83 c 2,9,-1
 120 593 l 1,10,-1
 34 628 l 1,11,-1
 40 650 l 1,12,-1
 285 650 l 1,13,-1
 291 628 l 1,14,-1
 236 605 l 2,15,16
 218 598 218 598 211.5 590 c 128,-1,17
 205 582 205 582 205 567 c 2,0,-1
56 742 m 1,18,-1
 228 865 l 1,19,-1
 269 813 l 1,20,-1
 265 793 l 1,21,-1
 69 722 l 1,22,-1
 56 742 l 1,18,-1
EndSplineSet
EndChar

StartChar: Icircumflex
Encoding: 206 206 142
Width: 325
GlyphClass: 2
Flags: W
LayerCount: 2
Fore
SplineSet
205 567 m 2,0,-1
 205 57 l 1,1,-1
 291 22 l 1,2,-1
 285 0 l 1,3,-1
 40 0 l 1,4,-1
 34 22 l 1,5,-1
 89 45 l 2,6,7
 107 52 107 52 113.5 60 c 128,-1,8
 120 68 120 68 120 83 c 2,9,-1
 120 593 l 1,10,-1
 34 628 l 1,11,-1
 40 650 l 1,12,-1
 285 650 l 1,13,-1
 291 628 l 1,14,-1
 236 605 l 2,15,16
 218 598 218 598 211.5 590 c 128,-1,17
 205 582 205 582 205 567 c 2,0,-1
22 747 m 1,18,-1
 142 858 l 1,19,-1
 182 858 l 1,20,-1
 302 747 l 1,21,-1
 283 728 l 1,22,-1
 162 787 l 1,23,-1
 41 728 l 1,24,-1
 22 747 l 1,18,-1
EndSplineSet
EndChar

StartChar: Idieresis
Encoding: 207 207 143
Width: 325
GlyphClass: 2
Flags: W
LayerCount: 2
Fore
SplineSet
205 567 m 2,0,-1
 205 57 l 1,1,-1
 291 22 l 1,2,-1
 285 0 l 1,3,-1
 40 0 l 1,4,-1
 34 22 l 1,5,-1
 89 45 l 2,6,7
 107 52 107 52 113.5 60 c 128,-1,8
 120 68 120 68 120 83 c 2,9,-1
 120 593 l 1,10,-1
 34 628 l 1,11,-1
 40 650 l 1,12,-1
 285 650 l 1,13,-1
 291 628 l 1,14,-1
 236 605 l 2,15,16
 218 598 218 598 211.5 590 c 128,-1,17
 205 582 205 582 205 567 c 2,0,-1
23.5 747.5 m 128,-1,19
 8 763 8 763 8 786.5 c 128,-1,20
 8 810 8 810 23.5 826 c 128,-1,21
 39 842 39 842 62.5 842 c 128,-1,22
 86 842 86 842 102 826 c 128,-1,23
 118 810 118 810 118 786.5 c 128,-1,24
 118 763 118 763 102 747.5 c 128,-1,25
 86 732 86 732 62.5 732 c 128,-1,18
 39 732 39 732 23.5 747.5 c 128,-1,19
221.5 747.5 m 128,-1,27
 206 763 206 763 206 786.5 c 128,-1,28
 206 810 206 810 221.5 826 c 128,-1,29
 237 842 237 842 260.5 842 c 128,-1,30
 284 842 284 842 300 826 c 128,-1,31
 316 810 316 810 316 786.5 c 128,-1,32
 316 763 316 763 300 747.5 c 128,-1,33
 284 732 284 732 260.5 732 c 128,-1,26
 237 732 237 732 221.5 747.5 c 128,-1,27
EndSplineSet
EndChar

StartChar: Eth
Encoding: 208 208 144
Width: 707
GlyphClass: 2
Flags: W
LayerCount: 2
Fore
SplineSet
121 350 m 1,0,-1
 121 593 l 1,1,-1
 35 628 l 1,2,-1
 41 650 l 1,3,4
 267 658 267 658 325 658 c 0,5,6
 659 658 659 658 659 316 c 0,7,8
 659 138 659 138 564 65.5 c 128,-1,9
 469 -7 469 -7 263 -7 c 0,10,11
 216 -7 216 -7 41 0 c 1,12,-1
 35 22 l 1,13,-1
 90 45 l 2,14,15
 108 52 108 52 114.5 60 c 128,-1,16
 121 68 121 68 121 83 c 2,17,-1
 121 298 l 1,18,19
 93 299 93 299 46 299 c 1,20,-1
 35 311 l 1,21,-1
 47 350 l 1,22,-1
 121 350 l 1,0,-1
340 603 m 2,23,-1
 233 603 l 2,24,25
 206 603 206 603 206 578 c 2,26,-1
 206 351 l 1,27,-1
 373 358 l 1,28,-1
 384 346 l 1,29,-1
 373 294 l 1,30,31
 292 296 292 296 206 297 c 1,32,-1
 206 53 l 1,33,34
 245 49 245 49 306 49 c 0,35,36
 438 49 438 49 504 92 c 1,37,38
 566 168 566 168 566 306.5 c 128,-1,39
 566 445 566 445 508 524 c 128,-1,40
 450 603 450 603 340 603 c 2,23,-1
EndSplineSet
EndChar

StartChar: Ntilde
Encoding: 209 209 145
Width: 740
GlyphClass: 2
Flags: W
LayerCount: 2
Fore
SplineSet
628 567 m 2,0,-1
 628 0 l 1,1,-1
 556 -8 l 1,2,-1
 186 518 l 1,3,-1
 186 57 l 1,4,-1
 272 22 l 1,5,-1
 266 0 l 1,6,-1
 40 0 l 1,7,-1
 34 22 l 1,8,-1
 89 45 l 2,9,10
 107 52 107 52 113.5 60 c 128,-1,11
 120 68 120 68 120 83 c 2,12,-1
 120 593 l 1,13,-1
 34 628 l 1,14,-1
 40 650 l 1,15,-1
 207 650 l 1,16,-1
 561 146 l 1,17,-1
 561 144 l 1,18,-1
 562 146 l 1,19,-1
 562 593 l 1,20,-1
 476 628 l 1,21,-1
 482 650 l 1,22,-1
 708 650 l 1,23,-1
 714 628 l 1,24,-1
 659 605 l 2,25,26
 641 598 641 598 634.5 590 c 128,-1,27
 628 582 628 582 628 567 c 2,0,-1
461 801 m 2,28,29
 461 801 461 801 462 801 c 2,30,-1
 517 848 l 1,31,-1
 534 837 l 1,32,-1
 482 738 l 1,33,-1
 462 733 l 1,34,35
 436 733 436 733 370 759 c 128,-1,36
 304 785 304 785 287 785 c 2,37,38
 287 785 287 785 286 785 c 2,39,-1
 231 738 l 1,40,-1
 214 749 l 1,41,-1
 266 848 l 1,42,-1
 286 853 l 1,43,44
 312 853 312 853 378 827 c 128,-1,45
 444 801 444 801 461 801 c 2,28,29
EndSplineSet
EndChar

StartChar: Ograve
Encoding: 210 210 146
Width: 705
GlyphClass: 2
Flags: W
LayerCount: 2
Fore
SplineSet
201 557 m 1,0,1
 139 472 139 472 139 338 c 128,-1,2
 139 204 139 204 195.5 129 c 128,-1,3
 252 54 252 54 359 54 c 0,4,5
 448 54 448 54 504 91 c 1,6,7
 566 167 566 167 566 305.5 c 128,-1,8
 566 444 566 444 509.5 519 c 128,-1,9
 453 594 453 594 347 594 c 0,10,11
 259 594 259 594 201 557 c 1,0,1
46 320 m 0,12,13
 46 404 46 404 72 470 c 128,-1,14
 98 536 98 536 142 576 c 0,15,16
 234 658 234 658 363.5 658 c 128,-1,17
 493 658 493 658 576 570 c 128,-1,18
 659 482 659 482 659 328 c 0,19,20
 659 244 659 244 633 178.5 c 128,-1,21
 607 113 607 113 562 73 c 0,22,23
 472 -8 472 -8 342 -8 c 128,-1,24
 212 -8 212 -8 129 79 c 128,-1,25
 46 166 46 166 46 320 c 0,12,13
436 722 m 1,26,-1
 225 799 l 1,27,-1
 268 854 l 1,28,-1
 288 858 l 1,29,-1
 449 742 l 1,30,-1
 436 722 l 1,26,-1
EndSplineSet
EndChar

StartChar: Oacute
Encoding: 211 211 147
Width: 705
GlyphClass: 2
Flags: W
LayerCount: 2
Fore
SplineSet
201 557 m 1,0,1
 139 472 139 472 139 338 c 128,-1,2
 139 204 139 204 195.5 129 c 128,-1,3
 252 54 252 54 359 54 c 0,4,5
 448 54 448 54 504 91 c 1,6,7
 566 167 566 167 566 305.5 c 128,-1,8
 566 444 566 444 509.5 519 c 128,-1,9
 453 594 453 594 347 594 c 0,10,11
 259 594 259 594 201 557 c 1,0,1
46 320 m 0,12,13
 46 404 46 404 72 470 c 128,-1,14
 98 536 98 536 142 576 c 0,15,16
 234 658 234 658 363.5 658 c 128,-1,17
 493 658 493 658 576 570 c 128,-1,18
 659 482 659 482 659 328 c 0,19,20
 659 244 659 244 633 178.5 c 128,-1,21
 607 113 607 113 562 73 c 0,22,23
 472 -8 472 -8 342 -8 c 128,-1,24
 212 -8 212 -8 129 79 c 128,-1,25
 46 166 46 166 46 320 c 0,12,13
246 742 m 1,26,-1
 418 865 l 1,27,-1
 459 813 l 1,28,-1
 455 793 l 1,29,-1
 259 722 l 1,30,-1
 246 742 l 1,26,-1
EndSplineSet
EndChar

StartChar: Ocircumflex
Encoding: 212 212 148
Width: 705
GlyphClass: 2
Flags: W
LayerCount: 2
Fore
SplineSet
201 557 m 1,0,1
 139 472 139 472 139 338 c 128,-1,2
 139 204 139 204 195.5 129 c 128,-1,3
 252 54 252 54 359 54 c 0,4,5
 448 54 448 54 504 91 c 1,6,7
 566 167 566 167 566 305.5 c 128,-1,8
 566 444 566 444 509.5 519 c 128,-1,9
 453 594 453 594 347 594 c 0,10,11
 259 594 259 594 201 557 c 1,0,1
46 320 m 0,12,13
 46 404 46 404 72 470 c 128,-1,14
 98 536 98 536 142 576 c 0,15,16
 234 658 234 658 363.5 658 c 128,-1,17
 493 658 493 658 576 570 c 128,-1,18
 659 482 659 482 659 328 c 0,19,20
 659 244 659 244 633 178.5 c 128,-1,21
 607 113 607 113 562 73 c 0,22,23
 472 -8 472 -8 342 -8 c 128,-1,24
 212 -8 212 -8 129 79 c 128,-1,25
 46 166 46 166 46 320 c 0,12,13
212 747 m 1,26,-1
 332 858 l 1,27,-1
 372 858 l 1,28,-1
 492 747 l 1,29,-1
 473 728 l 1,30,-1
 352 787 l 1,31,-1
 231 728 l 1,32,-1
 212 747 l 1,26,-1
EndSplineSet
EndChar

StartChar: Otilde
Encoding: 213 213 149
Width: 705
GlyphClass: 2
Flags: W
LayerCount: 2
Fore
SplineSet
201 557 m 1,0,1
 139 472 139 472 139 338 c 128,-1,2
 139 204 139 204 195.5 129 c 128,-1,3
 252 54 252 54 359 54 c 0,4,5
 448 54 448 54 504 91 c 1,6,7
 566 167 566 167 566 305.5 c 128,-1,8
 566 444 566 444 509.5 519 c 128,-1,9
 453 594 453 594 347 594 c 0,10,11
 259 594 259 594 201 557 c 1,0,1
46 320 m 0,12,13
 46 404 46 404 72 470 c 128,-1,14
 98 536 98 536 142 576 c 0,15,16
 234 658 234 658 363.5 658 c 128,-1,17
 493 658 493 658 576 570 c 128,-1,18
 659 482 659 482 659 328 c 0,19,20
 659 244 659 244 633 178.5 c 128,-1,21
 607 113 607 113 562 73 c 0,22,23
 472 -8 472 -8 342 -8 c 128,-1,24
 212 -8 212 -8 129 79 c 128,-1,25
 46 166 46 166 46 320 c 0,12,13
439 801 m 2,26,27
 439 801 439 801 440 801 c 2,28,-1
 495 848 l 1,29,-1
 512 837 l 1,30,-1
 460 738 l 1,31,-1
 440 733 l 1,32,33
 414 733 414 733 348 759 c 128,-1,34
 282 785 282 785 265 785 c 2,35,36
 265 785 265 785 264 785 c 2,37,-1
 209 738 l 1,38,-1
 192 749 l 1,39,-1
 244 848 l 1,40,-1
 264 853 l 1,41,42
 290 853 290 853 356 827 c 128,-1,43
 422 801 422 801 439 801 c 2,26,27
EndSplineSet
EndChar

StartChar: Odieresis
Encoding: 214 214 150
Width: 705
GlyphClass: 2
Flags: W
LayerCount: 2
Fore
SplineSet
201 557 m 1,0,1
 139 472 139 472 139 338 c 128,-1,2
 139 204 139 204 195.5 129 c 128,-1,3
 252 54 252 54 359 54 c 0,4,5
 448 54 448 54 504 91 c 1,6,7
 566 167 566 167 566 305.5 c 128,-1,8
 566 444 566 444 509.5 519 c 128,-1,9
 453 594 453 594 347 594 c 0,10,11
 259 594 259 594 201 557 c 1,0,1
46 320 m 0,12,13
 46 404 46 404 72 470 c 128,-1,14
 98 536 98 536 142 576 c 0,15,16
 234 658 234 658 363.5 658 c 128,-1,17
 493 658 493 658 576 570 c 128,-1,18
 659 482 659 482 659 328 c 0,19,20
 659 244 659 244 633 178.5 c 128,-1,21
 607 113 607 113 562 73 c 0,22,23
 472 -8 472 -8 342 -8 c 128,-1,24
 212 -8 212 -8 129 79 c 128,-1,25
 46 166 46 166 46 320 c 0,12,13
213.5 747.5 m 128,-1,27
 198 763 198 763 198 786.5 c 128,-1,28
 198 810 198 810 213.5 826 c 128,-1,29
 229 842 229 842 252.5 842 c 128,-1,30
 276 842 276 842 292 826 c 128,-1,31
 308 810 308 810 308 786.5 c 128,-1,32
 308 763 308 763 292 747.5 c 128,-1,33
 276 732 276 732 252.5 732 c 128,-1,26
 229 732 229 732 213.5 747.5 c 128,-1,27
411.5 747.5 m 128,-1,35
 396 763 396 763 396 786.5 c 128,-1,36
 396 810 396 810 411.5 826 c 128,-1,37
 427 842 427 842 450.5 842 c 128,-1,38
 474 842 474 842 490 826 c 128,-1,39
 506 810 506 810 506 786.5 c 128,-1,40
 506 763 506 763 490 747.5 c 128,-1,41
 474 732 474 732 450.5 732 c 128,-1,34
 427 732 427 732 411.5 747.5 c 128,-1,35
EndSplineSet
EndChar

StartChar: multiply
Encoding: 215 215 151
Width: 492
GlyphClass: 2
Flags: W
LayerCount: 2
Fore
SplineSet
62 487 m 1,0,-1
 98 517 l 1,1,-1
 246 368 l 1,2,-1
 392 518 l 1,3,-1
 429 488 l 1,4,-1
 430 472 l 1,5,-1
 288 325 l 1,6,-1
 431 181 l 1,7,-1
 430 165 l 1,8,-1
 392 133 l 1,9,-1
 246 282 l 1,10,-1
 101 133 l 1,11,-1
 63 164 l 1,12,-1
 62 180 l 1,13,-1
 204 325 l 1,14,-1
 61 471 l 1,15,-1
 62 487 l 1,0,-1
EndSplineSet
EndChar

StartChar: Oslash
Encoding: 216 216 152
Width: 704
GlyphClass: 2
Flags: W
LayerCount: 2
Fore
SplineSet
46 320 m 0,0,1
 46 404 46 404 72 470 c 128,-1,2
 98 536 98 536 142 576 c 0,3,4
 234 658 234 658 360 658 c 0,5,6
 429 658 429 658 491 631 c 1,7,-1
 543 723 l 1,8,-1
 602 733 l 1,9,-1
 613 721 l 1,10,11
 606 709 606 709 542 601 c 1,12,13
 659 512 659 512 659 328 c 0,14,15
 659 244 659 244 633 178.5 c 128,-1,16
 607 113 607 113 562 73 c 0,17,18
 472 -8 472 -8 343 -8 c 0,19,20
 267 -8 267 -8 208 20 c 1,21,-1
 163 -61 l 1,22,-1
 104 -71 l 1,23,-1
 93 -59 l 1,24,-1
 158 52 l 1,25,26
 46 141 46 141 46 320 c 0,0,1
244 84 m 1,27,28
 290 54 290 54 369 54 c 128,-1,29
 448 54 448 54 504 91 c 1,30,31
 566 167 566 167 566 311.5 c 128,-1,32
 566 456 566 456 500 530 c 1,33,34
 348 270 348 270 244 84 c 1,27,28
201 557 m 1,35,36
 139 472 139 472 139 333.5 c 128,-1,37
 139 195 139 195 200 122 c 1,38,39
 319 324 319 324 455 567 c 1,40,41
 407 594 407 594 333 594 c 128,-1,42
 259 594 259 594 201 557 c 1,35,36
EndSplineSet
EndChar

StartChar: Ugrave
Encoding: 217 217 153
Width: 699
GlyphClass: 2
Flags: W
LayerCount: 2
Fore
SplineSet
599 567 m 2,0,-1
 599 255 l 2,1,2
 599 114 599 114 541 53 c 128,-1,3
 483 -8 483 -8 360 -8 c 0,4,5
 99 -8 99 -8 99 252 c 2,6,-1
 99 597 l 1,7,-1
 23 628 l 1,8,-1
 29 650 l 1,9,-1
 264 650 l 1,10,-1
 265 628 l 1,11,-1
 215 605 l 1,12,13
 197 598 197 598 190.5 590 c 128,-1,14
 184 582 184 582 184 567 c 2,15,-1
 184 257 l 2,16,17
 184 160 184 160 230.5 107 c 128,-1,18
 277 54 277 54 356 54 c 128,-1,19
 435 54 435 54 483 78 c 1,20,21
 533 131 533 131 533 252 c 2,22,-1
 533 593 l 1,23,-1
 447 628 l 1,24,-1
 453 650 l 1,25,-1
 669 650 l 1,26,-1
 675 628 l 1,27,-1
 630 609 l 1,28,29
 599 597 599 597 599 567 c 2,0,-1
408 722 m 1,30,-1
 197 799 l 1,31,-1
 240 854 l 1,32,-1
 260 858 l 1,33,-1
 421 742 l 1,34,-1
 408 722 l 1,30,-1
EndSplineSet
EndChar

StartChar: Uacute
Encoding: 218 218 154
Width: 699
GlyphClass: 2
Flags: W
LayerCount: 2
Fore
SplineSet
599 567 m 2,0,-1
 599 255 l 2,1,2
 599 114 599 114 541 53 c 128,-1,3
 483 -8 483 -8 360 -8 c 0,4,5
 99 -8 99 -8 99 252 c 2,6,-1
 99 597 l 1,7,-1
 23 628 l 1,8,-1
 29 650 l 1,9,-1
 264 650 l 1,10,-1
 265 628 l 1,11,-1
 215 605 l 1,12,13
 197 598 197 598 190.5 590 c 128,-1,14
 184 582 184 582 184 567 c 2,15,-1
 184 257 l 2,16,17
 184 160 184 160 230.5 107 c 128,-1,18
 277 54 277 54 356 54 c 128,-1,19
 435 54 435 54 483 78 c 1,20,21
 533 131 533 131 533 252 c 2,22,-1
 533 593 l 1,23,-1
 447 628 l 1,24,-1
 453 650 l 1,25,-1
 669 650 l 1,26,-1
 675 628 l 1,27,-1
 630 609 l 1,28,29
 599 597 599 597 599 567 c 2,0,-1
273 742 m 1,30,-1
 445 865 l 1,31,-1
 486 813 l 1,32,-1
 482 793 l 1,33,-1
 286 722 l 1,34,-1
 273 742 l 1,30,-1
EndSplineSet
EndChar

StartChar: Ucircumflex
Encoding: 219 219 155
Width: 699
GlyphClass: 2
Flags: W
LayerCount: 2
Fore
SplineSet
599 567 m 2,0,-1
 599 255 l 2,1,2
 599 114 599 114 541 53 c 128,-1,3
 483 -8 483 -8 360 -8 c 0,4,5
 99 -8 99 -8 99 252 c 2,6,-1
 99 597 l 1,7,-1
 23 628 l 1,8,-1
 29 650 l 1,9,-1
 264 650 l 1,10,-1
 265 628 l 1,11,-1
 215 605 l 1,12,13
 197 598 197 598 190.5 590 c 128,-1,14
 184 582 184 582 184 567 c 2,15,-1
 184 257 l 2,16,17
 184 160 184 160 230.5 107 c 128,-1,18
 277 54 277 54 356 54 c 128,-1,19
 435 54 435 54 483 78 c 1,20,21
 533 131 533 131 533 252 c 2,22,-1
 533 593 l 1,23,-1
 447 628 l 1,24,-1
 453 650 l 1,25,-1
 669 650 l 1,26,-1
 675 628 l 1,27,-1
 630 609 l 1,28,29
 599 597 599 597 599 567 c 2,0,-1
209 747 m 1,30,-1
 329 858 l 1,31,-1
 369 858 l 1,32,-1
 489 747 l 1,33,-1
 470 728 l 1,34,-1
 349 787 l 1,35,-1
 228 728 l 1,36,-1
 209 747 l 1,30,-1
EndSplineSet
EndChar

StartChar: Udieresis
Encoding: 220 220 156
Width: 699
GlyphClass: 2
Flags: W
LayerCount: 2
Fore
SplineSet
599 567 m 2,0,-1
 599 255 l 2,1,2
 599 114 599 114 541 53 c 128,-1,3
 483 -8 483 -8 360 -8 c 0,4,5
 99 -8 99 -8 99 252 c 2,6,-1
 99 597 l 1,7,-1
 23 628 l 1,8,-1
 29 650 l 1,9,-1
 264 650 l 1,10,-1
 265 628 l 1,11,-1
 215 605 l 1,12,13
 197 598 197 598 190.5 590 c 128,-1,14
 184 582 184 582 184 567 c 2,15,-1
 184 257 l 2,16,17
 184 160 184 160 230.5 107 c 128,-1,18
 277 54 277 54 356 54 c 128,-1,19
 435 54 435 54 483 78 c 1,20,21
 533 131 533 131 533 252 c 2,22,-1
 533 593 l 1,23,-1
 447 628 l 1,24,-1
 453 650 l 1,25,-1
 669 650 l 1,26,-1
 675 628 l 1,27,-1
 630 609 l 1,28,29
 599 597 599 597 599 567 c 2,0,-1
200.5 747.5 m 128,-1,31
 185 763 185 763 185 786.5 c 128,-1,32
 185 810 185 810 200.5 826 c 128,-1,33
 216 842 216 842 239.5 842 c 128,-1,34
 263 842 263 842 279 826 c 128,-1,35
 295 810 295 810 295 786.5 c 128,-1,36
 295 763 295 763 279 747.5 c 128,-1,37
 263 732 263 732 239.5 732 c 128,-1,30
 216 732 216 732 200.5 747.5 c 128,-1,31
418.5 747.5 m 128,-1,39
 403 763 403 763 403 786.5 c 128,-1,40
 403 810 403 810 418.5 826 c 128,-1,41
 434 842 434 842 457.5 842 c 128,-1,42
 481 842 481 842 497 826 c 128,-1,43
 513 810 513 810 513 786.5 c 128,-1,44
 513 763 513 763 497 747.5 c 128,-1,45
 481 732 481 732 457.5 732 c 128,-1,38
 434 732 434 732 418.5 747.5 c 128,-1,39
EndSplineSet
EndChar

StartChar: Yacute
Encoding: 221 221 157
Width: 598
GlyphClass: 2
Flags: W
LayerCount: 2
Fore
SplineSet
258 83 m 2,0,-1
 258 298 l 1,1,-1
 60 596 l 1,2,-1
 -10 628 l 1,3,-1
 -4 650 l 1,4,-1
 237 650 l 1,5,-1
 243 628 l 1,6,-1
 196 605 l 2,7,8
 174 595 174 595 174 581 c 0,9,10
 174 574 174 574 179 567 c 2,11,-1
 315 365 l 1,12,-1
 463 593 l 1,13,-1
 377 628 l 1,14,-1
 383 650 l 1,15,-1
 607 650 l 1,16,-1
 613 628 l 1,17,-1
 558 605 l 2,18,19
 539 597 539 597 530.5 587.5 c 128,-1,20
 522 578 522 578 515 567 c 2,21,-1
 343 301 l 1,22,-1
 343 57 l 1,23,-1
 429 22 l 1,24,-1
 423 0 l 1,25,-1
 178 0 l 1,26,-1
 172 22 l 1,27,-1
 227 45 l 2,28,29
 245 52 245 52 251.5 60 c 128,-1,30
 258 68 258 68 258 83 c 2,0,-1
215 742 m 1,31,-1
 387 865 l 1,32,-1
 428 813 l 1,33,-1
 424 793 l 1,34,-1
 228 722 l 1,35,-1
 215 742 l 1,31,-1
EndSplineSet
EndChar

StartChar: Thorn
Encoding: 222 222 158
Width: 529
GlyphClass: 2
Flags: W
LayerCount: 2
Fore
SplineSet
205 567 m 2,0,-1
 205 496 l 1,1,2
 222 497 222 497 251 497 c 0,3,4
 380 497 380 497 440 454 c 128,-1,5
 500 411 500 411 500 325 c 0,6,7
 500 155 500 155 271 155 c 0,8,9
 236 155 236 155 205 158 c 1,10,-1
 205 57 l 1,11,-1
 291 22 l 1,12,-1
 285 0 l 1,13,-1
 40 0 l 1,14,-1
 34 22 l 1,15,-1
 89 45 l 2,16,17
 107 52 107 52 113.5 60 c 128,-1,18
 120 68 120 68 120 83 c 2,19,-1
 120 593 l 1,20,-1
 34 628 l 1,21,-1
 40 650 l 1,22,-1
 285 650 l 1,23,-1
 291 628 l 1,24,-1
 236 605 l 2,25,26
 218 598 218 598 211.5 590 c 128,-1,27
 205 582 205 582 205 567 c 2,0,-1
279 446 m 2,28,-1
 232 446 l 2,29,30
 205 446 205 446 205 421 c 2,31,-1
 205 209 l 1,32,33
 231 205 231 205 286 205 c 128,-1,34
 341 205 341 205 381 225 c 1,35,36
 407 255 407 255 407 316 c 0,37,38
 407 446 407 446 279 446 c 2,28,-1
EndSplineSet
EndChar

StartChar: germandbls
Encoding: 223 223 159
Width: 543
GlyphClass: 2
Flags: W
LayerCount: 2
Fore
SplineSet
175 79 m 2,0,1
 175 41 175 41 185 9 c 1,2,-1
 177 0 l 1,3,-1
 29 0 l 1,4,-1
 23 22 l 1,5,-1
 68 41 l 2,6,7
 86 48 86 48 92.5 56 c 128,-1,8
 99 64 99 64 99 79 c 2,9,-1
 99 402 l 1,10,-1
 29 402 l 1,11,-1
 23 424 l 1,12,-1
 99 458 l 1,13,14
 100 554 100 554 156 621 c 128,-1,15
 212 688 212 688 305 688 c 0,16,17
 378 688 378 688 417.5 646.5 c 128,-1,18
 457 605 457 605 457 548 c 0,19,20
 457 510 457 510 437.5 482 c 128,-1,21
 418 454 418 454 394.5 440 c 128,-1,22
 371 426 371 426 351.5 405 c 128,-1,23
 332 384 332 384 332 355 c 128,-1,24
 332 326 332 326 361 305 c 2,25,-1
 427 257 l 2,26,27
 480 218 480 218 501 189.5 c 128,-1,28
 522 161 522 161 522 120 c 0,29,30
 522 61 522 61 484 26.5 c 128,-1,31
 446 -8 446 -8 388 -8 c 128,-1,32
 330 -8 330 -8 291 12 c 128,-1,33
 252 32 252 32 240 49 c 1,34,-1
 281 136 l 1,35,-1
 301 131 l 1,36,-1
 305 60 l 1,37,38
 334 44 334 44 375 44 c 0,39,40
 448 44 448 44 448 101 c 0,41,42
 448 128 448 128 432.5 148.5 c 128,-1,43
 417 169 417 169 382 195 c 2,44,-1
 326 235 l 2,45,46
 264 279 264 279 264 345 c 0,47,48
 264 376 264 376 279 402.5 c 128,-1,49
 294 429 294 429 311.5 443 c 128,-1,50
 329 457 329 457 354.5 475 c 128,-1,51
 380 493 380 493 389 502 c 1,52,53
 389 509 389 509 389 516 c 0,54,55
 389 567 389 567 361 597.5 c 128,-1,56
 333 628 333 628 278 628 c 128,-1,57
 223 628 223 628 194 602 c 1,58,59
 175 572 175 572 175 450 c 2,60,-1
 175 79 l 2,0,1
EndSplineSet
EndChar

StartChar: agrave
Encoding: 224 224 160
Width: 431
GlyphClass: 2
Flags: W
LayerCount: 2
Fore
SplineSet
138 74 m 128,-1,1
 161 57 161 57 191.5 57 c 128,-1,2
 222 57 222 57 273 74 c 1,3,-1
 275 190 l 1,4,5
 147 183 147 183 116 146 c 1,6,7
 115 141 115 141 115 133 c 0,8,0
 115 91 115 91 138 74 c 128,-1,1
274 30 m 1,9,10
 209 -8 209 -8 155 -8 c 128,-1,11
 101 -8 101 -8 69.5 26.5 c 128,-1,12
 38 61 38 61 38 114.5 c 128,-1,13
 38 168 38 168 90.5 197 c 128,-1,14
 143 226 143 226 275 234 c 1,15,-1
 276 299 l 2,16,17
 277 344 277 344 254.5 371.5 c 128,-1,18
 232 399 232 399 193 399 c 128,-1,19
 154 399 154 399 125 390 c 1,20,-1
 117 314 l 1,21,-1
 93 307 l 1,22,-1
 38 385 l 1,23,24
 60 410 60 410 104 434 c 128,-1,25
 148 458 148 458 209 458 c 0,26,27
 358 458 358 458 358 277 c 1,28,-1
 353 54 l 1,29,-1
 422 30 l 1,30,-1
 416 8 l 1,31,-1
 331 -8 l 1,32,-1
 311 0 l 1,33,-1
 279 28 l 1,34,-1
 274 30 l 1,9,10
297 552 m 1,35,-1
 86 629 l 1,36,-1
 129 684 l 1,37,-1
 149 688 l 1,38,-1
 310 572 l 1,39,-1
 297 552 l 1,35,-1
EndSplineSet
EndChar

StartChar: aacute
Encoding: 225 225 161
Width: 431
GlyphClass: 2
Flags: W
LayerCount: 2
Fore
SplineSet
138 74 m 128,-1,1
 161 57 161 57 191.5 57 c 128,-1,2
 222 57 222 57 273 74 c 1,3,-1
 275 190 l 1,4,5
 147 183 147 183 116 146 c 1,6,7
 115 141 115 141 115 133 c 0,8,0
 115 91 115 91 138 74 c 128,-1,1
274 30 m 1,9,10
 209 -8 209 -8 155 -8 c 128,-1,11
 101 -8 101 -8 69.5 26.5 c 128,-1,12
 38 61 38 61 38 114.5 c 128,-1,13
 38 168 38 168 90.5 197 c 128,-1,14
 143 226 143 226 275 234 c 1,15,-1
 276 299 l 2,16,17
 277 344 277 344 254.5 371.5 c 128,-1,18
 232 399 232 399 193 399 c 128,-1,19
 154 399 154 399 125 390 c 1,20,-1
 117 314 l 1,21,-1
 93 307 l 1,22,-1
 38 385 l 1,23,24
 60 410 60 410 104 434 c 128,-1,25
 148 458 148 458 209 458 c 0,26,27
 358 458 358 458 358 277 c 1,28,-1
 353 54 l 1,29,-1
 422 30 l 1,30,-1
 416 8 l 1,31,-1
 331 -8 l 1,32,-1
 311 0 l 1,33,-1
 279 28 l 1,34,-1
 274 30 l 1,9,10
97 572 m 1,35,-1
 269 695 l 1,36,-1
 310 643 l 1,37,-1
 306 623 l 1,38,-1
 110 552 l 1,39,-1
 97 572 l 1,35,-1
EndSplineSet
EndChar

StartChar: acircumflex
Encoding: 226 226 162
Width: 431
GlyphClass: 2
Flags: W
LayerCount: 2
Fore
SplineSet
138 74 m 128,-1,1
 161 57 161 57 191.5 57 c 128,-1,2
 222 57 222 57 273 74 c 1,3,-1
 275 190 l 1,4,5
 147 183 147 183 116 146 c 1,6,7
 115 141 115 141 115 133 c 0,8,0
 115 91 115 91 138 74 c 128,-1,1
274 30 m 1,9,10
 209 -8 209 -8 155 -8 c 128,-1,11
 101 -8 101 -8 69.5 26.5 c 128,-1,12
 38 61 38 61 38 114.5 c 128,-1,13
 38 168 38 168 90.5 197 c 128,-1,14
 143 226 143 226 275 234 c 1,15,-1
 276 299 l 2,16,17
 277 344 277 344 254.5 371.5 c 128,-1,18
 232 399 232 399 193 399 c 128,-1,19
 154 399 154 399 125 390 c 1,20,-1
 117 314 l 1,21,-1
 93 307 l 1,22,-1
 38 385 l 1,23,24
 60 410 60 410 104 434 c 128,-1,25
 148 458 148 458 209 458 c 0,26,27
 358 458 358 458 358 277 c 1,28,-1
 353 54 l 1,29,-1
 422 30 l 1,30,-1
 416 8 l 1,31,-1
 331 -8 l 1,32,-1
 311 0 l 1,33,-1
 279 28 l 1,34,-1
 274 30 l 1,9,10
63 577 m 1,35,-1
 183 688 l 1,36,-1
 223 688 l 1,37,-1
 343 577 l 1,38,-1
 324 558 l 1,39,-1
 203 617 l 1,40,-1
 82 558 l 1,41,-1
 63 577 l 1,35,-1
EndSplineSet
EndChar

StartChar: atilde
Encoding: 227 227 163
Width: 431
GlyphClass: 2
Flags: W
LayerCount: 2
Fore
SplineSet
138 74 m 128,-1,1
 161 57 161 57 191.5 57 c 128,-1,2
 222 57 222 57 273 74 c 1,3,-1
 275 190 l 1,4,5
 147 183 147 183 116 146 c 1,6,7
 115 141 115 141 115 133 c 0,8,0
 115 91 115 91 138 74 c 128,-1,1
274 30 m 1,9,10
 209 -8 209 -8 155 -8 c 128,-1,11
 101 -8 101 -8 69.5 26.5 c 128,-1,12
 38 61 38 61 38 114.5 c 128,-1,13
 38 168 38 168 90.5 197 c 128,-1,14
 143 226 143 226 275 234 c 1,15,-1
 276 299 l 2,16,17
 277 344 277 344 254.5 371.5 c 128,-1,18
 232 399 232 399 193 399 c 128,-1,19
 154 399 154 399 125 390 c 1,20,-1
 117 314 l 1,21,-1
 93 307 l 1,22,-1
 38 385 l 1,23,24
 60 410 60 410 104 434 c 128,-1,25
 148 458 148 458 209 458 c 0,26,27
 358 458 358 458 358 277 c 1,28,-1
 353 54 l 1,29,-1
 422 30 l 1,30,-1
 416 8 l 1,31,-1
 331 -8 l 1,32,-1
 311 0 l 1,33,-1
 279 28 l 1,34,-1
 274 30 l 1,9,10
290 631 m 2,35,36
 290 631 290 631 291 631 c 2,37,-1
 346 678 l 1,38,-1
 363 667 l 1,39,-1
 311 568 l 1,40,-1
 291 563 l 1,41,42
 265 563 265 563 199 589 c 128,-1,43
 133 615 133 615 116 615 c 2,44,45
 116 615 116 615 115 615 c 2,46,-1
 60 568 l 1,47,-1
 43 579 l 1,48,-1
 95 678 l 1,49,-1
 115 683 l 1,50,51
 141 683 141 683 207 657 c 128,-1,52
 273 631 273 631 290 631 c 2,35,36
EndSplineSet
EndChar

StartChar: adieresis
Encoding: 228 228 164
Width: 431
GlyphClass: 2
Flags: W
LayerCount: 2
Fore
SplineSet
138 74 m 128,-1,1
 161 57 161 57 191.5 57 c 128,-1,2
 222 57 222 57 273 74 c 1,3,-1
 275 190 l 1,4,5
 147 183 147 183 116 146 c 1,6,7
 115 141 115 141 115 133 c 0,8,0
 115 91 115 91 138 74 c 128,-1,1
274 30 m 1,9,10
 209 -8 209 -8 155 -8 c 128,-1,11
 101 -8 101 -8 69.5 26.5 c 128,-1,12
 38 61 38 61 38 114.5 c 128,-1,13
 38 168 38 168 90.5 197 c 128,-1,14
 143 226 143 226 275 234 c 1,15,-1
 276 299 l 2,16,17
 277 344 277 344 254.5 371.5 c 128,-1,18
 232 399 232 399 193 399 c 128,-1,19
 154 399 154 399 125 390 c 1,20,-1
 117 314 l 1,21,-1
 93 307 l 1,22,-1
 38 385 l 1,23,24
 60 410 60 410 104 434 c 128,-1,25
 148 458 148 458 209 458 c 0,26,27
 358 458 358 458 358 277 c 1,28,-1
 353 54 l 1,29,-1
 422 30 l 1,30,-1
 416 8 l 1,31,-1
 331 -8 l 1,32,-1
 311 0 l 1,33,-1
 279 28 l 1,34,-1
 274 30 l 1,9,10
64.5 577.5 m 128,-1,36
 49 593 49 593 49 616.5 c 128,-1,37
 49 640 49 640 64.5 656 c 128,-1,38
 80 672 80 672 103.5 672 c 128,-1,39
 127 672 127 672 143 656 c 128,-1,40
 159 640 159 640 159 616.5 c 128,-1,41
 159 593 159 593 143 577.5 c 128,-1,42
 127 562 127 562 103.5 562 c 128,-1,35
 80 562 80 562 64.5 577.5 c 128,-1,36
262.5 577.5 m 128,-1,44
 247 593 247 593 247 616.5 c 128,-1,45
 247 640 247 640 262.5 656 c 128,-1,46
 278 672 278 672 301.5 672 c 128,-1,47
 325 672 325 672 341 656 c 128,-1,48
 357 640 357 640 357 616.5 c 128,-1,49
 357 593 357 593 341 577.5 c 128,-1,50
 325 562 325 562 301.5 562 c 128,-1,43
 278 562 278 562 262.5 577.5 c 128,-1,44
EndSplineSet
EndChar

StartChar: aring
Encoding: 229 229 165
Width: 431
GlyphClass: 2
Flags: W
LayerCount: 2
Fore
SplineSet
138 74 m 128,-1,1
 161 57 161 57 191.5 57 c 128,-1,2
 222 57 222 57 273 74 c 1,3,-1
 275 190 l 1,4,5
 147 183 147 183 116 146 c 1,6,7
 115 141 115 141 115 133 c 0,8,0
 115 91 115 91 138 74 c 128,-1,1
274 30 m 1,9,10
 209 -8 209 -8 155 -8 c 128,-1,11
 101 -8 101 -8 69.5 26.5 c 128,-1,12
 38 61 38 61 38 114.5 c 128,-1,13
 38 168 38 168 90.5 197 c 128,-1,14
 143 226 143 226 275 234 c 1,15,-1
 276 299 l 2,16,17
 277 344 277 344 254.5 371.5 c 128,-1,18
 232 399 232 399 193 399 c 128,-1,19
 154 399 154 399 125 390 c 1,20,-1
 117 314 l 1,21,-1
 93 307 l 1,22,-1
 38 385 l 1,23,24
 60 410 60 410 104 434 c 128,-1,25
 148 458 148 458 209 458 c 0,26,27
 358 458 358 458 358 277 c 1,28,-1
 353 54 l 1,29,-1
 422 30 l 1,30,-1
 416 8 l 1,31,-1
 331 -8 l 1,32,-1
 311 0 l 1,33,-1
 279 28 l 1,34,-1
 274 30 l 1,9,10
159 626 m 0,35,36
 159 573 159 573 202 573 c 0,37,38
 215 573 215 573 222 578 c 0,39,40
 237 589 237 589 237 620 c 0,41,42
 237 673 237 673 194 673 c 0,43,44
 181 673 181 673 174 668 c 0,45,46
 159 657 159 657 159 626 c 0,35,36
127.5 560 m 128,-1,48
 102 583 102 583 102 622.5 c 128,-1,49
 102 662 102 662 129.5 685.5 c 128,-1,50
 157 709 157 709 199.5 709 c 128,-1,51
 242 709 242 709 268 685.5 c 128,-1,52
 294 662 294 662 294 623 c 128,-1,53
 294 584 294 584 266 560.5 c 128,-1,54
 238 537 238 537 195.5 537 c 128,-1,47
 153 537 153 537 127.5 560 c 128,-1,48
EndSplineSet
EndChar

StartChar: ae
Encoding: 230 230 166
Width: 678
GlyphClass: 2
Flags: W
LayerCount: 2
Fore
SplineSet
342 393 m 1,0,1
 397 458 397 458 477 458 c 128,-1,2
 557 458 557 458 598.5 407 c 128,-1,3
 640 356 640 356 640 270 c 2,4,-1
 640 233 l 1,5,-1
 625 218 l 1,6,-1
 365 202 l 1,7,8
 367 128 367 128 404.5 91.5 c 128,-1,9
 442 55 442 55 499 55 c 128,-1,10
 556 55 556 55 617 82 c 1,11,-1
 631 56 l 1,12,13
 611 34 611 34 571 13 c 128,-1,14
 531 -8 531 -8 482 -8 c 0,15,16
 398 -8 398 -8 343 52 c 1,17,18
 256 -8 256 -8 168 -8 c 0,19,20
 104 -8 104 -8 71 26.5 c 128,-1,21
 38 61 38 61 38 115 c 128,-1,22
 38 169 38 169 92 199 c 128,-1,23
 146 229 146 229 283 241 c 1,24,-1
 284 299 l 2,25,26
 285 343 285 343 262 371 c 128,-1,27
 239 399 239 399 196.5 399 c 128,-1,28
 154 399 154 399 125 390 c 1,29,-1
 117 314 l 1,30,-1
 93 307 l 1,31,-1
 38 385 l 1,32,33
 60 410 60 410 105.5 434 c 128,-1,34
 151 458 151 458 213 458 c 0,35,36
 306 458 306 458 342 393 c 1,0,1
536 361.5 m 128,-1,38
 512 396 512 396 473 396 c 128,-1,39
 434 396 434 396 406 382 c 1,40,41
 395 369 395 369 389 360 c 128,-1,42
 383 351 383 351 375 321 c 128,-1,43
 367 291 367 291 366 248 c 1,44,-1
 560 264 l 1,45,37
 560 327 560 327 536 361.5 c 128,-1,38
116 134 m 0,46,47
 116 50 116 50 204 50 c 0,48,49
 246 50 246 50 281 72 c 1,50,-1
 283 195 l 1,51,52
 149 185 149 185 117 147 c 1,53,54
 116 142 116 142 116 134 c 0,46,47
EndSplineSet
EndChar

StartChar: ccedilla
Encoding: 231 231 167
Width: 434
GlyphClass: 2
Flags: W
LayerCount: 2
Fore
SplineSet
163 -187 m 1,0,1
 186 -196 186 -196 213.5 -196 c 128,-1,2
 241 -196 241 -196 262 -189 c 1,3,4
 271 -175 271 -175 271 -154 c 0,5,6
 271 -99 271 -99 209 -99 c 0,7,8
 204 -99 204 -99 198 -99 c 1,9,-1
 187 -86 l 1,10,-1
 210 -5 l 1,11,12
 132 6 132 6 85 66 c 128,-1,13
 38 126 38 126 38 230.5 c 128,-1,14
 38 335 38 335 101.5 396.5 c 128,-1,15
 165 458 165 458 256 458 c 0,16,17
 301 458 301 458 336 441 c 128,-1,18
 371 424 371 424 383 411 c 128,-1,19
 395 398 395 398 402 385 c 1,20,-1
 344 307 l 1,21,-1
 320 314 l 1,22,-1
 312 390 l 1,23,24
 290 396 290 396 242 396 c 128,-1,25
 194 396 194 396 160 379 c 1,26,27
 122 331 122 331 122 242 c 128,-1,28
 122 153 122 153 164 104.5 c 128,-1,29
 206 56 206 56 272 56 c 128,-1,30
 338 56 338 56 395 82 c 1,31,-1
 409 56 l 1,32,33
 397 44 397 44 380 31.5 c 128,-1,34
 363 19 363 19 325.5 5.5 c 128,-1,35
 288 -8 288 -8 247 -8 c 2,36,-1
 246 -8 l 1,37,-1
 243 -68 l 1,38,39
 280 -70 280 -70 305 -91 c 128,-1,40
 330 -112 330 -112 330 -148.5 c 128,-1,41
 330 -185 330 -185 297.5 -211.5 c 128,-1,42
 265 -238 265 -238 220.5 -238 c 128,-1,43
 176 -238 176 -238 160 -230 c 1,44,-1
 153 -220 l 1,45,-1
 163 -187 l 1,0,1
EndSplineSet
EndChar

StartChar: egrave
Encoding: 232 232 168
Width: 455
GlyphClass: 2
Flags: W
LayerCount: 2
Fore
SplineSet
101 396.5 m 128,-1,1
 164 458 164 458 248 458 c 128,-1,2
 332 458 332 458 375 408.5 c 128,-1,3
 418 359 418 359 418 273 c 2,4,-1
 418 240 l 1,5,-1
 403 225 l 1,6,-1
 123 225 l 1,7,8
 125 148 125 148 166 102 c 128,-1,9
 207 56 207 56 271.5 56 c 128,-1,10
 336 56 336 56 395 82 c 1,11,-1
 409 56 l 1,12,13
 397 44 397 44 380 31.5 c 128,-1,14
 363 19 363 19 325.5 5.5 c 128,-1,15
 288 -8 288 -8 247 -8 c 0,16,17
 154 -8 154 -8 96 53.5 c 128,-1,18
 38 115 38 115 38 225 c 128,-1,0
 38 335 38 335 101 396.5 c 128,-1,1
237 394 m 0,19,20
 190 394 190 394 160 379 c 1,21,22
 148 364 148 364 136.5 331 c 128,-1,23
 125 298 125 298 124 268 c 1,24,-1
 338 274 l 1,25,26
 338 394 338 394 237 394 c 0,19,20
337 552 m 1,27,-1
 126 629 l 1,28,-1
 169 684 l 1,29,-1
 189 688 l 1,30,-1
 350 572 l 1,31,-1
 337 552 l 1,27,-1
EndSplineSet
EndChar

StartChar: eacute
Encoding: 233 233 169
Width: 455
GlyphClass: 2
Flags: W
LayerCount: 2
Fore
SplineSet
101 396.5 m 128,-1,1
 164 458 164 458 248 458 c 128,-1,2
 332 458 332 458 375 408.5 c 128,-1,3
 418 359 418 359 418 273 c 2,4,-1
 418 240 l 1,5,-1
 403 225 l 1,6,-1
 123 225 l 1,7,8
 125 148 125 148 166 102 c 128,-1,9
 207 56 207 56 271.5 56 c 128,-1,10
 336 56 336 56 395 82 c 1,11,-1
 409 56 l 1,12,13
 397 44 397 44 380 31.5 c 128,-1,14
 363 19 363 19 325.5 5.5 c 128,-1,15
 288 -8 288 -8 247 -8 c 0,16,17
 154 -8 154 -8 96 53.5 c 128,-1,18
 38 115 38 115 38 225 c 128,-1,0
 38 335 38 335 101 396.5 c 128,-1,1
237 394 m 0,19,20
 190 394 190 394 160 379 c 1,21,22
 148 364 148 364 136.5 331 c 128,-1,23
 125 298 125 298 124 268 c 1,24,-1
 338 274 l 1,25,26
 338 394 338 394 237 394 c 0,19,20
132 572 m 1,27,-1
 304 695 l 1,28,-1
 345 643 l 1,29,-1
 341 623 l 1,30,-1
 145 552 l 1,31,-1
 132 572 l 1,27,-1
EndSplineSet
EndChar

StartChar: ecircumflex
Encoding: 234 234 170
Width: 455
GlyphClass: 2
Flags: W
LayerCount: 2
Fore
SplineSet
101 396.5 m 128,-1,1
 164 458 164 458 248 458 c 128,-1,2
 332 458 332 458 375 408.5 c 128,-1,3
 418 359 418 359 418 273 c 2,4,-1
 418 240 l 1,5,-1
 403 225 l 1,6,-1
 123 225 l 1,7,8
 125 148 125 148 166 102 c 128,-1,9
 207 56 207 56 271.5 56 c 128,-1,10
 336 56 336 56 395 82 c 1,11,-1
 409 56 l 1,12,13
 397 44 397 44 380 31.5 c 128,-1,14
 363 19 363 19 325.5 5.5 c 128,-1,15
 288 -8 288 -8 247 -8 c 0,16,17
 154 -8 154 -8 96 53.5 c 128,-1,18
 38 115 38 115 38 225 c 128,-1,0
 38 335 38 335 101 396.5 c 128,-1,1
237 394 m 0,19,20
 190 394 190 394 160 379 c 1,21,22
 148 364 148 364 136.5 331 c 128,-1,23
 125 298 125 298 124 268 c 1,24,-1
 338 274 l 1,25,26
 338 394 338 394 237 394 c 0,19,20
98 577 m 1,27,-1
 218 688 l 1,28,-1
 258 688 l 1,29,-1
 378 577 l 1,30,-1
 359 558 l 1,31,-1
 238 617 l 1,32,-1
 117 558 l 1,33,-1
 98 577 l 1,27,-1
EndSplineSet
EndChar

StartChar: edieresis
Encoding: 235 235 171
Width: 455
GlyphClass: 2
Flags: W
LayerCount: 2
Fore
SplineSet
101 396.5 m 128,-1,1
 164 458 164 458 248 458 c 128,-1,2
 332 458 332 458 375 408.5 c 128,-1,3
 418 359 418 359 418 273 c 2,4,-1
 418 240 l 1,5,-1
 403 225 l 1,6,-1
 123 225 l 1,7,8
 125 148 125 148 166 102 c 128,-1,9
 207 56 207 56 271.5 56 c 128,-1,10
 336 56 336 56 395 82 c 1,11,-1
 409 56 l 1,12,13
 397 44 397 44 380 31.5 c 128,-1,14
 363 19 363 19 325.5 5.5 c 128,-1,15
 288 -8 288 -8 247 -8 c 0,16,17
 154 -8 154 -8 96 53.5 c 128,-1,18
 38 115 38 115 38 225 c 128,-1,0
 38 335 38 335 101 396.5 c 128,-1,1
237 394 m 0,19,20
 190 394 190 394 160 379 c 1,21,22
 148 364 148 364 136.5 331 c 128,-1,23
 125 298 125 298 124 268 c 1,24,-1
 338 274 l 1,25,26
 338 394 338 394 237 394 c 0,19,20
99.5 577.5 m 128,-1,28
 84 593 84 593 84 616.5 c 128,-1,29
 84 640 84 640 99.5 656 c 128,-1,30
 115 672 115 672 138.5 672 c 128,-1,31
 162 672 162 672 178 656 c 128,-1,32
 194 640 194 640 194 616.5 c 128,-1,33
 194 593 194 593 178 577.5 c 128,-1,34
 162 562 162 562 138.5 562 c 128,-1,27
 115 562 115 562 99.5 577.5 c 128,-1,28
297.5 577.5 m 128,-1,36
 282 593 282 593 282 616.5 c 128,-1,37
 282 640 282 640 297.5 656 c 128,-1,38
 313 672 313 672 336.5 672 c 128,-1,39
 360 672 360 672 376 656 c 128,-1,40
 392 640 392 640 392 616.5 c 128,-1,41
 392 593 392 593 376 577.5 c 128,-1,42
 360 562 360 562 336.5 562 c 128,-1,35
 313 562 313 562 297.5 577.5 c 128,-1,36
EndSplineSet
EndChar

StartChar: igrave
Encoding: 236 236 172
Width: 271
GlyphClass: 2
Flags: W
LayerCount: 2
Fore
SplineSet
100 79 m 2,0,-1
 100 378 l 1,1,-1
 30 389 l 1,2,-1
 24 411 l 1,3,-1
 161 458 l 1,4,-1
 181 450 l 1,5,-1
 181 54 l 1,6,-1
 260 22 l 1,7,-1
 254 0 l 1,8,-1
 30 0 l 1,9,-1
 24 22 l 1,10,-1
 69 41 l 2,11,12
 87 48 87 48 93.5 56 c 128,-1,13
 100 64 100 64 100 79 c 2,0,-1
201 552 m 1,14,-1
 -10 629 l 1,15,-1
 33 684 l 1,16,-1
 53 688 l 1,17,-1
 214 572 l 1,18,-1
 201 552 l 1,14,-1
EndSplineSet
EndChar

StartChar: iacute
Encoding: 237 237 173
Width: 271
GlyphClass: 2
Flags: W
LayerCount: 2
Fore
SplineSet
100 79 m 2,0,-1
 100 378 l 1,1,-1
 30 389 l 1,2,-1
 24 411 l 1,3,-1
 161 458 l 1,4,-1
 181 450 l 1,5,-1
 181 54 l 1,6,-1
 260 22 l 1,7,-1
 254 0 l 1,8,-1
 30 0 l 1,9,-1
 24 22 l 1,10,-1
 69 41 l 2,11,12
 87 48 87 48 93.5 56 c 128,-1,13
 100 64 100 64 100 79 c 2,0,-1
16 572 m 1,14,-1
 188 695 l 1,15,-1
 229 643 l 1,16,-1
 225 623 l 1,17,-1
 29 552 l 1,18,-1
 16 572 l 1,14,-1
EndSplineSet
EndChar

StartChar: icircumflex
Encoding: 238 238 174
Width: 271
GlyphClass: 2
Flags: W
LayerCount: 2
Fore
SplineSet
100 79 m 2,0,-1
 100 378 l 1,1,-1
 30 389 l 1,2,-1
 24 411 l 1,3,-1
 161 458 l 1,4,-1
 181 450 l 1,5,-1
 181 54 l 1,6,-1
 260 22 l 1,7,-1
 254 0 l 1,8,-1
 30 0 l 1,9,-1
 24 22 l 1,10,-1
 69 41 l 2,11,12
 87 48 87 48 93.5 56 c 128,-1,13
 100 64 100 64 100 79 c 2,0,-1
7 577 m 1,14,-1
 127 688 l 1,15,-1
 167 688 l 1,16,-1
 287 577 l 1,17,-1
 268 558 l 1,18,-1
 147 617 l 1,19,-1
 26 558 l 1,20,-1
 7 577 l 1,14,-1
EndSplineSet
EndChar

StartChar: idieresis
Encoding: 239 239 175
Width: 271
GlyphClass: 2
Flags: W
LayerCount: 2
Fore
SplineSet
100 79 m 2,0,-1
 100 378 l 1,1,-1
 30 389 l 1,2,-1
 24 411 l 1,3,-1
 161 458 l 1,4,-1
 181 450 l 1,5,-1
 181 54 l 1,6,-1
 260 22 l 1,7,-1
 254 0 l 1,8,-1
 30 0 l 1,9,-1
 24 22 l 1,10,-1
 69 41 l 2,11,12
 87 48 87 48 93.5 56 c 128,-1,13
 100 64 100 64 100 79 c 2,0,-1
3.5 577.5 m 128,-1,15
 -12 593 -12 593 -12 616.5 c 128,-1,16
 -12 640 -12 640 3.5 656 c 128,-1,17
 19 672 19 672 42.5 672 c 128,-1,18
 66 672 66 672 82 656 c 128,-1,19
 98 640 98 640 98 616.5 c 128,-1,20
 98 593 98 593 82 577.5 c 128,-1,21
 66 562 66 562 42.5 562 c 128,-1,14
 19 562 19 562 3.5 577.5 c 128,-1,15
191.5 577.5 m 128,-1,23
 176 593 176 593 176 616.5 c 128,-1,24
 176 640 176 640 191.5 656 c 128,-1,25
 207 672 207 672 230.5 672 c 128,-1,26
 254 672 254 672 270 656 c 128,-1,27
 286 640 286 640 286 616.5 c 128,-1,28
 286 593 286 593 270 577.5 c 128,-1,29
 254 562 254 562 230.5 562 c 128,-1,22
 207 562 207 562 191.5 577.5 c 128,-1,23
EndSplineSet
EndChar

StartChar: eth
Encoding: 240 240 176
Width: 516
GlyphClass: 2
Flags: W
LayerCount: 2
Fore
SplineSet
469 268 m 0,0,1
 469 124 469 124 407 58 c 128,-1,2
 345 -8 345 -8 248 -8 c 128,-1,3
 151 -8 151 -8 94.5 55.5 c 128,-1,4
 38 119 38 119 38 229.5 c 128,-1,5
 38 340 38 340 103.5 399 c 128,-1,6
 169 458 169 458 256 458 c 0,7,8
 310 458 310 458 353 431 c 1,9,10
 320 513 320 513 250 573 c 1,11,12
 243 563 243 563 233 550.5 c 128,-1,13
 223 538 223 538 217 530 c 2,14,-1
 208 518 l 1,15,-1
 192 516 l 1,16,-1
 161 546 l 1,17,-1
 204 608 l 1,18,19
 189 619 189 619 162 636.5 c 128,-1,20
 135 654 135 654 133 655 c 1,21,-1
 151 688 l 1,22,23
 196 671 196 671 234 651 c 1,24,-1
 273 704 l 1,25,-1
 290 706 l 1,26,-1
 328 672 l 1,27,28
 308 647 308 647 286 619 c 1,29,30
 369 565 369 565 419 472 c 128,-1,31
 469 379 469 379 469 268 c 0,0,1
383 224 m 0,32,33
 384 241 384 241 384 276.5 c 128,-1,34
 384 312 384 312 374 358 c 1,35,36
 318 396 318 396 256.5 396 c 128,-1,37
 195 396 195 396 160 372 c 1,38,39
 123 320 123 320 123 237.5 c 128,-1,40
 123 155 123 155 156.5 105.5 c 128,-1,41
 190 56 190 56 253 56 c 0,42,43
 301 56 301 56 337 71 c 1,44,45
 378 123 378 123 383 224 c 0,32,33
EndSplineSet
EndChar

StartChar: ntilde
Encoding: 241 241 177
Width: 547
GlyphClass: 2
Flags: W
LayerCount: 2
Fore
SplineSet
384 293 m 2,0,1
 384 344 384 344 360.5 366.5 c 128,-1,2
 337 389 337 389 285 389 c 128,-1,3
 233 389 233 389 181 376 c 1,4,-1
 181 54 l 1,5,-1
 260 22 l 1,6,-1
 254 0 l 1,7,-1
 30 0 l 1,8,-1
 24 22 l 1,9,-1
 69 41 l 2,10,11
 87 48 87 48 93.5 56 c 128,-1,12
 100 64 100 64 100 79 c 2,13,-1
 100 378 l 1,14,-1
 30 389 l 1,15,-1
 24 411 l 1,16,-1
 153 458 l 1,17,-1
 173 450 l 1,18,-1
 175 422 l 1,19,-1
 179 420 l 1,20,21
 248 458 248 458 321 458 c 0,22,23
 465 458 465 458 465 305 c 2,24,-1
 465 54 l 1,25,-1
 544 22 l 1,26,-1
 538 0 l 1,27,-1
 314 0 l 1,28,-1
 308 22 l 1,29,-1
 353 41 l 2,30,31
 371 48 371 48 377.5 56 c 128,-1,32
 384 64 384 64 384 79 c 2,33,-1
 384 293 l 2,0,1
363 631 m 2,34,35
 363 631 363 631 364 631 c 2,36,-1
 419 678 l 1,37,-1
 436 667 l 1,38,-1
 384 568 l 1,39,-1
 364 563 l 1,40,41
 338 563 338 563 272 589 c 128,-1,42
 206 615 206 615 189 615 c 2,43,44
 189 615 189 615 188 615 c 2,45,-1
 133 568 l 1,46,-1
 116 579 l 1,47,-1
 168 678 l 1,48,-1
 188 683 l 1,49,50
 214 683 214 683 280 657 c 128,-1,51
 346 631 346 631 363 631 c 2,34,35
EndSplineSet
EndChar

StartChar: ograve
Encoding: 242 242 178
Width: 506
GlyphClass: 2
Flags: W
LayerCount: 2
Fore
SplineSet
123 236 m 0,0,1
 123 56 123 56 260 56 c 0,2,3
 310 56 310 56 346 71 c 1,4,5
 383 119 383 119 383 214 c 0,6,7
 383 394 383 394 246 394 c 0,8,9
 196 394 196 394 160 379 c 1,10,11
 123 331 123 331 123 236 c 0,0,1
96 53 m 128,-1,13
 38 114 38 114 38 225.5 c 128,-1,14
 38 337 38 337 102 397.5 c 128,-1,15
 166 458 166 458 259 458 c 128,-1,16
 352 458 352 458 410 397 c 128,-1,17
 468 336 468 336 468 224.5 c 128,-1,18
 468 113 468 113 404 52.5 c 128,-1,19
 340 -8 340 -8 247 -8 c 128,-1,12
 154 -8 154 -8 96 53 c 128,-1,13
342 552 m 1,20,-1
 131 629 l 1,21,-1
 174 684 l 1,22,-1
 194 688 l 1,23,-1
 355 572 l 1,24,-1
 342 552 l 1,20,-1
EndSplineSet
EndChar

StartChar: oacute
Encoding: 243 243 179
Width: 506
GlyphClass: 2
Flags: W
LayerCount: 2
Fore
SplineSet
123 236 m 0,0,1
 123 56 123 56 260 56 c 0,2,3
 310 56 310 56 346 71 c 1,4,5
 383 119 383 119 383 214 c 0,6,7
 383 394 383 394 246 394 c 0,8,9
 196 394 196 394 160 379 c 1,10,11
 123 331 123 331 123 236 c 0,0,1
96 53 m 128,-1,13
 38 114 38 114 38 225.5 c 128,-1,14
 38 337 38 337 102 397.5 c 128,-1,15
 166 458 166 458 259 458 c 128,-1,16
 352 458 352 458 410 397 c 128,-1,17
 468 336 468 336 468 224.5 c 128,-1,18
 468 113 468 113 404 52.5 c 128,-1,19
 340 -8 340 -8 247 -8 c 128,-1,12
 154 -8 154 -8 96 53 c 128,-1,13
147 572 m 1,20,-1
 319 695 l 1,21,-1
 360 643 l 1,22,-1
 356 623 l 1,23,-1
 160 552 l 1,24,-1
 147 572 l 1,20,-1
EndSplineSet
EndChar

StartChar: ocircumflex
Encoding: 244 244 180
Width: 506
GlyphClass: 2
Flags: W
LayerCount: 2
Fore
SplineSet
123 236 m 0,0,1
 123 56 123 56 260 56 c 0,2,3
 310 56 310 56 346 71 c 1,4,5
 383 119 383 119 383 214 c 0,6,7
 383 394 383 394 246 394 c 0,8,9
 196 394 196 394 160 379 c 1,10,11
 123 331 123 331 123 236 c 0,0,1
96 53 m 128,-1,13
 38 114 38 114 38 225.5 c 128,-1,14
 38 337 38 337 102 397.5 c 128,-1,15
 166 458 166 458 259 458 c 128,-1,16
 352 458 352 458 410 397 c 128,-1,17
 468 336 468 336 468 224.5 c 128,-1,18
 468 113 468 113 404 52.5 c 128,-1,19
 340 -8 340 -8 247 -8 c 128,-1,12
 154 -8 154 -8 96 53 c 128,-1,13
108 577 m 1,20,-1
 228 688 l 1,21,-1
 268 688 l 1,22,-1
 388 577 l 1,23,-1
 369 558 l 1,24,-1
 248 617 l 1,25,-1
 127 558 l 1,26,-1
 108 577 l 1,20,-1
EndSplineSet
EndChar

StartChar: otilde
Encoding: 245 245 181
Width: 506
GlyphClass: 2
Flags: W
LayerCount: 2
Fore
SplineSet
123 236 m 0,0,1
 123 56 123 56 260 56 c 0,2,3
 310 56 310 56 346 71 c 1,4,5
 383 119 383 119 383 214 c 0,6,7
 383 394 383 394 246 394 c 0,8,9
 196 394 196 394 160 379 c 1,10,11
 123 331 123 331 123 236 c 0,0,1
96 53 m 128,-1,13
 38 114 38 114 38 225.5 c 128,-1,14
 38 337 38 337 102 397.5 c 128,-1,15
 166 458 166 458 259 458 c 128,-1,16
 352 458 352 458 410 397 c 128,-1,17
 468 336 468 336 468 224.5 c 128,-1,18
 468 113 468 113 404 52.5 c 128,-1,19
 340 -8 340 -8 247 -8 c 128,-1,12
 154 -8 154 -8 96 53 c 128,-1,13
335 631 m 2,20,21
 335 631 335 631 336 631 c 2,22,-1
 391 678 l 1,23,-1
 408 667 l 1,24,-1
 356 568 l 1,25,-1
 336 563 l 1,26,27
 310 563 310 563 244 589 c 128,-1,28
 178 615 178 615 161 615 c 2,29,30
 161 615 161 615 160 615 c 2,31,-1
 105 568 l 1,32,-1
 88 579 l 1,33,-1
 140 678 l 1,34,-1
 160 683 l 1,35,36
 186 683 186 683 252 657 c 128,-1,37
 318 631 318 631 335 631 c 2,20,21
EndSplineSet
EndChar

StartChar: odieresis
Encoding: 246 246 182
Width: 506
GlyphClass: 2
Flags: W
LayerCount: 2
Fore
SplineSet
123 236 m 0,0,1
 123 56 123 56 260 56 c 0,2,3
 310 56 310 56 346 71 c 1,4,5
 383 119 383 119 383 214 c 0,6,7
 383 394 383 394 246 394 c 0,8,9
 196 394 196 394 160 379 c 1,10,11
 123 331 123 331 123 236 c 0,0,1
96 53 m 128,-1,13
 38 114 38 114 38 225.5 c 128,-1,14
 38 337 38 337 102 397.5 c 128,-1,15
 166 458 166 458 259 458 c 128,-1,16
 352 458 352 458 410 397 c 128,-1,17
 468 336 468 336 468 224.5 c 128,-1,18
 468 113 468 113 404 52.5 c 128,-1,19
 340 -8 340 -8 247 -8 c 128,-1,12
 154 -8 154 -8 96 53 c 128,-1,13
109.5 577.5 m 128,-1,21
 94 593 94 593 94 616.5 c 128,-1,22
 94 640 94 640 109.5 656 c 128,-1,23
 125 672 125 672 148.5 672 c 128,-1,24
 172 672 172 672 188 656 c 128,-1,25
 204 640 204 640 204 616.5 c 128,-1,26
 204 593 204 593 188 577.5 c 128,-1,27
 172 562 172 562 148.5 562 c 128,-1,20
 125 562 125 562 109.5 577.5 c 128,-1,21
307.5 577.5 m 128,-1,29
 292 593 292 593 292 616.5 c 128,-1,30
 292 640 292 640 307.5 656 c 128,-1,31
 323 672 323 672 346.5 672 c 128,-1,32
 370 672 370 672 386 656 c 128,-1,33
 402 640 402 640 402 616.5 c 128,-1,34
 402 593 402 593 386 577.5 c 128,-1,35
 370 562 370 562 346.5 562 c 128,-1,28
 323 562 323 562 307.5 577.5 c 128,-1,29
EndSplineSet
EndChar

StartChar: divide
Encoding: 247 247 183
Width: 523
GlyphClass: 2
Flags: W
LayerCount: 2
Fore
SplineSet
47 309 m 1,0,-1
 59 354 l 1,1,-1
 464 356 l 1,2,-1
 475 344 l 1,3,-1
 464 295 l 1,4,5
 89 297 89 297 58 297 c 1,6,-1
 47 309 l 1,0,-1
223.5 441.5 m 128,-1,8
 209 456 209 456 209 478.5 c 128,-1,9
 209 501 209 501 224 516 c 128,-1,10
 239 531 239 531 261 531 c 128,-1,11
 283 531 283 531 298 516 c 128,-1,12
 313 501 313 501 313 479 c 128,-1,13
 313 457 313 457 298 442 c 128,-1,14
 283 427 283 427 260.5 427 c 128,-1,7
 238 427 238 427 223.5 441.5 c 128,-1,8
209 172 m 128,-1,16
 209 194 209 194 224 209 c 128,-1,17
 239 224 239 224 261 224 c 128,-1,18
 283 224 283 224 298 209 c 128,-1,19
 313 194 313 194 313 172 c 128,-1,20
 313 150 313 150 298 135 c 128,-1,21
 283 120 283 120 260.5 120 c 128,-1,22
 238 120 238 120 223.5 135 c 128,-1,15
 209 150 209 150 209 172 c 128,-1,16
EndSplineSet
EndChar

StartChar: oslash
Encoding: 248 248 184
Width: 506
GlyphClass: 2
Flags: W
LayerCount: 2
Fore
SplineSet
57 -69 m 1,0,-1
 117 33 l 1,1,2
 38 96 38 96 38 216.5 c 128,-1,3
 38 337 38 337 101.5 397.5 c 128,-1,4
 165 458 165 458 258 458 c 0,5,6
 306 458 306 458 346 441 c 1,7,-1
 382 508 l 1,8,-1
 437 520 l 1,9,-1
 449 509 l 1,10,-1
 392 413 l 1,11,12
 468 352 468 352 468 232.5 c 128,-1,13
 468 113 468 113 404 52.5 c 128,-1,14
 340 -8 340 -8 247 -8 c 0,15,16
 202 -8 202 -8 164 7 c 1,17,-1
 124 -68 l 1,18,-1
 69 -80 l 1,19,-1
 57 -69 l 1,0,-1
160 379 m 1,20,21
 123 331 123 331 123 240 c 128,-1,22
 123 149 123 149 157 103 c 1,23,24
 247 260 247 260 312 379 c 1,25,26
 284 394 284 394 240 394 c 128,-1,27
 196 394 196 394 160 379 c 1,20,21
198 68 m 1,28,29
 224 56 224 56 267 56 c 128,-1,30
 310 56 310 56 346 71 c 1,31,32
 383 119 383 119 383 208.5 c 128,-1,33
 383 298 383 298 352 342 c 1,34,35
 232 131 232 131 198 68 c 1,28,29
EndSplineSet
EndChar

StartChar: ugrave
Encoding: 249 249 185
Width: 534
GlyphClass: 2
Flags: W
LayerCount: 2
Fore
SplineSet
227 -8 m 0,0,1
 83 -8 83 -8 83 145 c 2,2,-1
 83 378 l 1,3,-1
 13 389 l 1,4,-1
 7 411 l 1,5,-1
 144 458 l 1,6,-1
 164 450 l 1,7,-1
 164 157 l 2,8,9
 164 106 164 106 187.5 83.5 c 128,-1,10
 211 61 211 61 263 61 c 128,-1,11
 315 61 315 61 367 74 c 1,12,-1
 367 378 l 1,13,-1
 297 389 l 1,14,-1
 291 411 l 1,15,-1
 428 458 l 1,16,-1
 448 450 l 1,17,-1
 448 54 l 1,18,-1
 517 30 l 1,19,-1
 511 8 l 1,20,-1
 426 -8 l 1,21,-1
 406 0 l 1,22,-1
 374 28 l 1,23,-1
 369 30 l 1,24,25
 300 -8 300 -8 227 -8 c 0,0,1
334 552 m 1,26,-1
 123 629 l 1,27,-1
 166 684 l 1,28,-1
 186 688 l 1,29,-1
 347 572 l 1,30,-1
 334 552 l 1,26,-1
EndSplineSet
EndChar

StartChar: uacute
Encoding: 250 250 186
Width: 534
GlyphClass: 2
Flags: W
LayerCount: 2
Fore
SplineSet
227 -8 m 0,0,1
 83 -8 83 -8 83 145 c 2,2,-1
 83 378 l 1,3,-1
 13 389 l 1,4,-1
 7 411 l 1,5,-1
 144 458 l 1,6,-1
 164 450 l 1,7,-1
 164 157 l 2,8,9
 164 106 164 106 187.5 83.5 c 128,-1,10
 211 61 211 61 263 61 c 128,-1,11
 315 61 315 61 367 74 c 1,12,-1
 367 378 l 1,13,-1
 297 389 l 1,14,-1
 291 411 l 1,15,-1
 428 458 l 1,16,-1
 448 450 l 1,17,-1
 448 54 l 1,18,-1
 517 30 l 1,19,-1
 511 8 l 1,20,-1
 426 -8 l 1,21,-1
 406 0 l 1,22,-1
 374 28 l 1,23,-1
 369 30 l 1,24,25
 300 -8 300 -8 227 -8 c 0,0,1
169 572 m 1,26,-1
 341 695 l 1,27,-1
 382 643 l 1,28,-1
 378 623 l 1,29,-1
 182 552 l 1,30,-1
 169 572 l 1,26,-1
EndSplineSet
EndChar

StartChar: ucircumflex
Encoding: 251 251 187
Width: 534
GlyphClass: 2
Flags: W
LayerCount: 2
Fore
SplineSet
227 -8 m 0,0,1
 83 -8 83 -8 83 145 c 2,2,-1
 83 378 l 1,3,-1
 13 389 l 1,4,-1
 7 411 l 1,5,-1
 144 458 l 1,6,-1
 164 450 l 1,7,-1
 164 157 l 2,8,9
 164 106 164 106 187.5 83.5 c 128,-1,10
 211 61 211 61 263 61 c 128,-1,11
 315 61 315 61 367 74 c 1,12,-1
 367 378 l 1,13,-1
 297 389 l 1,14,-1
 291 411 l 1,15,-1
 428 458 l 1,16,-1
 448 450 l 1,17,-1
 448 54 l 1,18,-1
 517 30 l 1,19,-1
 511 8 l 1,20,-1
 426 -8 l 1,21,-1
 406 0 l 1,22,-1
 374 28 l 1,23,-1
 369 30 l 1,24,25
 300 -8 300 -8 227 -8 c 0,0,1
115 577 m 1,26,-1
 235 688 l 1,27,-1
 275 688 l 1,28,-1
 395 577 l 1,29,-1
 376 558 l 1,30,-1
 255 617 l 1,31,-1
 134 558 l 1,32,-1
 115 577 l 1,26,-1
EndSplineSet
EndChar

StartChar: udieresis
Encoding: 252 252 188
Width: 534
GlyphClass: 2
Flags: W
LayerCount: 2
Fore
SplineSet
227 -8 m 0,0,1
 83 -8 83 -8 83 145 c 2,2,-1
 83 378 l 1,3,-1
 13 389 l 1,4,-1
 7 411 l 1,5,-1
 144 458 l 1,6,-1
 164 450 l 1,7,-1
 164 157 l 2,8,9
 164 106 164 106 187.5 83.5 c 128,-1,10
 211 61 211 61 263 61 c 128,-1,11
 315 61 315 61 367 74 c 1,12,-1
 367 378 l 1,13,-1
 297 389 l 1,14,-1
 291 411 l 1,15,-1
 428 458 l 1,16,-1
 448 450 l 1,17,-1
 448 54 l 1,18,-1
 517 30 l 1,19,-1
 511 8 l 1,20,-1
 426 -8 l 1,21,-1
 406 0 l 1,22,-1
 374 28 l 1,23,-1
 369 30 l 1,24,25
 300 -8 300 -8 227 -8 c 0,0,1
116.5 577.5 m 128,-1,27
 101 593 101 593 101 616.5 c 128,-1,28
 101 640 101 640 116.5 656 c 128,-1,29
 132 672 132 672 155.5 672 c 128,-1,30
 179 672 179 672 195 656 c 128,-1,31
 211 640 211 640 211 616.5 c 128,-1,32
 211 593 211 593 195 577.5 c 128,-1,33
 179 562 179 562 155.5 562 c 128,-1,26
 132 562 132 562 116.5 577.5 c 128,-1,27
314.5 577.5 m 128,-1,35
 299 593 299 593 299 616.5 c 128,-1,36
 299 640 299 640 314.5 656 c 128,-1,37
 330 672 330 672 353.5 672 c 128,-1,38
 377 672 377 672 393 656 c 128,-1,39
 409 640 409 640 409 616.5 c 128,-1,40
 409 593 409 593 393 577.5 c 128,-1,41
 377 562 377 562 353.5 562 c 128,-1,34
 330 562 330 562 314.5 577.5 c 128,-1,35
EndSplineSet
EndChar

StartChar: yacute
Encoding: 253 253 189
Width: 521
GlyphClass: 2
Flags: W
LayerCount: 2
Fore
SplineSet
181 409 m 2,0,1
 162 401 162 401 162 387.5 c 128,-1,2
 162 374 162 374 167 363 c 2,3,-1
 276 106 l 1,4,-1
 388 396 l 1,5,-1
 317 428 l 1,6,-1
 323 450 l 1,7,-1
 517 450 l 1,8,-1
 523 428 l 1,9,-1
 474 407 l 2,10,11
 455 399 455 399 446 382 c 1,12,13
 444 376 444 376 439 363 c 2,14,-1
 297 12 l 2,15,16
 228 -158 228 -158 175 -238 c 1,17,-1
 100 -214 l 1,18,-1
 92 -194 l 1,19,20
 197 -81 197 -81 233 -1 c 1,21,-1
 65 396 l 1,22,-1
 -6 428 l 1,23,-1
 0 450 l 1,24,-1
 220 450 l 1,25,-1
 226 428 l 1,26,-1
 181 409 l 2,0,1
172 572 m 1,27,-1
 344 695 l 1,28,-1
 385 643 l 1,29,-1
 381 623 l 1,30,-1
 185 552 l 1,31,-1
 172 572 l 1,27,-1
EndSplineSet
EndChar

StartChar: thorn
Encoding: 254 254 190
Width: 506
GlyphClass: 2
Flags: W
LayerCount: 2
Fore
SplineSet
287 458 m 0,0,1
 375 458 375 458 421.5 391 c 128,-1,2
 468 324 468 324 468 218.5 c 128,-1,3
 468 113 468 113 404.5 52.5 c 128,-1,4
 341 -8 341 -8 246 -8 c 0,5,6
 200 -8 200 -8 150 1 c 1,7,-1
 150 -174 l 1,8,-1
 229 -206 l 1,9,-1
 223 -228 l 1,10,-1
 -1 -228 l 1,11,-1
 -7 -206 l 1,12,-1
 38 -187 l 2,13,14
 56 -180 56 -180 62.5 -172 c 128,-1,15
 69 -164 69 -164 69 -149 c 2,16,-1
 69 608 l 1,17,-1
 -1 619 l 1,18,-1
 -7 641 l 1,19,-1
 128 688 l 1,20,-1
 148 680 l 1,21,-1
 148 425 l 1,22,-1
 150 422 l 1,23,-1
 150 421 l 1,24,25
 217 458 217 458 287 458 c 0,0,1
150 70 m 1,26,27
 190 56 190 56 248.5 56 c 128,-1,28
 307 56 307 56 346 71 c 1,29,30
 383 120 383 120 383 214 c 0,31,32
 383 389 383 389 251 389 c 0,33,34
 202 389 202 389 150 376 c 1,35,-1
 150 70 l 1,26,27
EndSplineSet
EndChar

StartChar: ydieresis
Encoding: 255 255 191
Width: 521
GlyphClass: 2
Flags: W
LayerCount: 2
Fore
SplineSet
181 409 m 2,0,1
 162 401 162 401 162 387.5 c 128,-1,2
 162 374 162 374 167 363 c 2,3,-1
 276 106 l 1,4,-1
 388 396 l 1,5,-1
 317 428 l 1,6,-1
 323 450 l 1,7,-1
 517 450 l 1,8,-1
 523 428 l 1,9,-1
 474 407 l 2,10,11
 455 399 455 399 446 382 c 1,12,13
 444 376 444 376 439 363 c 2,14,-1
 297 12 l 2,15,16
 228 -158 228 -158 175 -238 c 1,17,-1
 100 -214 l 1,18,-1
 92 -194 l 1,19,20
 197 -81 197 -81 233 -1 c 1,21,-1
 65 396 l 1,22,-1
 -6 428 l 1,23,-1
 0 450 l 1,24,-1
 220 450 l 1,25,-1
 226 428 l 1,26,-1
 181 409 l 2,0,1
129.5 577.5 m 128,-1,28
 114 593 114 593 114 616.5 c 128,-1,29
 114 640 114 640 129.5 656 c 128,-1,30
 145 672 145 672 168.5 672 c 128,-1,31
 192 672 192 672 208 656 c 128,-1,32
 224 640 224 640 224 616.5 c 128,-1,33
 224 593 224 593 208 577.5 c 128,-1,34
 192 562 192 562 168.5 562 c 128,-1,27
 145 562 145 562 129.5 577.5 c 128,-1,28
327.5 577.5 m 128,-1,36
 312 593 312 593 312 616.5 c 128,-1,37
 312 640 312 640 327.5 656 c 128,-1,38
 343 672 343 672 366.5 672 c 128,-1,39
 390 672 390 672 406 656 c 128,-1,40
 422 640 422 640 422 616.5 c 128,-1,41
 422 593 422 593 406 577.5 c 128,-1,42
 390 562 390 562 366.5 562 c 128,-1,35
 343 562 343 562 327.5 577.5 c 128,-1,36
EndSplineSet
EndChar

StartChar: dotlessi
Encoding: 305 305 192
Width: 271
GlyphClass: 2
Flags: W
LayerCount: 2
Fore
SplineSet
100 79 m 2,0,-1
 100 378 l 1,1,-1
 30 389 l 1,2,-1
 24 411 l 1,3,-1
 161 458 l 1,4,-1
 181 450 l 1,5,-1
 181 54 l 1,6,-1
 260 22 l 1,7,-1
 254 0 l 1,8,-1
 30 0 l 1,9,-1
 24 22 l 1,10,-1
 69 41 l 2,11,12
 87 48 87 48 93.5 56 c 128,-1,13
 100 64 100 64 100 79 c 2,0,-1
EndSplineSet
EndChar

StartChar: Lslash
Encoding: 321 321 193
Width: 525
GlyphClass: 2
Flags: W
LayerCount: 2
Fore
SplineSet
17 261 m 1,0,1
 55 283 55 283 125 325 c 1,2,-1
 125 593 l 1,3,-1
 39 628 l 1,4,-1
 45 650 l 1,5,-1
 290 650 l 1,6,-1
 296 628 l 1,7,-1
 241 605 l 2,8,9
 223 598 223 598 216.5 590 c 128,-1,10
 210 582 210 582 210 567 c 2,11,-1
 210 377 l 1,12,-1
 296 432 l 1,13,-1
 310 428 l 1,14,-1
 329 376 l 1,15,16
 273 345 273 345 210 310 c 1,17,-1
 210 52 l 1,18,-1
 432 56 l 1,19,-1
 480 144 l 1,20,-1
 510 137 l 1,21,-1
 510 0 l 1,22,-1
 45 0 l 1,23,-1
 39 22 l 1,24,-1
 94 45 l 2,25,26
 112 52 112 52 118.5 60 c 128,-1,27
 125 68 125 68 125 83 c 2,28,-1
 125 262 l 1,29,-1
 42 217 l 1,30,-1
 26 222 l 1,31,-1
 17 261 l 1,0,1
EndSplineSet
EndChar

StartChar: lslash
Encoding: 322 322 194
Width: 281
GlyphClass: 2
Flags: W
LayerCount: 2
Fore
SplineSet
100 79 m 2,0,-1
 100 292 l 1,1,2
 74 278 74 278 30 253 c 1,3,-1
 14 258 l 1,4,-1
 5 298 l 1,5,-1
 100 354 l 1,6,-1
 100 608 l 1,7,-1
 30 619 l 1,8,-1
 24 641 l 1,9,-1
 161 688 l 1,10,-1
 181 680 l 1,11,-1
 181 404 l 1,12,-1
 249 448 l 1,13,-1
 264 443 l 1,14,-1
 281 392 l 1,15,16
 234 367 234 367 181 337 c 1,17,-1
 181 54 l 1,18,-1
 260 22 l 1,19,-1
 254 0 l 1,20,-1
 30 0 l 1,21,-1
 24 22 l 1,22,-1
 69 41 l 2,23,24
 87 48 87 48 93.5 56 c 128,-1,25
 100 64 100 64 100 79 c 2,0,-1
EndSplineSet
EndChar

StartChar: OE
Encoding: 338 338 195
Width: 991
GlyphClass: 2
Flags: W
LayerCount: 2
Fore
SplineSet
46 320 m 0,0,1
 46 431 46 431 92 509 c 0,2,3
 178 657 178 657 360 657 c 0,4,5
 490 657 490 657 566 569 c 1,6,-1
 566 640 l 1,7,-1
 576 650 l 1,8,-1
 941 650 l 1,9,-1
 941 513 l 1,10,-1
 911 506 l 1,11,-1
 863 594 l 1,12,-1
 678 598 l 2,13,14
 651 598 651 598 651 568 c 2,15,-1
 651 352 l 1,16,17
 746 352 746 352 844 361 c 2,18,-1
 876 364 l 1,19,-1
 887 352 l 1,20,-1
 876 296 l 1,21,22
 757 303 757 303 651 303 c 1,23,-1
 651 52 l 1,24,-1
 868 56 l 1,25,-1
 916 144 l 1,26,-1
 946 137 l 1,27,-1
 946 0 l 1,28,-1
 576 0 l 1,29,-1
 566 10 l 1,30,-1
 566 87 l 1,31,32
 484 -8 484 -8 347.5 -8 c 128,-1,33
 211 -8 211 -8 128.5 79.5 c 128,-1,34
 46 167 46 167 46 320 c 0,0,1
201 557 m 1,35,36
 139 472 139 472 139 338 c 128,-1,37
 139 204 139 204 195.5 129 c 128,-1,38
 252 54 252 54 359 54 c 0,39,40
 448 54 448 54 504 91 c 1,41,42
 537 135 537 135 549 173 c 128,-1,43
 561 211 561 211 565 290 c 2,44,-1
 566 307 l 2,45,46
 566 317 566 317 566 327 c 0,47,48
 566 442 566 442 509.5 518 c 128,-1,49
 453 594 453 594 346 594 c 0,50,51
 259 594 259 594 201 557 c 1,35,36
EndSplineSet
EndChar

StartChar: oe
Encoding: 339 339 196
Width: 800
GlyphClass: 2
Flags: W
LayerCount: 2
Fore
SplineSet
96 53.5 m 128,-1,1
 38 115 38 115 38 225.5 c 128,-1,2
 38 336 38 336 101.5 397 c 128,-1,3
 165 458 165 458 254 458 c 0,4,5
 312 458 312 458 359 432.5 c 128,-1,6
 406 407 406 407 428 364 c 1,7,8
 452 407 452 407 500.5 432.5 c 128,-1,9
 549 458 549 458 603 458 c 0,10,11
 678 458 678 458 720.5 408 c 128,-1,12
 763 358 763 358 763 273 c 2,13,-1
 763 240 l 1,14,-1
 748 225 l 1,15,-1
 468 225 l 1,16,17
 470 148 470 148 511 102 c 128,-1,18
 552 56 552 56 616.5 56 c 128,-1,19
 681 56 681 56 740 82 c 1,20,-1
 754 56 l 1,21,22
 727 26 727 26 681 9 c 128,-1,23
 635 -8 635 -8 587 -8 c 128,-1,24
 539 -8 539 -8 491.5 17.5 c 128,-1,25
 444 43 444 43 423 85 c 1,26,27
 400 43 400 43 350.5 17.5 c 128,-1,28
 301 -8 301 -8 243 -8 c 0,29,0
 154 -8 154 -8 96 53.5 c 128,-1,1
123 236 m 0,30,31
 123 56 123 56 260 56 c 0,32,33
 310 56 310 56 346 71 c 1,34,35
 383 118 383 118 383 211 c 2,36,-1
 383 222 l 1,37,38
 380 394 380 394 246 394 c 0,39,40
 196 394 196 394 160 379 c 1,41,42
 123 331 123 331 123 236 c 0,30,31
582 394 m 0,43,44
 535 394 535 394 505 379 c 1,45,46
 493 364 493 364 481.5 331 c 128,-1,47
 470 298 470 298 469 268 c 1,48,-1
 683 274 l 1,49,50
 683 394 683 394 582 394 c 0,43,44
EndSplineSet
EndChar

StartChar: Scaron
Encoding: 352 352 197
Width: 517
GlyphClass: 2
Flags: W
LayerCount: 2
Fore
SplineSet
363 578 m 1,0,1
 330 596 330 596 260.5 596 c 128,-1,2
 191 596 191 596 147 559 c 1,3,4
 135 540 135 540 135 504 c 0,5,6
 135 427 135 427 217 396 c 2,7,-1
 347 346 l 2,8,9
 475 297 475 297 475 169 c 0,10,11
 475 82 475 82 414 37 c 128,-1,12
 353 -8 353 -8 256 -8 c 0,13,14
 122 -8 122 -8 35 74 c 1,15,-1
 99 183 l 1,16,-1
 123 176 l 1,17,-1
 138 80 l 1,18,19
 175 54 175 54 245 54 c 0,20,21
 394 54 394 54 394 155 c 0,22,23
 394 196 394 196 368 222 c 128,-1,24
 342 248 342 248 287 269 c 2,25,-1
 172 313 l 2,26,27
 55 358 55 358 55 475 c 0,28,29
 55 563 55 563 117 610.5 c 128,-1,30
 179 658 179 658 275 658 c 0,31,32
 392 658 392 658 463 576 c 1,33,-1
 392 477 l 1,34,-1
 368 484 l 1,35,-1
 363 578 l 1,0,1
235 728 m 1,36,-1
 115 839 l 1,37,-1
 134 858 l 1,38,-1
 255 799 l 1,39,-1
 376 858 l 1,40,-1
 395 839 l 1,41,-1
 275 728 l 1,42,-1
 235 728 l 1,36,-1
EndSplineSet
EndChar

StartChar: scaron
Encoding: 353 353 198
Width: 401
GlyphClass: 2
Flags: W
LayerCount: 2
Fore
SplineSet
267 394 m 1,0,1
 244 404 244 404 196.5 404 c 128,-1,2
 149 404 149 404 125 380 c 1,3,4
 116 366 116 366 116 347 c 0,5,6
 116 305 116 305 167 286 c 2,7,-1
 269 250 l 2,8,9
 312 235 312 235 338 201.5 c 128,-1,10
 364 168 364 168 364 123 c 0,11,12
 364 60 364 60 316 26 c 128,-1,13
 268 -8 268 -8 203.5 -8 c 128,-1,14
 139 -8 139 -8 95.5 13.5 c 128,-1,15
 52 35 52 35 32 59 c 1,16,-1
 83 142 l 1,17,-1
 108 135 l 1,18,-1
 112 68 l 1,19,20
 147 48 147 48 201 48 c 0,21,22
 292 48 292 48 292 110 c 0,23,24
 292 135 292 135 276 150 c 128,-1,25
 260 165 260 165 224 177 c 2,26,-1
 132 207 l 2,27,28
 91 221 91 221 69 253 c 128,-1,29
 47 285 47 285 47 325 c 0,30,31
 47 388 47 388 97 423 c 128,-1,32
 147 458 147 458 213 458 c 0,33,34
 253 458 253 458 288 442 c 0,35,36
 337 421 337 421 354 395 c 1,37,-1
 299 317 l 1,38,-1
 275 324 l 1,39,-1
 267 394 l 1,0,1
178 558 m 1,40,-1
 58 669 l 1,41,-1
 77 688 l 1,42,-1
 198 629 l 1,43,-1
 319 688 l 1,44,-1
 338 669 l 1,45,-1
 218 558 l 1,46,-1
 178 558 l 1,40,-1
EndSplineSet
EndChar

StartChar: Ydieresis
Encoding: 376 376 199
Width: 598
GlyphClass: 2
Flags: W
LayerCount: 2
Fore
SplineSet
258 83 m 2,0,-1
 258 298 l 1,1,-1
 60 596 l 1,2,-1
 -10 628 l 1,3,-1
 -4 650 l 1,4,-1
 237 650 l 1,5,-1
 243 628 l 1,6,-1
 196 605 l 2,7,8
 174 595 174 595 174 581 c 0,9,10
 174 574 174 574 179 567 c 2,11,-1
 315 365 l 1,12,-1
 463 593 l 1,13,-1
 377 628 l 1,14,-1
 383 650 l 1,15,-1
 607 650 l 1,16,-1
 613 628 l 1,17,-1
 558 605 l 2,18,19
 539 597 539 597 530.5 587.5 c 128,-1,20
 522 578 522 578 515 567 c 2,21,-1
 343 301 l 1,22,-1
 343 57 l 1,23,-1
 429 22 l 1,24,-1
 423 0 l 1,25,-1
 178 0 l 1,26,-1
 172 22 l 1,27,-1
 227 45 l 2,28,29
 245 52 245 52 251.5 60 c 128,-1,30
 258 68 258 68 258 83 c 2,0,-1
152.5 747.5 m 128,-1,32
 137 763 137 763 137 786.5 c 128,-1,33
 137 810 137 810 152.5 826 c 128,-1,34
 168 842 168 842 191.5 842 c 128,-1,35
 215 842 215 842 231 826 c 128,-1,36
 247 810 247 810 247 786.5 c 128,-1,37
 247 763 247 763 231 747.5 c 128,-1,38
 215 732 215 732 191.5 732 c 128,-1,31
 168 732 168 732 152.5 747.5 c 128,-1,32
370.5 747.5 m 128,-1,40
 355 763 355 763 355 786.5 c 128,-1,41
 355 810 355 810 370.5 826 c 128,-1,42
 386 842 386 842 409.5 842 c 128,-1,43
 433 842 433 842 449 826 c 128,-1,44
 465 810 465 810 465 786.5 c 128,-1,45
 465 763 465 763 449 747.5 c 128,-1,46
 433 732 433 732 409.5 732 c 128,-1,39
 386 732 386 732 370.5 747.5 c 128,-1,40
EndSplineSet
EndChar

StartChar: Zcaron
Encoding: 381 381 200
Width: 553
GlyphClass: 2
Flags: W
LayerCount: 2
Fore
SplineSet
508 0 m 1,0,-1
 31 0 l 1,1,-1
 25 29 l 1,2,-1
 399 598 l 1,3,-1
 135 596 l 1,4,-1
 86 506 l 1,5,-1
 56 513 l 1,6,-1
 56 650 l 1,7,-1
 508 650 l 1,8,-1
 514 617 l 1,9,-1
 145 52 l 1,10,-1
 429 54 l 1,11,-1
 478 144 l 1,12,-1
 508 137 l 1,13,-1
 508 0 l 1,0,-1
259 728 m 1,14,-1
 139 839 l 1,15,-1
 158 858 l 1,16,-1
 279 799 l 1,17,-1
 400 858 l 1,18,-1
 419 839 l 1,19,-1
 299 728 l 1,20,-1
 259 728 l 1,14,-1
EndSplineSet
EndChar

StartChar: zcaron
Encoding: 382 382 201
Width: 429
GlyphClass: 2
Flags: W
LayerCount: 2
Fore
SplineSet
389 0 m 1,0,-1
 34 0 l 1,1,-1
 28 29 l 1,2,-1
 287 404 l 1,3,-1
 120 400 l 1,4,-1
 72 316 l 1,5,-1
 48 323 l 1,6,-1
 48 440 l 1,7,-1
 58 450 l 1,8,-1
 383 450 l 1,9,-1
 389 417 l 1,10,-1
 133 46 l 1,11,-1
 317 50 l 1,12,-1
 365 134 l 1,13,-1
 389 127 l 1,14,-1
 389 0 l 1,0,-1
193 558 m 1,15,-1
 73 669 l 1,16,-1
 92 688 l 1,17,-1
 213 629 l 1,18,-1
 334 688 l 1,19,-1
 353 669 l 1,20,-1
 233 558 l 1,21,-1
 193 558 l 1,15,-1
EndSplineSet
EndChar

StartChar: florin
Encoding: 402 402 202
Width: 524
GlyphClass: 2
Flags: W
LayerCount: 2
Fore
SplineSet
397 688 m 0,0,1
 475 688 475 688 510 639 c 1,2,-1
 450 557 l 1,3,-1
 426 564 l 1,4,-1
 423 636 l 1,5,6
 355 636 355 636 319 616 c 1,7,8
 301 592 301 592 271 429 c 1,9,-1
 380 429 l 1,10,-1
 391 417 l 1,11,-1
 382 379 l 1,12,-1
 272 383 l 1,13,-1
 263 383 l 1,14,-1
 210 97 l 2,15,16
 198 30 198 30 154 -20.5 c 128,-1,17
 110 -71 110 -71 42 -91 c 1,18,-1
 32 -70 l 1,19,20
 108 -11 108 -11 130 106 c 2,21,-1
 180 382 l 1,22,-1
 115 381 l 1,23,-1
 108 403 l 1,24,-1
 191 440 l 1,25,26
 235 688 235 688 397 688 c 0,0,1
EndSplineSet
EndChar

StartChar: dotlessj
Encoding: 567 567 203
Width: 239
GlyphClass: 2
Flags: W
LayerCount: 2
Fore
SplineSet
170 0 m 2,0,1
 170 -80 170 -80 131.5 -140.5 c 128,-1,2
 93 -201 93 -201 27 -238 c 1,3,-1
 13 -220 l 1,4,5
 89 -131 89 -131 89 -8 c 2,6,-1
 89 378 l 1,7,-1
 19 389 l 1,8,-1
 13 411 l 1,9,-1
 150 458 l 1,10,-1
 170 450 l 1,11,-1
 170 0 l 2,0,1
EndSplineSet
EndChar

StartChar: circumflex
Encoding: 710 710 204
Width: 360
GlyphClass: 2
Flags: W
LayerCount: 2
Fore
SplineSet
40 577 m 1,0,-1
 160 688 l 1,1,-1
 200 688 l 1,2,-1
 320 577 l 1,3,-1
 301 558 l 1,4,-1
 180 617 l 1,5,-1
 59 558 l 1,6,-1
 40 577 l 1,0,-1
EndSplineSet
EndChar

StartChar: caron
Encoding: 711 711 205
Width: 360
GlyphClass: 2
Flags: W
LayerCount: 2
Fore
SplineSet
160 558 m 1,0,-1
 40 669 l 1,1,-1
 59 688 l 1,2,-1
 180 629 l 1,3,-1
 301 688 l 1,4,-1
 320 669 l 1,5,-1
 200 558 l 1,6,-1
 160 558 l 1,0,-1
EndSplineSet
EndChar

StartChar: dotaccent
Encoding: 729 729 206
Width: 178
GlyphClass: 2
Flags: W
LayerCount: 2
Fore
SplineSet
49.5 583.5 m 128,-1,1
 34 599 34 599 34 622.5 c 128,-1,2
 34 646 34 646 49.5 662 c 128,-1,3
 65 678 65 678 88.5 678 c 128,-1,4
 112 678 112 678 128 662 c 128,-1,5
 144 646 144 646 144 622.5 c 128,-1,6
 144 599 144 599 128 583.5 c 128,-1,7
 112 568 112 568 88.5 568 c 128,-1,0
 65 568 65 568 49.5 583.5 c 128,-1,1
EndSplineSet
EndChar

StartChar: ring
Encoding: 730 730 207
Width: 372
GlyphClass: 2
Flags: W
LayerCount: 2
Fore
SplineSet
147 626 m 0,0,1
 147 573 147 573 190 573 c 0,2,3
 203 573 203 573 210 578 c 0,4,5
 225 589 225 589 225 620 c 0,6,7
 225 673 225 673 182 673 c 0,8,9
 169 673 169 673 162 668 c 0,10,11
 147 657 147 657 147 626 c 0,0,1
115.5 560 m 128,-1,13
 90 583 90 583 90 622.5 c 128,-1,14
 90 662 90 662 117.5 685.5 c 128,-1,15
 145 709 145 709 187.5 709 c 128,-1,16
 230 709 230 709 256 685.5 c 128,-1,17
 282 662 282 662 282 623 c 128,-1,18
 282 584 282 584 254 560.5 c 128,-1,19
 226 537 226 537 183.5 537 c 128,-1,12
 141 537 141 537 115.5 560 c 128,-1,13
EndSplineSet
EndChar

StartChar: tilde
Encoding: 732 732 208
Width: 397
GlyphClass: 2
Flags: W
LayerCount: 2
Fore
SplineSet
284 631 m 2,0,1
 284 631 284 631 285 631 c 2,2,-1
 340 678 l 1,3,-1
 357 667 l 1,4,-1
 305 568 l 1,5,-1
 285 563 l 1,6,7
 259 563 259 563 193 589 c 128,-1,8
 127 615 127 615 110 615 c 2,9,10
 110 615 110 615 109 615 c 2,11,-1
 54 568 l 1,12,-1
 37 579 l 1,13,-1
 89 678 l 1,14,-1
 109 683 l 1,15,16
 135 683 135 683 201 657 c 128,-1,17
 267 631 267 631 284 631 c 2,0,1
EndSplineSet
EndChar

StartChar: endash
Encoding: 8211 8211 209
Width: 601
GlyphClass: 2
Flags: W
LayerCount: 2
Fore
SplineSet
63 217 m 1,0,-1
 75 256 l 1,1,2
 295 256 295 256 466 262 c 1,3,-1
 531 265 l 1,4,-1
 542 253 l 1,5,-1
 531 197 l 1,6,7
 135 205 135 205 74 205 c 1,8,-1
 63 217 l 1,0,-1
EndSplineSet
EndChar

StartChar: emdash
Encoding: 8212 8212 210
Width: 883
GlyphClass: 2
Flags: W
LayerCount: 2
Fore
SplineSet
62 217 m 1,0,-1
 74 256 l 1,1,2
 375 256 375 256 705 264 c 1,3,-1
 815 266 l 1,4,-1
 826 254 l 1,5,-1
 815 194 l 1,6,7
 163 205 163 205 73 205 c 1,8,-1
 62 217 l 1,0,-1
EndSplineSet
EndChar

StartChar: quoteleft
Encoding: 8216 8216 211
Width: 201
GlyphClass: 2
Flags: W
LayerCount: 2
Fore
SplineSet
57.5 496.5 m 128,-1,1
 47 522 47 522 47 556.5 c 128,-1,2
 47 591 47 591 76.5 628 c 128,-1,3
 106 665 106 665 149 688 c 1,4,-1
 165 670 l 1,5,6
 108 625 108 625 108 580 c 128,-1,7
 108 535 108 535 154 504 c 1,8,-1
 157 484 l 1,9,-1
 101 458 l 1,10,-1
 81 458 l 1,11,0
 68 471 68 471 57.5 496.5 c 128,-1,1
EndSplineSet
EndChar

StartChar: quoteright
Encoding: 8217 8217 212
Width: 204
GlyphClass: 2
Flags: W
LayerCount: 2
Fore
SplineSet
154.5 649.5 m 128,-1,1
 165 624 165 624 165 589.5 c 128,-1,2
 165 555 165 555 135.5 518 c 128,-1,3
 106 481 106 481 63 458 c 1,4,-1
 47 476 l 1,5,6
 104 521 104 521 104 566 c 128,-1,7
 104 611 104 611 58 642 c 1,8,-1
 55 662 l 1,9,-1
 111 688 l 1,10,-1
 131 688 l 1,11,0
 144 675 144 675 154.5 649.5 c 128,-1,1
EndSplineSet
EndChar

StartChar: quotesinglbase
Encoding: 8218 8218 213
Width: 211
GlyphClass: 2
Flags: W
LayerCount: 2
Fore
SplineSet
150.5 64.5 m 128,-1,1
 161 39 161 39 161 4.5 c 128,-1,2
 161 -30 161 -30 131.5 -67 c 128,-1,3
 102 -104 102 -104 59 -127 c 1,4,-1
 43 -109 l 1,5,6
 100 -64 100 -64 100 -19 c 128,-1,7
 100 26 100 26 54 57 c 1,8,-1
 51 77 l 1,9,-1
 107 103 l 1,10,-1
 127 103 l 1,11,0
 140 90 140 90 150.5 64.5 c 128,-1,1
EndSplineSet
EndChar

StartChar: quotedblleft
Encoding: 8220 8220 214
Width: 361
GlyphClass: 2
Flags: W
LayerCount: 2
Fore
SplineSet
57.5 496.5 m 128,-1,1
 47 522 47 522 47 556.5 c 128,-1,2
 47 591 47 591 76.5 628 c 128,-1,3
 106 665 106 665 149 688 c 1,4,-1
 165 670 l 1,5,6
 108 625 108 625 108 580 c 128,-1,7
 108 535 108 535 154 504 c 1,8,-1
 157 484 l 1,9,-1
 101 458 l 1,10,-1
 81 458 l 1,11,0
 68 471 68 471 57.5 496.5 c 128,-1,1
217.5 496.5 m 128,-1,13
 207 522 207 522 207 556.5 c 128,-1,14
 207 591 207 591 236.5 628 c 128,-1,15
 266 665 266 665 309 688 c 1,16,-1
 325 670 l 1,17,18
 268 625 268 625 268 580 c 128,-1,19
 268 535 268 535 314 504 c 1,20,-1
 317 484 l 1,21,-1
 261 458 l 1,22,-1
 241 458 l 1,23,12
 228 471 228 471 217.5 496.5 c 128,-1,13
EndSplineSet
EndChar

StartChar: quotedblright
Encoding: 8221 8221 215
Width: 364
GlyphClass: 2
Flags: W
LayerCount: 2
Fore
SplineSet
154.5 649.5 m 128,-1,1
 165 624 165 624 165 589.5 c 128,-1,2
 165 555 165 555 135.5 518 c 128,-1,3
 106 481 106 481 63 458 c 1,4,-1
 47 476 l 1,5,6
 104 521 104 521 104 566 c 128,-1,7
 104 611 104 611 58 642 c 1,8,-1
 55 662 l 1,9,-1
 111 688 l 1,10,-1
 131 688 l 1,11,0
 144 675 144 675 154.5 649.5 c 128,-1,1
314.5 649.5 m 128,-1,13
 325 624 325 624 325 589.5 c 128,-1,14
 325 555 325 555 295.5 518 c 128,-1,15
 266 481 266 481 223 458 c 1,16,-1
 207 476 l 1,17,18
 264 521 264 521 264 566 c 128,-1,19
 264 611 264 611 218 642 c 1,20,-1
 215 662 l 1,21,-1
 271 688 l 1,22,-1
 291 688 l 1,23,12
 304 675 304 675 314.5 649.5 c 128,-1,13
EndSplineSet
EndChar

StartChar: quotedblbase
Encoding: 8222 8222 216
Width: 371
GlyphClass: 2
Flags: W
LayerCount: 2
Fore
SplineSet
150.5 64.5 m 128,-1,1
 161 39 161 39 161 4.5 c 128,-1,2
 161 -30 161 -30 131.5 -67 c 128,-1,3
 102 -104 102 -104 59 -127 c 1,4,-1
 43 -109 l 1,5,6
 100 -64 100 -64 100 -19 c 128,-1,7
 100 26 100 26 54 57 c 1,8,-1
 51 77 l 1,9,-1
 107 103 l 1,10,-1
 127 103 l 1,11,0
 140 90 140 90 150.5 64.5 c 128,-1,1
310.5 64.5 m 128,-1,13
 321 39 321 39 321 4.5 c 128,-1,14
 321 -30 321 -30 291.5 -67 c 128,-1,15
 262 -104 262 -104 219 -127 c 1,16,-1
 203 -109 l 1,17,18
 260 -64 260 -64 260 -19 c 128,-1,19
 260 26 260 26 214 57 c 1,20,-1
 211 77 l 1,21,-1
 267 103 l 1,22,-1
 287 103 l 1,23,12
 300 90 300 90 310.5 64.5 c 128,-1,13
EndSplineSet
EndChar

StartChar: dagger
Encoding: 8224 8224 217
Width: 473
GlyphClass: 2
Flags: W
LayerCount: 2
Fore
SplineSet
448 420 m 1,0,-1
 437 348 l 1,1,2
 423 349 423 349 390 353 c 0,3,4
 304 364 304 364 267 365 c 1,5,6
 271 286 271 286 282 188 c 1,7,8
 267 30 267 30 255 -201 c 1,9,-1
 214 -201 l 1,10,11
 202 40 202 40 186 189 c 1,12,13
 198 269 198 269 205 365 c 1,14,15
 148 362 148 362 40 350 c 1,16,-1
 26 364 l 1,17,-1
 37 436 l 1,18,19
 157 421 157 421 205 419 c 1,20,21
 205 424 205 424 183 619 c 1,22,-1
 275 629 l 1,23,-1
 289 616 l 1,24,25
 269 459 269 459 267 419 c 1,26,27
 334 422 334 422 434 436 c 1,28,-1
 448 420 l 1,0,-1
EndSplineSet
EndChar

StartChar: daggerdbl
Encoding: 8225 8225 218
Width: 498
GlyphClass: 2
Flags: W
LayerCount: 2
Fore
SplineSet
460 420 m 1,0,-1
 449 348 l 1,1,2
 435 349 435 349 402 353 c 0,3,4
 316 364 316 364 279 365 c 1,5,6
 284 302 284 302 297 224 c 1,7,8
 284 138 284 138 279 83 c 1,9,10
 346 86 346 86 446 100 c 1,11,-1
 460 84 l 1,12,-1
 449 12 l 1,13,14
 435 13 435 13 402 17 c 0,15,16
 316 28 316 28 279 29 c 1,17,18
 285 -72 285 -72 303 -186 c 1,19,-1
 211 -196 l 1,20,-1
 197 -183 l 1,21,22
 211 -71 211 -71 217 29 c 1,23,24
 160 26 160 26 52 14 c 1,25,-1
 38 28 l 1,26,-1
 49 100 l 1,27,28
 169 85 169 85 217 83 c 1,29,30
 213 154 213 154 201 225 c 1,31,32
 213 294 213 294 217 365 c 1,33,34
 160 362 160 362 52 350 c 1,35,-1
 38 364 l 1,36,-1
 49 436 l 1,37,38
 169 421 169 421 217 419 c 1,39,40
 217 424 217 424 195 619 c 1,41,-1
 287 629 l 1,42,-1
 301 616 l 1,43,44
 281 459 281 459 279 419 c 1,45,46
 346 422 346 422 446 436 c 1,47,-1
 460 420 l 1,0,-1
EndSplineSet
EndChar

StartChar: bullet
Encoding: 8226 8226 219
Width: 335
GlyphClass: 2
Flags: W
LayerCount: 2
Fore
SplineSet
101.5 252.5 m 128,-1,1
 76 278 76 278 76 317.5 c 128,-1,2
 76 357 76 357 102 383.5 c 128,-1,3
 128 410 128 410 167 410 c 128,-1,4
 206 410 206 410 232.5 383.5 c 128,-1,5
 259 357 259 357 259 318 c 128,-1,6
 259 279 259 279 232.5 253 c 128,-1,7
 206 227 206 227 166.5 227 c 128,-1,0
 127 227 127 227 101.5 252.5 c 128,-1,1
EndSplineSet
EndChar

StartChar: ellipsis
Encoding: 8230 8230 220
Width: 634
GlyphClass: 2
Flags: W
LayerCount: 2
Fore
SplineSet
67.5 7.5 m 128,-1,1
 52 23 52 23 52 46.5 c 128,-1,2
 52 70 52 70 67.5 86 c 128,-1,3
 83 102 83 102 106.5 102 c 128,-1,4
 130 102 130 102 146 86 c 128,-1,5
 162 70 162 70 162 46.5 c 128,-1,6
 162 23 162 23 146 7.5 c 128,-1,7
 130 -8 130 -8 106.5 -8 c 128,-1,0
 83 -8 83 -8 67.5 7.5 c 128,-1,1
277.5 7.5 m 128,-1,9
 262 23 262 23 262 46.5 c 128,-1,10
 262 70 262 70 277.5 86 c 128,-1,11
 293 102 293 102 316.5 102 c 128,-1,12
 340 102 340 102 356 86 c 128,-1,13
 372 70 372 70 372 46.5 c 128,-1,14
 372 23 372 23 356 7.5 c 128,-1,15
 340 -8 340 -8 316.5 -8 c 128,-1,8
 293 -8 293 -8 277.5 7.5 c 128,-1,9
487.5 7.5 m 128,-1,17
 472 23 472 23 472 46.5 c 128,-1,18
 472 70 472 70 487.5 86 c 128,-1,19
 503 102 503 102 526.5 102 c 128,-1,20
 550 102 550 102 566 86 c 128,-1,21
 582 70 582 70 582 46.5 c 128,-1,22
 582 23 582 23 566 7.5 c 128,-1,23
 550 -8 550 -8 526.5 -8 c 128,-1,16
 503 -8 503 -8 487.5 7.5 c 128,-1,17
EndSplineSet
EndChar

StartChar: perthousand
Encoding: 8240 8240 221
Width: 928
GlyphClass: 2
Flags: W
LayerCount: 2
Fore
SplineSet
434.5 35 m 128,-1,1
 397 70 397 70 397 148.5 c 128,-1,2
 397 227 397 227 440.5 272 c 128,-1,3
 484 317 484 317 542 317 c 0,4,5
 578 317 578 317 607.5 299 c 128,-1,6
 637 281 637 281 652 252 c 1,7,8
 670 280 670 280 701.5 298.5 c 128,-1,9
 733 317 733 317 769 317 c 0,10,11
 822 317 822 317 860.5 277.5 c 128,-1,12
 899 238 899 238 899 159.5 c 128,-1,13
 899 81 899 81 856 40.5 c 128,-1,14
 813 0 813 0 754 0 c 0,15,16
 716 0 716 0 686.5 16.5 c 128,-1,17
 657 33 657 33 643 58 c 1,18,19
 626 33 626 33 595 16.5 c 128,-1,20
 564 0 564 0 518 0 c 128,-1,0
 472 0 472 0 434.5 35 c 128,-1,1
74.5 368 m 128,-1,22
 37 403 37 403 37 481.5 c 128,-1,23
 37 560 37 560 80.5 605 c 128,-1,24
 124 650 124 650 183 650 c 128,-1,25
 242 650 242 650 280.5 610.5 c 128,-1,26
 319 571 319 571 319 492.5 c 128,-1,27
 319 414 319 414 276 373.5 c 128,-1,28
 233 333 233 333 172.5 333 c 128,-1,21
 112 333 112 333 74.5 368 c 128,-1,22
459 164 m 0,29,30
 459 47 459 47 544 47 c 0,31,32
 576 47 576 47 598 58 c 1,33,34
 616 97 616 97 616 152 c 0,35,36
 616 270 616 270 532 270 c 0,37,38
 500 270 500 270 478 259 c 1,39,40
 459 219 459 219 459 164 c 0,29,30
99 497 m 0,41,42
 99 380 99 380 184 380 c 0,43,44
 216 380 216 380 238 391 c 1,45,46
 256 430 256 430 256 485 c 0,47,48
 256 603 256 603 172 603 c 0,49,50
 140 603 140 603 118 592 c 1,51,52
 99 552 99 552 99 497 c 0,41,42
679 163 m 0,53,54
 679 47 679 47 764 47 c 0,55,56
 796 47 796 47 818 58 c 1,57,58
 836 97 836 97 836 152 c 0,59,60
 836 270 836 270 752 270 c 0,61,62
 720 270 720 270 698 259 c 1,63,64
 679 219 679 219 679 163 c 0,53,54
611 638 m 1,65,-1
 623 627 l 1,66,67
 381 320 381 320 165 27 c 1,68,-1
 101 12 l 1,69,-1
 89 23 l 1,70,71
 331 330 331 330 547 623 c 1,72,-1
 611 638 l 1,65,-1
EndSplineSet
EndChar

StartChar: guilsinglleft
Encoding: 8249 8249 222
Width: 309
GlyphClass: 2
Flags: W
LayerCount: 2
Fore
SplineSet
237 9 m 1,0,-1
 30 210 l 1,1,-1
 30 240 l 1,2,-1
 237 441 l 1,3,-1
 273 409 l 1,4,-1
 132 225 l 1,5,-1
 273 41 l 1,6,-1
 237 9 l 1,0,-1
EndSplineSet
EndChar

StartChar: guilsinglright
Encoding: 8250 8250 223
Width: 309
GlyphClass: 2
Flags: W
LayerCount: 2
Fore
SplineSet
279 210 m 1,0,-1
 72 9 l 1,1,-1
 36 41 l 1,2,-1
 177 225 l 1,3,-1
 36 409 l 1,4,-1
 72 441 l 1,5,-1
 279 240 l 1,6,-1
 279 210 l 1,0,-1
EndSplineSet
EndChar

StartChar: fraction
Encoding: 8260 8260 224
Width: 523
GlyphClass: 2
Flags: W
LayerCount: 2
Fore
SplineSet
517 638 m 1,0,-1
 529 627 l 1,1,2
 287 320 287 320 71 27 c 1,3,-1
 7 12 l 1,4,-1
 -5 23 l 1,5,6
 237 330 237 330 453 623 c 1,7,-1
 517 638 l 1,0,-1
EndSplineSet
EndChar

StartChar: Euro
Encoding: 8364 8364 225
Width: 609
GlyphClass: 2
Flags: W
LayerCount: 2
Fore
SplineSet
389 638 m 0,0,1
 437 638 437 638 478.5 620.5 c 128,-1,2
 520 603 520 603 536.5 587.5 c 128,-1,3
 553 572 553 572 556 565 c 1,4,-1
 505 478 l 1,5,-1
 483 484 l 1,6,-1
 478 566 l 1,7,8
 443 578 443 578 383 578 c 128,-1,9
 323 578 323 578 275 557 c 1,10,11
 209 500 209 500 193 389 c 1,12,-1
 473 393 l 1,13,-1
 483 381 l 1,14,-1
 473 338 l 1,15,-1
 50 338 l 1,16,-1
 40 349 l 1,17,-1
 51 389 l 1,18,-1
 111 389 l 1,19,20
 132 509 132 509 211.5 573.5 c 128,-1,21
 291 638 291 638 389 638 c 0,0,1
409 70 m 0,22,23
 447 70 447 70 490.5 81 c 128,-1,24
 534 92 534 92 551 101 c 1,25,-1
 565 73 l 1,26,27
 545 53 545 53 491.5 32.5 c 128,-1,28
 438 12 438 12 378 12 c 0,29,30
 283 12 283 12 212 68.5 c 128,-1,31
 141 125 141 125 116 227 c 1,32,-1
 42 227 l 1,33,-1
 31 239 l 1,34,-1
 43 278 l 1,35,-1
 454 278 l 1,36,-1
 465 266 l 1,37,-1
 454 223 l 1,38,39
 328 225 328 225 207 226 c 1,40,41
 232 148 232 148 286.5 109 c 128,-1,42
 341 70 341 70 409 70 c 0,22,23
EndSplineSet
EndChar

StartChar: trademark
Encoding: 8482 8482 226
Width: 644
GlyphClass: 2
Flags: W
LayerCount: 2
Fore
SplineSet
506 579 m 1,0,-1
 503 579 l 1,1,-1
 440 435 l 1,2,-1
 417 428 l 1,3,-1
 403 432 l 1,4,-1
 335 588 l 1,5,-1
 333 588 l 1,6,-1
 333 456 l 1,7,-1
 357 450 l 1,8,-1
 355 428 l 1,9,-1
 272 428 l 1,10,-1
 269 449 l 1,11,-1
 298 456 l 1,12,-1
 297 622 l 1,13,-1
 269 628 l 1,14,-1
 269 650 l 1,15,-1
 357 650 l 1,16,-1
 366 644 l 1,17,-1
 428 495 l 1,18,-1
 495 650 l 1,19,-1
 580 650 l 1,20,-1
 582 628 l 1,21,-1
 552 622 l 1,22,-1
 552 456 l 1,23,-1
 581 449 l 1,24,-1
 580 428 l 1,25,-1
 484 428 l 1,26,-1
 482 450 l 1,27,-1
 506 457 l 1,28,-1
 506 579 l 1,0,-1
254 650 m 1,29,-1
 254 591 l 1,30,-1
 233 588 l 1,31,-1
 216 619 l 1,32,-1
 184 619 l 1,33,-1
 184 456 l 1,34,-1
 213 449 l 1,35,-1
 210 428 l 1,36,-1
 110 428 l 1,37,-1
 108 449 l 1,38,-1
 138 456 l 1,39,-1
 138 619 l 1,40,-1
 103 619 l 1,41,42
 92 599 92 599 87 588 c 1,43,-1
 68 591 l 1,44,-1
 68 650 l 1,45,-1
 254 650 l 1,29,-1
EndSplineSet
EndChar

StartChar: minus
Encoding: 8722 8722 227
Width: 534
GlyphClass: 2
Flags: W
LayerCount: 2
Fore
SplineSet
63 309 m 1,0,-1
 75 354 l 1,1,-1
 460 356 l 1,2,-1
 471 344 l 1,3,-1
 460 295 l 1,4,5
 105 297 105 297 74 297 c 1,6,-1
 63 309 l 1,0,-1
EndSplineSet
EndChar

StartChar: ff
Encoding: 64256 64256 228
Width: 587
GlyphClass: 3
Flags: W
LayerCount: 2
Fore
SplineSet
607 610 m 1,0,1
 568 617 568 617 530 617 c 128,-1,2
 492 617 492 617 468 605 c 1,3,4
 454 575 454 575 454 480 c 2,5,-1
 454 450 l 1,6,-1
 563 450 l 1,7,-1
 574 438 l 1,8,-1
 564 400 l 1,9,-1
 454 404 l 1,10,-1
 454 61 l 1,11,-1
 548 22 l 1,12,-1
 542 0 l 1,13,-1
 303 0 l 1,14,-1
 297 22 l 1,15,-1
 342 41 l 2,16,17
 360 48 360 48 366.5 56 c 128,-1,18
 373 64 373 64 373 79 c 2,19,-1
 373 401 l 1,20,-1
 180 404 l 1,21,-1
 180 50 l 1,22,-1
 249 22 l 1,23,-1
 243 0 l 1,24,-1
 29 0 l 1,25,-1
 23 22 l 1,26,-1
 68 41 l 2,27,28
 86 48 86 48 92.5 56 c 128,-1,29
 99 64 99 64 99 79 c 2,30,-1
 99 403 l 1,31,-1
 29 402 l 1,32,-1
 23 424 l 1,33,-1
 99 458 l 1,34,35
 99 556 99 556 159 619 c 0,36,37
 224 688 224 688 330 688 c 0,38,39
 394 688 394 688 473 663 c 1,40,41
 517 686 517 686 572 686 c 0,42,43
 601 686 601 686 614 680 c 1,44,-1
 621 659 l 1,45,-1
 607 610 l 1,0,1
180 450 m 1,46,-1
 373 450 l 1,47,48
 373 548 373 548 413 608 c 1,49,50
 378 623 378 623 316 623 c 0,51,52
 236 623 236 623 199 596 c 1,53,54
 180 566 180 566 180 450 c 1,46,-1
EndSplineSet
Ligature2: "'liga' Standard Ligatures in Latin lookup 0 subtable" f f
EndChar

StartChar: fi
Encoding: 64257 64257 229
Width: 552
GlyphClass: 3
Flags: W
LayerCount: 2
Fore
SplineSet
99 79 m 2,0,-1
 99 403 l 1,1,-1
 29 402 l 1,2,-1
 23 424 l 1,3,-1
 99 458 l 1,4,5
 101 557 101 557 157 622.5 c 128,-1,6
 213 688 213 688 313 688 c 128,-1,7
 413 688 413 688 473 616 c 1,8,-1
 413 563 l 1,9,-1
 395 568 l 1,10,11
 382 588 382 588 353 605 c 0,12,13
 322 623 322 623 273.5 623 c 128,-1,14
 225 623 225 623 199 602 c 1,15,16
 180 572 180 572 180 450 c 1,17,-1
 444 458 l 1,18,-1
 464 450 l 1,19,-1
 464 54 l 1,20,-1
 543 22 l 1,21,-1
 537 0 l 1,22,-1
 313 0 l 1,23,-1
 307 22 l 1,24,-1
 352 41 l 2,25,26
 370 48 370 48 376.5 56 c 128,-1,27
 383 64 383 64 383 79 c 2,28,-1
 383 401 l 1,29,-1
 180 404 l 1,30,-1
 180 54 l 1,31,-1
 259 22 l 1,32,-1
 253 0 l 1,33,-1
 29 0 l 1,34,-1
 23 22 l 1,35,-1
 68 41 l 2,36,37
 86 48 86 48 92.5 56 c 128,-1,38
 99 64 99 64 99 79 c 2,0,-1
EndSplineSet
Ligature2: "'liga' Standard Ligatures in Latin lookup 0 subtable" f i
EndChar

StartChar: fl
Encoding: 64258 64258 230
Width: 554
GlyphClass: 3
Flags: W
LayerCount: 2
Fore
SplineSet
383 606 m 1,0,1
 337 618 337 618 305.5 618 c 128,-1,2
 274 618 274 618 244.5 614.5 c 128,-1,3
 215 611 215 611 199 596 c 1,4,5
 180 566 180 566 180 450 c 1,6,-1
 289 450 l 1,7,-1
 300 438 l 1,8,-1
 290 400 l 1,9,-1
 180 404 l 1,10,-1
 180 54 l 1,11,-1
 259 22 l 1,12,-1
 253 0 l 1,13,-1
 29 0 l 1,14,-1
 23 22 l 1,15,-1
 68 41 l 2,16,17
 86 48 86 48 92.5 56 c 128,-1,18
 99 64 99 64 99 79 c 2,19,-1
 99 403 l 1,20,-1
 29 402 l 1,21,-1
 23 424 l 1,22,-1
 99 458 l 1,23,24
 99 554 99 554 159.5 618.5 c 128,-1,25
 220 683 220 683 297 687 c 0,26,27
 307 688 307 688 335.5 688 c 128,-1,28
 364 688 364 688 408 676 c 1,29,-1
 444 688 l 1,30,-1
 464 680 l 1,31,-1
 464 54 l 1,32,-1
 543 22 l 1,33,-1
 537 0 l 1,34,-1
 313 0 l 1,35,-1
 307 22 l 1,36,-1
 352 41 l 2,37,38
 370 48 370 48 376.5 56 c 128,-1,39
 383 64 383 64 383 79 c 2,40,-1
 383 606 l 1,0,1
EndSplineSet
Ligature2: "'liga' Standard Ligatures in Latin lookup 0 subtable" f l
EndChar

StartChar: ffi
Encoding: 64259 64259 231
Width: 826
GlyphClass: 3
Flags: W
LayerCount: 2
Fore
SplineSet
99 79 m 2,0,-1
 99 403 l 1,1,-1
 29 402 l 1,2,-1
 23 424 l 1,3,-1
 99 458 l 1,4,5
 99 556 99 556 159 619 c 0,6,7
 224 688 224 688 330 688 c 0,8,9
 394 688 394 688 473 663 c 1,10,11
 521 688 521 688 583 688 c 0,12,13
 687 688 687 688 747 616 c 1,14,-1
 687 563 l 1,15,-1
 669 568 l 1,16,17
 656 588 656 588 627 605 c 0,18,19
 596 623 596 623 547.5 623 c 128,-1,20
 499 623 499 623 473 602 c 1,21,22
 454 572 454 572 454 450 c 1,23,-1
 718 458 l 1,24,-1
 738 450 l 1,25,-1
 738 54 l 1,26,-1
 817 22 l 1,27,-1
 811 0 l 1,28,-1
 587 0 l 1,29,-1
 581 22 l 1,30,-1
 626 41 l 2,31,32
 644 48 644 48 650.5 56 c 128,-1,33
 657 64 657 64 657 79 c 2,34,-1
 657 401 l 1,35,-1
 454 404 l 1,36,-1
 454 54 l 1,37,-1
 533 22 l 1,38,-1
 527 0 l 1,39,-1
 303 0 l 1,40,-1
 297 22 l 1,41,-1
 342 41 l 2,42,43
 360 48 360 48 366.5 56 c 128,-1,44
 373 64 373 64 373 79 c 2,45,-1
 373 401 l 1,46,-1
 180 404 l 1,47,-1
 180 50 l 1,48,-1
 249 22 l 1,49,-1
 243 0 l 1,50,-1
 29 0 l 1,51,-1
 23 22 l 1,52,-1
 68 41 l 2,53,54
 86 48 86 48 92.5 56 c 128,-1,55
 99 64 99 64 99 79 c 2,0,-1
180 450 m 1,57,-1
 373 450 l 1,58,59
 373 548 373 548 413 608 c 1,60,61
 377 623 377 623 316 623 c 0,62,63
 236 623 236 623 199 596 c 1,64,56
 180 566 180 566 180 450 c 1,57,-1
EndSplineSet
Ligature2: "'liga' Standard Ligatures in Latin lookup 0 subtable" f f i
EndChar

StartChar: ffl
Encoding: 64260 64260 232
Width: 828
GlyphClass: 3
Flags: W
LayerCount: 2
Fore
SplineSet
657 606 m 1,0,1
 611 618 611 618 579.5 618 c 128,-1,2
 548 618 548 618 518.5 614.5 c 128,-1,3
 489 611 489 611 473 596 c 1,4,5
 454 566 454 566 454 450 c 1,6,-1
 563 450 l 1,7,-1
 574 438 l 1,8,-1
 564 400 l 1,9,-1
 454 404 l 1,10,-1
 454 54 l 1,11,-1
 533 22 l 1,12,-1
 527 0 l 1,13,-1
 303 0 l 1,14,-1
 297 22 l 1,15,-1
 342 41 l 2,16,17
 360 48 360 48 366.5 56 c 128,-1,18
 373 64 373 64 373 79 c 2,19,-1
 373 401 l 1,20,-1
 180 404 l 1,21,-1
 180 50 l 1,22,-1
 249 22 l 1,23,-1
 243 0 l 1,24,-1
 29 0 l 1,25,-1
 23 22 l 1,26,-1
 68 41 l 2,27,28
 86 48 86 48 92.5 56 c 128,-1,29
 99 64 99 64 99 79 c 2,30,-1
 99 403 l 1,31,-1
 29 402 l 1,32,-1
 23 424 l 1,33,-1
 99 458 l 1,34,35
 99 556 99 556 159 619 c 0,36,37
 224 688 224 688 329 688 c 0,38,39
 397 688 397 688 482 660 c 1,40,41
 534 687 534 687 591 687 c 128,-1,42
 648 687 648 687 682 676 c 1,43,-1
 718 688 l 1,44,-1
 738 680 l 1,45,-1
 738 54 l 1,46,-1
 817 22 l 1,47,-1
 811 0 l 1,48,-1
 587 0 l 1,49,-1
 581 22 l 1,50,-1
 626 41 l 2,51,52
 644 48 644 48 650.5 56 c 128,-1,53
 657 64 657 64 657 79 c 2,54,-1
 657 606 l 1,0,1
180 450 m 1,55,-1
 373 450 l 1,56,57
 373 543 373 543 420 605 c 1,58,59
 374 622 374 622 304.5 622 c 128,-1,60
 235 622 235 622 199 596 c 1,61,62
 180 566 180 566 180 450 c 1,55,-1
EndSplineSet
Ligature2: "'liga' Standard Ligatures in Latin lookup 0 subtable" f f l
EndChar

StartChar: fj
Encoding: 65539 -1 233
Width: 521
GlyphClass: 3
Flags: W
LayerCount: 2
Fore
SplineSet
99 79 m 2,0,-1
 99 403 l 1,1,-1
 29 402 l 1,2,-1
 23 424 l 1,3,-1
 99 458 l 1,4,5
 101 557 101 557 157 622.5 c 128,-1,6
 213 688 213 688 313 688 c 128,-1,7
 413 688 413 688 473 616 c 1,8,-1
 413 563 l 1,9,-1
 395 568 l 1,10,11
 382 588 382 588 353 605 c 0,12,13
 322 623 322 623 273.5 623 c 128,-1,14
 225 623 225 623 199 602 c 1,15,16
 180 572 180 572 180 450 c 1,17,-1
 434 458 l 1,18,-1
 454 450 l 1,19,-1
 454 0 l 2,20,21
 454 -80 454 -80 415.5 -140.5 c 128,-1,22
 377 -201 377 -201 311 -238 c 1,23,-1
 297 -220 l 1,24,25
 373 -131 373 -131 373 -8 c 2,26,-1
 373 401 l 1,27,-1
 180 404 l 1,28,-1
 180 54 l 1,29,-1
 259 22 l 1,30,-1
 253 0 l 1,31,-1
 29 0 l 1,32,-1
 23 22 l 1,33,-1
 68 41 l 2,34,35
 86 48 86 48 92.5 56 c 128,-1,36
 99 64 99 64 99 79 c 2,0,-1
EndSplineSet
Ligature2: "'liga' Standard Ligatures in Latin lookup 0 subtable" f j
EndChar

StartChar: ffj
Encoding: 65540 -1 234
Width: 795
GlyphClass: 3
Flags: W
LayerCount: 2
Fore
SplineSet
99 79 m 2,0,-1
 99 403 l 1,1,-1
 29 402 l 1,2,-1
 23 424 l 1,3,-1
 99 458 l 1,4,5
 99 556 99 556 159 619 c 0,6,7
 224 688 224 688 330 688 c 0,8,9
 394 688 394 688 473 663 c 1,10,11
 521 688 521 688 583 688 c 0,12,13
 687 688 687 688 747 616 c 1,14,-1
 687 563 l 1,15,-1
 669 568 l 1,16,17
 656 588 656 588 627 605 c 0,18,19
 596 623 596 623 547.5 623 c 128,-1,20
 499 623 499 623 473 602 c 1,21,22
 454 572 454 572 454 450 c 1,23,-1
 708 458 l 1,24,-1
 728 450 l 1,25,-1
 728 0 l 2,26,27
 728 -80 728 -80 689.5 -140.5 c 128,-1,28
 651 -201 651 -201 585 -238 c 1,29,-1
 571 -220 l 1,30,31
 647 -131 647 -131 647 -8 c 2,32,-1
 647 401 l 1,33,-1
 454 404 l 1,34,-1
 454 54 l 1,35,-1
 533 22 l 1,36,-1
 527 0 l 1,37,-1
 303 0 l 1,38,-1
 297 22 l 1,39,-1
 342 41 l 2,40,41
 360 48 360 48 366.5 56 c 128,-1,42
 373 64 373 64 373 79 c 2,43,-1
 373 401 l 1,44,-1
 180 404 l 1,45,-1
 180 50 l 1,46,-1
 249 22 l 1,47,-1
 243 0 l 1,48,-1
 29 0 l 1,49,-1
 23 22 l 1,50,-1
 68 41 l 2,51,52
 86 48 86 48 92.5 56 c 128,-1,53
 99 64 99 64 99 79 c 2,0,-1
180 450 m 1,55,-1
 373 450 l 1,56,57
 373 548 373 548 413 608 c 1,58,59
 377 623 377 623 316 623 c 0,60,61
 236 623 236 623 199 596 c 1,62,54
 180 566 180 566 180 450 c 1,55,-1
EndSplineSet
Ligature2: "'liga' Standard Ligatures in Latin lookup 0 subtable" f f j
EndChar

